ISO-10303-21;
HEADER;
/* Generated by software containing ST-Developer
 * from STEP Tools, Inc. (www.steptools.com) 
 */
/* OPTION: using custom renumber hook */

FILE_DESCRIPTION(
/* description */ ('STEP AP242 Edition 2',
'CAx-IF Rec.Pracs.---Representation and Presentation of Product Manufa
cturing Information (PMI)---4.0---2014-10-13',
'CAx-IF Rec.Pracs.---3D Tessellated Geometry---0.4---2014-09-14','2;1',
'CAx-IF Rec.Pracs.---User Defined Attributes---1.5---2016-08-15'),
/* implementation_level */ '2;1');

FILE_NAME(
/* name */ 'Part Studio 1',
/* time_stamp */ '2026-06-26T11:17:43Z',
/* author */ (''),
/* organization */ (''),
/* preprocessor_version */ 'ST-DEVELOPER v20',
/* originating_system */ 'ONSHAPE BY PTC INC, 1.216',
/* authorisation */ '  ');

FILE_SCHEMA (('AP242_MANAGED_MODEL_BASED_3D_ENGINEERING_MIM_LF { 1 0 10303 442 3 1 4 }'));
ENDSEC;

DATA;
#10=SHAPE_REPRESENTATION_RELATIONSHIP('','',#549,#11);
#11=ADVANCED_BREP_SHAPE_REPRESENTATION('',(#547),#921);
#12=ELLIPSE('',#571,3.32010774504254,3.);
#13=ELLIPSE('',#572,4.24264068711928,3.);
#14=ELLIPSE('',#574,4.24264068711928,3.);
#15=ELLIPSE('',#576,3.1851807274262,3.);
#16=ELLIPSE('',#578,3.19252994612493,3.);
#17=ELLIPSE('',#580,3.3101382352441,3.);
#18=CYLINDRICAL_SURFACE('',#570,3.);
#19=CYLINDRICAL_SURFACE('',#573,3.);
#20=CYLINDRICAL_SURFACE('',#575,3.);
#21=CYLINDRICAL_SURFACE('',#577,3.);
#22=CYLINDRICAL_SURFACE('',#579,3.);
#23=CYLINDRICAL_SURFACE('',#581,3.);
#24=CYLINDRICAL_SURFACE('',#582,2.25);
#25=CYLINDRICAL_SURFACE('',#586,2.25);
#26=CYLINDRICAL_SURFACE('',#590,2.25);
#27=CYLINDRICAL_SURFACE('',#594,2.25);
#28=CYLINDRICAL_SURFACE('',#598,1.75);
#29=CYLINDRICAL_SURFACE('',#601,1.75);
#30=CYLINDRICAL_SURFACE('',#604,1.75);
#31=CYLINDRICAL_SURFACE('',#607,1.75);
#32=CIRCLE('',#566,2.25);
#33=CIRCLE('',#567,2.25);
#34=CIRCLE('',#568,2.25);
#35=CIRCLE('',#569,2.25);
#36=CIRCLE('',#583,2.25);
#37=CIRCLE('',#585,1.75);
#38=CIRCLE('',#587,2.25);
#39=CIRCLE('',#589,1.75);
#40=CIRCLE('',#591,2.25);
#41=CIRCLE('',#593,1.75);
#42=CIRCLE('',#595,2.25);
#43=CIRCLE('',#597,1.75);
#44=CIRCLE('',#599,1.75);
#45=CIRCLE('',#602,1.75);
#46=CIRCLE('',#605,1.75);
#47=CIRCLE('',#608,1.75);
#48=ORIENTED_EDGE('',*,*,#176,.T.);
#49=ORIENTED_EDGE('',*,*,#177,.T.);
#50=ORIENTED_EDGE('',*,*,#178,.T.);
#51=ORIENTED_EDGE('',*,*,#179,.F.);
#52=ORIENTED_EDGE('',*,*,#180,.F.);
#53=ORIENTED_EDGE('',*,*,#181,.F.);
#54=ORIENTED_EDGE('',*,*,#182,.T.);
#55=ORIENTED_EDGE('',*,*,#183,.T.);
#56=ORIENTED_EDGE('',*,*,#184,.T.);
#57=ORIENTED_EDGE('',*,*,#185,.F.);
#58=ORIENTED_EDGE('',*,*,#186,.F.);
#59=ORIENTED_EDGE('',*,*,#187,.F.);
#60=ORIENTED_EDGE('',*,*,#188,.F.);
#61=ORIENTED_EDGE('',*,*,#189,.T.);
#62=ORIENTED_EDGE('',*,*,#190,.T.);
#63=ORIENTED_EDGE('',*,*,#176,.F.);
#64=ORIENTED_EDGE('',*,*,#191,.F.);
#65=ORIENTED_EDGE('',*,*,#192,.T.);
#66=ORIENTED_EDGE('',*,*,#188,.T.);
#67=ORIENTED_EDGE('',*,*,#181,.T.);
#68=ORIENTED_EDGE('',*,*,#193,.F.);
#69=ORIENTED_EDGE('',*,*,#194,.T.);
#70=ORIENTED_EDGE('',*,*,#191,.T.);
#71=ORIENTED_EDGE('',*,*,#180,.T.);
#72=ORIENTED_EDGE('',*,*,#195,.F.);
#73=ORIENTED_EDGE('',*,*,#196,.T.);
#74=ORIENTED_EDGE('',*,*,#193,.T.);
#75=ORIENTED_EDGE('',*,*,#179,.T.);
#76=ORIENTED_EDGE('',*,*,#197,.F.);
#77=ORIENTED_EDGE('',*,*,#198,.T.);
#78=ORIENTED_EDGE('',*,*,#195,.T.);
#79=ORIENTED_EDGE('',*,*,#178,.F.);
#80=ORIENTED_EDGE('',*,*,#190,.F.);
#81=ORIENTED_EDGE('',*,*,#199,.T.);
#82=ORIENTED_EDGE('',*,*,#197,.T.);
#83=ORIENTED_EDGE('',*,*,#177,.F.);
#84=ORIENTED_EDGE('',*,*,#200,.T.);
#85=ORIENTED_EDGE('',*,*,#201,.T.);
#86=ORIENTED_EDGE('',*,*,#202,.T.);
#87=ORIENTED_EDGE('',*,*,#203,.T.);
#88=ORIENTED_EDGE('',*,*,#204,.T.);
#89=ORIENTED_EDGE('',*,*,#205,.T.);
#90=ORIENTED_EDGE('',*,*,#182,.F.);
#91=ORIENTED_EDGE('',*,*,#206,.F.);
#92=ORIENTED_EDGE('',*,*,#207,.T.);
#93=ORIENTED_EDGE('',*,*,#208,.T.);
#94=ORIENTED_EDGE('',*,*,#187,.T.);
#95=ORIENTED_EDGE('',*,*,#209,.F.);
#96=ORIENTED_EDGE('',*,*,#210,.F.);
#97=ORIENTED_EDGE('',*,*,#206,.T.);
#98=ORIENTED_EDGE('',*,*,#186,.T.);
#99=ORIENTED_EDGE('',*,*,#211,.F.);
#100=ORIENTED_EDGE('',*,*,#212,.F.);
#101=ORIENTED_EDGE('',*,*,#209,.T.);
#102=ORIENTED_EDGE('',*,*,#185,.T.);
#103=ORIENTED_EDGE('',*,*,#213,.F.);
#104=ORIENTED_EDGE('',*,*,#214,.F.);
#105=ORIENTED_EDGE('',*,*,#211,.T.);
#106=ORIENTED_EDGE('',*,*,#184,.F.);
#107=ORIENTED_EDGE('',*,*,#215,.F.);
#108=ORIENTED_EDGE('',*,*,#216,.T.);
#109=ORIENTED_EDGE('',*,*,#213,.T.);
#110=ORIENTED_EDGE('',*,*,#183,.F.);
#111=ORIENTED_EDGE('',*,*,#208,.F.);
#112=ORIENTED_EDGE('',*,*,#217,.T.);
#113=ORIENTED_EDGE('',*,*,#215,.T.);
#114=ORIENTED_EDGE('',*,*,#218,.F.);
#115=ORIENTED_EDGE('',*,*,#219,.F.);
#116=ORIENTED_EDGE('',*,*,#220,.F.);
#117=ORIENTED_EDGE('',*,*,#221,.F.);
#118=ORIENTED_EDGE('',*,*,#207,.F.);
#119=ORIENTED_EDGE('',*,*,#210,.T.);
#120=ORIENTED_EDGE('',*,*,#212,.T.);
#121=ORIENTED_EDGE('',*,*,#214,.T.);
#122=ORIENTED_EDGE('',*,*,#216,.F.);
#123=ORIENTED_EDGE('',*,*,#217,.F.);
#124=ORIENTED_EDGE('',*,*,#222,.F.);
#125=ORIENTED_EDGE('',*,*,#204,.F.);
#126=ORIENTED_EDGE('',*,*,#223,.F.);
#127=ORIENTED_EDGE('',*,*,#192,.F.);
#128=ORIENTED_EDGE('',*,*,#223,.T.);
#129=ORIENTED_EDGE('',*,*,#203,.F.);
#130=ORIENTED_EDGE('',*,*,#224,.F.);
#131=ORIENTED_EDGE('',*,*,#189,.F.);
#132=ORIENTED_EDGE('',*,*,#222,.T.);
#133=ORIENTED_EDGE('',*,*,#194,.F.);
#134=ORIENTED_EDGE('',*,*,#225,.F.);
#135=ORIENTED_EDGE('',*,*,#205,.F.);
#136=ORIENTED_EDGE('',*,*,#224,.T.);
#137=ORIENTED_EDGE('',*,*,#202,.F.);
#138=ORIENTED_EDGE('',*,*,#226,.F.);
#139=ORIENTED_EDGE('',*,*,#199,.F.);
#140=ORIENTED_EDGE('',*,*,#225,.T.);
#141=ORIENTED_EDGE('',*,*,#196,.F.);
#142=ORIENTED_EDGE('',*,*,#227,.F.);
#143=ORIENTED_EDGE('',*,*,#200,.F.);
#144=ORIENTED_EDGE('',*,*,#226,.T.);
#145=ORIENTED_EDGE('',*,*,#201,.F.);
#146=ORIENTED_EDGE('',*,*,#227,.T.);
#147=ORIENTED_EDGE('',*,*,#198,.F.);
#148=ORIENTED_EDGE('',*,*,#228,.F.);
#149=ORIENTED_EDGE('',*,*,#221,.T.);
#150=ORIENTED_EDGE('',*,*,#229,.F.);
#151=ORIENTED_EDGE('',*,*,#228,.T.);
#152=ORIENTED_EDGE('',*,*,#230,.F.);
#153=ORIENTED_EDGE('',*,*,#220,.T.);
#154=ORIENTED_EDGE('',*,*,#231,.F.);
#155=ORIENTED_EDGE('',*,*,#230,.T.);
#156=ORIENTED_EDGE('',*,*,#232,.F.);
#157=ORIENTED_EDGE('',*,*,#219,.T.);
#158=ORIENTED_EDGE('',*,*,#233,.F.);
#159=ORIENTED_EDGE('',*,*,#232,.T.);
#160=ORIENTED_EDGE('',*,*,#234,.F.);
#161=ORIENTED_EDGE('',*,*,#218,.T.);
#162=ORIENTED_EDGE('',*,*,#235,.F.);
#163=ORIENTED_EDGE('',*,*,#234,.T.);
#164=ORIENTED_EDGE('',*,*,#236,.F.);
#165=ORIENTED_EDGE('',*,*,#235,.T.);
#166=ORIENTED_EDGE('',*,*,#236,.T.);
#167=ORIENTED_EDGE('',*,*,#237,.F.);
#168=ORIENTED_EDGE('',*,*,#233,.T.);
#169=ORIENTED_EDGE('',*,*,#237,.T.);
#170=ORIENTED_EDGE('',*,*,#238,.F.);
#171=ORIENTED_EDGE('',*,*,#231,.T.);
#172=ORIENTED_EDGE('',*,*,#238,.T.);
#173=ORIENTED_EDGE('',*,*,#239,.F.);
#174=ORIENTED_EDGE('',*,*,#229,.T.);
#175=ORIENTED_EDGE('',*,*,#239,.T.);
#176=EDGE_CURVE('',#240,#241,#286,.T.);
#177=EDGE_CURVE('',#241,#242,#287,.T.);
#178=EDGE_CURVE('',#242,#243,#288,.T.);
#179=EDGE_CURVE('',#244,#243,#289,.T.);
#180=EDGE_CURVE('',#245,#244,#290,.T.);
#181=EDGE_CURVE('',#240,#245,#291,.T.);
#182=EDGE_CURVE('',#246,#247,#292,.T.);
#183=EDGE_CURVE('',#247,#248,#293,.T.);
#184=EDGE_CURVE('',#248,#249,#294,.T.);
#185=EDGE_CURVE('',#250,#249,#295,.T.);
#186=EDGE_CURVE('',#251,#250,#296,.T.);
#187=EDGE_CURVE('',#246,#251,#297,.T.);
#188=EDGE_CURVE('',#252,#240,#298,.T.);
#189=EDGE_CURVE('',#252,#253,#299,.T.);
#190=EDGE_CURVE('',#253,#241,#300,.T.);
#191=EDGE_CURVE('',#254,#245,#301,.T.);
#192=EDGE_CURVE('',#254,#252,#302,.F.);
#193=EDGE_CURVE('',#255,#244,#303,.T.);
#194=EDGE_CURVE('',#255,#254,#304,.F.);
#195=EDGE_CURVE('',#256,#243,#305,.T.);
#196=EDGE_CURVE('',#256,#255,#306,.F.);
#197=EDGE_CURVE('',#257,#242,#307,.T.);
#198=EDGE_CURVE('',#257,#256,#308,.T.);
#199=EDGE_CURVE('',#253,#257,#309,.T.);
#200=EDGE_CURVE('',#258,#259,#310,.T.);
#201=EDGE_CURVE('',#259,#260,#311,.F.);
#202=EDGE_CURVE('',#260,#261,#312,.F.);
#203=EDGE_CURVE('',#261,#262,#313,.F.);
#204=EDGE_CURVE('',#262,#263,#314,.T.);
#205=EDGE_CURVE('',#263,#258,#315,.T.);
#206=EDGE_CURVE('',#264,#246,#316,.T.);
#207=EDGE_CURVE('',#264,#265,#317,.T.);
#208=EDGE_CURVE('',#265,#247,#318,.T.);
#209=EDGE_CURVE('',#266,#251,#319,.T.);
#210=EDGE_CURVE('',#264,#266,#320,.T.);
#211=EDGE_CURVE('',#267,#250,#321,.T.);
#212=EDGE_CURVE('',#266,#267,#322,.T.);
#213=EDGE_CURVE('',#268,#249,#323,.T.);
#214=EDGE_CURVE('',#267,#268,#324,.T.);
#215=EDGE_CURVE('',#269,#248,#325,.T.);
#216=EDGE_CURVE('',#269,#268,#326,.T.);
#217=EDGE_CURVE('',#265,#269,#327,.T.);
#218=EDGE_CURVE('',#270,#270,#32,.T.);
#219=EDGE_CURVE('',#271,#271,#33,.T.);
#220=EDGE_CURVE('',#272,#272,#34,.T.);
#221=EDGE_CURVE('',#273,#273,#35,.T.);
#222=EDGE_CURVE('',#263,#254,#12,.F.);
#223=EDGE_CURVE('',#252,#262,#13,.T.);
#224=EDGE_CURVE('',#253,#261,#14,.T.);
#225=EDGE_CURVE('',#258,#255,#15,.F.);
#226=EDGE_CURVE('',#257,#260,#16,.T.);
#227=EDGE_CURVE('',#259,#256,#17,.F.);
#228=EDGE_CURVE('',#274,#274,#36,.T.);
#229=EDGE_CURVE('',#275,#275,#37,.T.);
#230=EDGE_CURVE('',#276,#276,#38,.T.);
#231=EDGE_CURVE('',#277,#277,#39,.T.);
#232=EDGE_CURVE('',#278,#278,#40,.T.);
#233=EDGE_CURVE('',#279,#279,#41,.T.);
#234=EDGE_CURVE('',#280,#280,#42,.T.);
#235=EDGE_CURVE('',#281,#281,#43,.T.);
#236=EDGE_CURVE('',#282,#282,#44,.T.);
#237=EDGE_CURVE('',#283,#283,#45,.T.);
#238=EDGE_CURVE('',#284,#284,#46,.T.);
#239=EDGE_CURVE('',#285,#285,#47,.T.);
#240=VERTEX_POINT('',#775);
#241=VERTEX_POINT('',#776);
#242=VERTEX_POINT('',#778);
#243=VERTEX_POINT('',#780);
#244=VERTEX_POINT('',#782);
#245=VERTEX_POINT('',#784);
#246=VERTEX_POINT('',#787);
#247=VERTEX_POINT('',#788);
#248=VERTEX_POINT('',#790);
#249=VERTEX_POINT('',#792);
#250=VERTEX_POINT('',#794);
#251=VERTEX_POINT('',#796);
#252=VERTEX_POINT('',#800);
#253=VERTEX_POINT('',#802);
#254=VERTEX_POINT('',#806);
#255=VERTEX_POINT('',#810);
#256=VERTEX_POINT('',#814);
#257=VERTEX_POINT('',#818);
#258=VERTEX_POINT('',#824);
#259=VERTEX_POINT('',#825);
#260=VERTEX_POINT('',#827);
#261=VERTEX_POINT('',#829);
#262=VERTEX_POINT('',#831);
#263=VERTEX_POINT('',#833);
#264=VERTEX_POINT('',#837);
#265=VERTEX_POINT('',#839);
#266=VERTEX_POINT('',#843);
#267=VERTEX_POINT('',#847);
#268=VERTEX_POINT('',#851);
#269=VERTEX_POINT('',#855);
#270=VERTEX_POINT('',#861);
#271=VERTEX_POINT('',#863);
#272=VERTEX_POINT('',#865);
#273=VERTEX_POINT('',#867);
#274=VERTEX_POINT('',#882);
#275=VERTEX_POINT('',#885);
#276=VERTEX_POINT('',#888);
#277=VERTEX_POINT('',#891);
#278=VERTEX_POINT('',#894);
#279=VERTEX_POINT('',#897);
#280=VERTEX_POINT('',#900);
#281=VERTEX_POINT('',#903);
#282=VERTEX_POINT('',#906);
#283=VERTEX_POINT('',#910);
#284=VERTEX_POINT('',#914);
#285=VERTEX_POINT('',#918);
#286=LINE('',#774,#328);
#287=LINE('',#777,#329);
#288=LINE('',#779,#330);
#289=LINE('',#781,#331);
#290=LINE('',#783,#332);
#291=LINE('',#785,#333);
#292=LINE('',#786,#334);
#293=LINE('',#789,#335);
#294=LINE('',#791,#336);
#295=LINE('',#793,#337);
#296=LINE('',#795,#338);
#297=LINE('',#797,#339);
#298=LINE('',#799,#340);
#299=LINE('',#801,#341);
#300=LINE('',#803,#342);
#301=LINE('',#805,#343);
#302=LINE('',#807,#344);
#303=LINE('',#809,#345);
#304=LINE('',#811,#346);
#305=LINE('',#813,#347);
#306=LINE('',#815,#348);
#307=LINE('',#817,#349);
#308=LINE('',#819,#350);
#309=LINE('',#821,#351);
#310=LINE('',#823,#352);
#311=LINE('',#826,#353);
#312=LINE('',#828,#354);
#313=LINE('',#830,#355);
#314=LINE('',#832,#356);
#315=LINE('',#834,#357);
#316=LINE('',#836,#358);
#317=LINE('',#838,#359);
#318=LINE('',#840,#360);
#319=LINE('',#842,#361);
#320=LINE('',#844,#362);
#321=LINE('',#846,#363);
#322=LINE('',#848,#364);
#323=LINE('',#850,#365);
#324=LINE('',#852,#366);
#325=LINE('',#854,#367);
#326=LINE('',#856,#368);
#327=LINE('',#858,#369);
#328=VECTOR('',#614,1000.);
#329=VECTOR('',#615,1000.);
#330=VECTOR('',#616,1000.);
#331=VECTOR('',#617,1000.);
#332=VECTOR('',#618,1000.);
#333=VECTOR('',#619,1000.);
#334=VECTOR('',#620,1000.);
#335=VECTOR('',#621,1000.);
#336=VECTOR('',#622,1000.);
#337=VECTOR('',#623,1000.);
#338=VECTOR('',#624,1000.);
#339=VECTOR('',#625,1000.);
#340=VECTOR('',#628,1000.);
#341=VECTOR('',#629,1000.);
#342=VECTOR('',#630,1000.);
#343=VECTOR('',#633,1000.);
#344=VECTOR('',#634,1000.);
#345=VECTOR('',#637,1000.);
#346=VECTOR('',#638,1000.);
#347=VECTOR('',#641,1000.);
#348=VECTOR('',#642,1000.);
#349=VECTOR('',#645,1000.);
#350=VECTOR('',#646,1000.);
#351=VECTOR('',#649,1000.);
#352=VECTOR('',#652,1000.);
#353=VECTOR('',#653,1000.);
#354=VECTOR('',#654,1000.);
#355=VECTOR('',#655,1000.);
#356=VECTOR('',#656,1000.);
#357=VECTOR('',#657,1000.);
#358=VECTOR('',#660,1000.);
#359=VECTOR('',#661,1000.);
#360=VECTOR('',#662,1000.);
#361=VECTOR('',#665,1000.);
#362=VECTOR('',#666,1000.);
#363=VECTOR('',#669,1000.);
#364=VECTOR('',#670,1000.);
#365=VECTOR('',#673,1000.);
#366=VECTOR('',#674,1000.);
#367=VECTOR('',#677,1000.);
#368=VECTOR('',#678,1000.);
#369=VECTOR('',#681,1000.);
#370=EDGE_LOOP('',(#48,#49,#50,#51,#52,#53));
#371=EDGE_LOOP('',(#54,#55,#56,#57,#58,#59));
#372=EDGE_LOOP('',(#60,#61,#62,#63));
#373=EDGE_LOOP('',(#64,#65,#66,#67));
#374=EDGE_LOOP('',(#68,#69,#70,#71));
#375=EDGE_LOOP('',(#72,#73,#74,#75));
#376=EDGE_LOOP('',(#76,#77,#78,#79));
#377=EDGE_LOOP('',(#80,#81,#82,#83));
#378=EDGE_LOOP('',(#84,#85,#86,#87,#88,#89));
#379=EDGE_LOOP('',(#90,#91,#92,#93));
#380=EDGE_LOOP('',(#94,#95,#96,#97));
#381=EDGE_LOOP('',(#98,#99,#100,#101));
#382=EDGE_LOOP('',(#102,#103,#104,#105));
#383=EDGE_LOOP('',(#106,#107,#108,#109));
#384=EDGE_LOOP('',(#110,#111,#112,#113));
#385=EDGE_LOOP('',(#114));
#386=EDGE_LOOP('',(#115));
#387=EDGE_LOOP('',(#116));
#388=EDGE_LOOP('',(#117));
#389=EDGE_LOOP('',(#118,#119,#120,#121,#122,#123));
#390=EDGE_LOOP('',(#124,#125,#126,#127));
#391=EDGE_LOOP('',(#128,#129,#130,#131));
#392=EDGE_LOOP('',(#132,#133,#134,#135));
#393=EDGE_LOOP('',(#136,#137,#138,#139));
#394=EDGE_LOOP('',(#140,#141,#142,#143));
#395=EDGE_LOOP('',(#144,#145,#146,#147));
#396=EDGE_LOOP('',(#148));
#397=EDGE_LOOP('',(#149));
#398=EDGE_LOOP('',(#150));
#399=EDGE_LOOP('',(#151));
#400=EDGE_LOOP('',(#152));
#401=EDGE_LOOP('',(#153));
#402=EDGE_LOOP('',(#154));
#403=EDGE_LOOP('',(#155));
#404=EDGE_LOOP('',(#156));
#405=EDGE_LOOP('',(#157));
#406=EDGE_LOOP('',(#158));
#407=EDGE_LOOP('',(#159));
#408=EDGE_LOOP('',(#160));
#409=EDGE_LOOP('',(#161));
#410=EDGE_LOOP('',(#162));
#411=EDGE_LOOP('',(#163));
#412=EDGE_LOOP('',(#164));
#413=EDGE_LOOP('',(#165));
#414=EDGE_LOOP('',(#166));
#415=EDGE_LOOP('',(#167));
#416=EDGE_LOOP('',(#168));
#417=EDGE_LOOP('',(#169));
#418=EDGE_LOOP('',(#170));
#419=EDGE_LOOP('',(#171));
#420=EDGE_LOOP('',(#172));
#421=EDGE_LOOP('',(#173));
#422=EDGE_LOOP('',(#174));
#423=EDGE_LOOP('',(#175));
#424=FACE_BOUND('',#370,.T.);
#425=FACE_BOUND('',#371,.T.);
#426=FACE_BOUND('',#372,.T.);
#427=FACE_BOUND('',#373,.T.);
#428=FACE_BOUND('',#374,.T.);
#429=FACE_BOUND('',#375,.T.);
#430=FACE_BOUND('',#376,.T.);
#431=FACE_BOUND('',#377,.T.);
#432=FACE_BOUND('',#378,.T.);
#433=FACE_BOUND('',#379,.T.);
#434=FACE_BOUND('',#380,.T.);
#435=FACE_BOUND('',#381,.T.);
#436=FACE_BOUND('',#382,.T.);
#437=FACE_BOUND('',#383,.T.);
#438=FACE_BOUND('',#384,.T.);
#439=FACE_BOUND('',#385,.T.);
#440=FACE_BOUND('',#386,.T.);
#441=FACE_BOUND('',#387,.T.);
#442=FACE_BOUND('',#388,.T.);
#443=FACE_BOUND('',#389,.T.);
#444=FACE_BOUND('',#390,.T.);
#445=FACE_BOUND('',#391,.T.);
#446=FACE_BOUND('',#392,.T.);
#447=FACE_BOUND('',#393,.T.);
#448=FACE_BOUND('',#394,.T.);
#449=FACE_BOUND('',#395,.T.);
#450=FACE_BOUND('',#396,.T.);
#451=FACE_BOUND('',#397,.T.);
#452=FACE_BOUND('',#398,.T.);
#453=FACE_BOUND('',#399,.T.);
#454=FACE_BOUND('',#400,.T.);
#455=FACE_BOUND('',#401,.T.);
#456=FACE_BOUND('',#402,.T.);
#457=FACE_BOUND('',#403,.T.);
#458=FACE_BOUND('',#404,.T.);
#459=FACE_BOUND('',#405,.T.);
#460=FACE_BOUND('',#406,.T.);
#461=FACE_BOUND('',#407,.T.);
#462=FACE_BOUND('',#408,.T.);
#463=FACE_BOUND('',#409,.T.);
#464=FACE_BOUND('',#410,.T.);
#465=FACE_BOUND('',#411,.T.);
#466=FACE_BOUND('',#412,.T.);
#467=FACE_BOUND('',#413,.T.);
#468=FACE_BOUND('',#414,.T.);
#469=FACE_BOUND('',#415,.T.);
#470=FACE_BOUND('',#416,.T.);
#471=FACE_BOUND('',#417,.T.);
#472=FACE_BOUND('',#418,.T.);
#473=FACE_BOUND('',#419,.T.);
#474=FACE_BOUND('',#420,.T.);
#475=FACE_BOUND('',#421,.T.);
#476=FACE_BOUND('',#422,.T.);
#477=FACE_BOUND('',#423,.T.);
#478=PLANE('',#551);
#479=PLANE('',#552);
#480=PLANE('',#553);
#481=PLANE('',#554);
#482=PLANE('',#555);
#483=PLANE('',#556);
#484=PLANE('',#557);
#485=PLANE('',#558);
#486=PLANE('',#559);
#487=PLANE('',#560);
#488=PLANE('',#561);
#489=PLANE('',#562);
#490=PLANE('',#563);
#491=PLANE('',#564);
#492=PLANE('',#565);
#493=PLANE('',#584);
#494=PLANE('',#588);
#495=PLANE('',#592);
#496=PLANE('',#596);
#497=PLANE('',#600);
#498=PLANE('',#603);
#499=PLANE('',#606);
#500=PLANE('',#609);
#501=ADVANCED_FACE('',(#424,#425),#478,.F.);
#502=ADVANCED_FACE('',(#426),#479,.T.);
#503=ADVANCED_FACE('',(#427),#480,.F.);
#504=ADVANCED_FACE('',(#428),#481,.F.);
#505=ADVANCED_FACE('',(#429),#482,.F.);
#506=ADVANCED_FACE('',(#430),#483,.T.);
#507=ADVANCED_FACE('',(#431),#484,.T.);
#508=ADVANCED_FACE('',(#432),#485,.T.);
#509=ADVANCED_FACE('',(#433),#486,.T.);
#510=ADVANCED_FACE('',(#434),#487,.F.);
#511=ADVANCED_FACE('',(#435),#488,.F.);
#512=ADVANCED_FACE('',(#436),#489,.F.);
#513=ADVANCED_FACE('',(#437),#490,.T.);
#514=ADVANCED_FACE('',(#438),#491,.T.);
#515=ADVANCED_FACE('',(#439,#440,#441,#442,#443),#492,.T.);
#516=ADVANCED_FACE('',(#444),#18,.T.);
#517=ADVANCED_FACE('',(#445),#19,.T.);
#518=ADVANCED_FACE('',(#446),#20,.T.);
#519=ADVANCED_FACE('',(#447),#21,.T.);
#520=ADVANCED_FACE('',(#448),#22,.T.);
#521=ADVANCED_FACE('',(#449),#23,.T.);
#522=ADVANCED_FACE('',(#450,#451),#24,.T.);
#523=ADVANCED_FACE('',(#452,#453),#493,.T.);
#524=ADVANCED_FACE('',(#454,#455),#25,.T.);
#525=ADVANCED_FACE('',(#456,#457),#494,.T.);
#526=ADVANCED_FACE('',(#458,#459),#26,.T.);
#527=ADVANCED_FACE('',(#460,#461),#495,.T.);
#528=ADVANCED_FACE('',(#462,#463),#27,.T.);
#529=ADVANCED_FACE('',(#464,#465),#496,.T.);
#530=ADVANCED_FACE('',(#466,#467),#28,.F.);
#531=ADVANCED_FACE('',(#468),#497,.T.);
#532=ADVANCED_FACE('',(#469,#470),#29,.F.);
#533=ADVANCED_FACE('',(#471),#498,.T.);
#534=ADVANCED_FACE('',(#472,#473),#30,.F.);
#535=ADVANCED_FACE('',(#474),#499,.T.);
#536=ADVANCED_FACE('',(#475,#476),#31,.F.);
#537=ADVANCED_FACE('',(#477),#500,.T.);
#538=CLOSED_SHELL('',(#501,#502,#503,#504,#505,#506,#507,#508,#509,#510,
#511,#512,#513,#514,#515,#516,#517,#518,#519,#520,#521,#522,#523,#524,#525,
#526,#527,#528,#529,#530,#531,#532,#533,#534,#535,#536,#537));
#539=STYLED_ITEM('',(#540),#547);
#540=PRESENTATION_STYLE_ASSIGNMENT((#541));
#541=SURFACE_STYLE_USAGE(.BOTH.,#542);
#542=SURFACE_SIDE_STYLE('',(#543));
#543=SURFACE_STYLE_FILL_AREA(#544);
#544=FILL_AREA_STYLE('',(#545));
#545=FILL_AREA_STYLE_COLOUR('',#546);
#546=COLOUR_RGB('',0.615686274509804,0.811764705882353,0.929411764705882);
#547=MANIFOLD_SOLID_BREP('Part 1',#538);
#548=SHAPE_DEFINITION_REPRESENTATION(#926,#549);
#549=SHAPE_REPRESENTATION('Part 1',(#550),#921);
#550=AXIS2_PLACEMENT_3D('',#772,#610,#611);
#551=AXIS2_PLACEMENT_3D('',#773,#612,#613);
#552=AXIS2_PLACEMENT_3D('',#798,#626,#627);
#553=AXIS2_PLACEMENT_3D('',#804,#631,#632);
#554=AXIS2_PLACEMENT_3D('',#808,#635,#636);
#555=AXIS2_PLACEMENT_3D('',#812,#639,#640);
#556=AXIS2_PLACEMENT_3D('',#816,#643,#644);
#557=AXIS2_PLACEMENT_3D('',#820,#647,#648);
#558=AXIS2_PLACEMENT_3D('',#822,#650,#651);
#559=AXIS2_PLACEMENT_3D('',#835,#658,#659);
#560=AXIS2_PLACEMENT_3D('',#841,#663,#664);
#561=AXIS2_PLACEMENT_3D('',#845,#667,#668);
#562=AXIS2_PLACEMENT_3D('',#849,#671,#672);
#563=AXIS2_PLACEMENT_3D('',#853,#675,#676);
#564=AXIS2_PLACEMENT_3D('',#857,#679,#680);
#565=AXIS2_PLACEMENT_3D('',#859,#682,#683);
#566=AXIS2_PLACEMENT_3D('',#860,#684,#685);
#567=AXIS2_PLACEMENT_3D('',#862,#686,#687);
#568=AXIS2_PLACEMENT_3D('',#864,#688,#689);
#569=AXIS2_PLACEMENT_3D('',#866,#690,#691);
#570=AXIS2_PLACEMENT_3D('',#868,#692,#693);
#571=AXIS2_PLACEMENT_3D('',#869,#694,#695);
#572=AXIS2_PLACEMENT_3D('',#870,#696,#697);
#573=AXIS2_PLACEMENT_3D('',#871,#698,#699);
#574=AXIS2_PLACEMENT_3D('',#872,#700,#701);
#575=AXIS2_PLACEMENT_3D('',#873,#702,#703);
#576=AXIS2_PLACEMENT_3D('',#874,#704,#705);
#577=AXIS2_PLACEMENT_3D('',#875,#706,#707);
#578=AXIS2_PLACEMENT_3D('',#876,#708,#709);
#579=AXIS2_PLACEMENT_3D('',#877,#710,#711);
#580=AXIS2_PLACEMENT_3D('',#878,#712,#713);
#581=AXIS2_PLACEMENT_3D('',#879,#714,#715);
#582=AXIS2_PLACEMENT_3D('',#880,#716,#717);
#583=AXIS2_PLACEMENT_3D('',#881,#718,#719);
#584=AXIS2_PLACEMENT_3D('',#883,#720,#721);
#585=AXIS2_PLACEMENT_3D('',#884,#722,#723);
#586=AXIS2_PLACEMENT_3D('',#886,#724,#725);
#587=AXIS2_PLACEMENT_3D('',#887,#726,#727);
#588=AXIS2_PLACEMENT_3D('',#889,#728,#729);
#589=AXIS2_PLACEMENT_3D('',#890,#730,#731);
#590=AXIS2_PLACEMENT_3D('',#892,#732,#733);
#591=AXIS2_PLACEMENT_3D('',#893,#734,#735);
#592=AXIS2_PLACEMENT_3D('',#895,#736,#737);
#593=AXIS2_PLACEMENT_3D('',#896,#738,#739);
#594=AXIS2_PLACEMENT_3D('',#898,#740,#741);
#595=AXIS2_PLACEMENT_3D('',#899,#742,#743);
#596=AXIS2_PLACEMENT_3D('',#901,#744,#745);
#597=AXIS2_PLACEMENT_3D('',#902,#746,#747);
#598=AXIS2_PLACEMENT_3D('',#904,#748,#749);
#599=AXIS2_PLACEMENT_3D('',#905,#750,#751);
#600=AXIS2_PLACEMENT_3D('',#907,#752,#753);
#601=AXIS2_PLACEMENT_3D('',#908,#754,#755);
#602=AXIS2_PLACEMENT_3D('',#909,#756,#757);
#603=AXIS2_PLACEMENT_3D('',#911,#758,#759);
#604=AXIS2_PLACEMENT_3D('',#912,#760,#761);
#605=AXIS2_PLACEMENT_3D('',#913,#762,#763);
#606=AXIS2_PLACEMENT_3D('',#915,#764,#765);
#607=AXIS2_PLACEMENT_3D('',#916,#766,#767);
#608=AXIS2_PLACEMENT_3D('',#917,#768,#769);
#609=AXIS2_PLACEMENT_3D('',#919,#770,#771);
#610=DIRECTION('',(0.,0.,1.));
#611=DIRECTION('',(1.,0.,0.));
#612=DIRECTION('',(0.,0.,1.));
#613=DIRECTION('',(1.,0.,0.));
#614=DIRECTION('',(1.,0.,0.));
#615=DIRECTION('',(0.,-1.,0.));
#616=DIRECTION('',(-0.64278316456475,-0.766048172997055,0.));
#617=DIRECTION('',(1.,0.,0.));
#618=DIRECTION('',(0.774207237603529,-0.632932186922353,0.));
#619=DIRECTION('',(0.,-1.,0.));
#620=DIRECTION('',(0.,-1.,0.));
#621=DIRECTION('',(0.770040728626897,-0.6379947305862,0.));
#622=DIRECTION('',(1.,0.,0.));
#623=DIRECTION('',(-0.646154394721395,-0.763206720477636,0.));
#624=DIRECTION('',(0.,-1.,0.));
#625=DIRECTION('',(1.,-1.11917643611407E-16,0.));
#626=DIRECTION('',(0.,1.,0.));
#627=DIRECTION('',(0.,0.,1.));
#628=DIRECTION('',(0.,0.,-1.));
#629=DIRECTION('',(1.,0.,0.));
#630=DIRECTION('',(0.,0.,-1.));
#631=DIRECTION('',(1.,0.,0.));
#632=DIRECTION('',(0.,0.,-1.));
#633=DIRECTION('',(0.,0.,-1.));
#634=DIRECTION('',(0.,-1.,0.));
#635=DIRECTION('',(0.632932186922353,0.774207237603529,0.));
#636=DIRECTION('',(-0.774207237603529,0.632932186922353,0.));
#637=DIRECTION('',(0.,0.,-1.));
#638=DIRECTION('',(0.774207237603529,-0.632932186922353,0.));
#639=DIRECTION('',(0.,1.,0.));
#640=DIRECTION('',(0.,0.,1.));
#641=DIRECTION('',(0.,0.,-1.));
#642=DIRECTION('',(1.,0.,0.));
#643=DIRECTION('',(0.766048172997055,-0.64278316456475,0.));
#644=DIRECTION('',(0.64278316456475,0.766048172997055,0.));
#645=DIRECTION('',(0.,0.,-1.));
#646=DIRECTION('',(-0.64278316456475,-0.766048172997055,0.));
#647=DIRECTION('',(1.,0.,0.));
#648=DIRECTION('',(0.,0.,-1.));
#649=DIRECTION('',(0.,-1.,0.));
#650=DIRECTION('',(0.,0.,1.));
#651=DIRECTION('',(1.,0.,0.));
#652=DIRECTION('',(1.,0.,0.));
#653=DIRECTION('',(-0.64278316456475,-0.766048172997055,0.));
#654=DIRECTION('',(0.,-1.,0.));
#655=DIRECTION('',(1.,0.,0.));
#656=DIRECTION('',(0.,-1.,0.));
#657=DIRECTION('',(0.774207237603529,-0.632932186922353,0.));
#658=DIRECTION('',(1.,0.,0.));
#659=DIRECTION('',(0.,0.,-1.));
#660=DIRECTION('',(0.,0.,-1.));
#661=DIRECTION('',(0.,-1.,0.));
#662=DIRECTION('',(0.,0.,-1.));
#663=DIRECTION('',(1.11917643611407E-16,1.,0.));
#664=DIRECTION('',(-1.,1.11917643611407E-16,0.));
#665=DIRECTION('',(0.,0.,-1.));
#666=DIRECTION('',(1.,-1.11917643611407E-16,0.));
#667=DIRECTION('',(1.,0.,0.));
#668=DIRECTION('',(0.,0.,-1.));
#669=DIRECTION('',(0.,0.,-1.));
#670=DIRECTION('',(0.,-1.,0.));
#671=DIRECTION('',(0.763206720477636,-0.646154394721395,0.));
#672=DIRECTION('',(0.646154394721395,0.763206720477636,0.));
#673=DIRECTION('',(0.,0.,-1.));
#674=DIRECTION('',(-0.646154394721395,-0.763206720477636,0.));
#675=DIRECTION('',(0.,1.,0.));
#676=DIRECTION('',(0.,0.,1.));
#677=DIRECTION('',(0.,0.,-1.));
#678=DIRECTION('',(1.,0.,0.));
#679=DIRECTION('',(0.637994730586199,0.770040728626897,0.));
#680=DIRECTION('',(-0.770040728626897,0.6379947305862,0.));
#681=DIRECTION('',(0.770040728626897,-0.6379947305862,0.));
#682=DIRECTION('',(0.,0.,-1.));
#683=DIRECTION('',(1.,0.,0.));
#684=DIRECTION('',(0.,0.,-1.));
#685=DIRECTION('',(-1.,0.,0.));
#686=DIRECTION('',(0.,0.,-1.));
#687=DIRECTION('',(-1.,0.,0.));
#688=DIRECTION('',(0.,0.,-1.));
#689=DIRECTION('',(-1.,0.,0.));
#690=DIRECTION('',(0.,0.,-1.));
#691=DIRECTION('',(-1.,0.,0.));
#692=DIRECTION('',(0.,1.,0.));
#693=DIRECTION('',(0.,0.,1.));
#694=DIRECTION('',(-0.428408574305912,0.903585133488359,0.));
#695=DIRECTION('',(0.903585133488359,0.428408574305912,0.));
#696=DIRECTION('',(0.707106781186548,0.707106781186548,0.));
#697=DIRECTION('',(0.707106781186548,-0.707106781186548,0.));
#698=DIRECTION('',(1.,0.,0.));
#699=DIRECTION('',(0.,0.,-1.));
#700=DIRECTION('',(0.707106781186548,-0.707106781186548,0.));
#701=DIRECTION('',(0.707106781186548,0.707106781186548,0.));
#702=DIRECTION('',(-0.774207237603529,0.632932186922353,0.));
#703=DIRECTION('',(-0.632932186922353,-0.774207237603529,0.));
#704=DIRECTION('',(-0.941861783279142,0.3360005672588,0.));
#705=DIRECTION('',(0.3360005672588,0.941861783279142,0.));
#706=DIRECTION('',(0.,-1.,0.));
#707=DIRECTION('',(0.,0.,-1.));
#708=DIRECTION('',(-0.342017416956319,-0.93969361309872,0.));
#709=DIRECTION('',(0.93969361309872,-0.342017416956319,0.));
#710=DIRECTION('',(-1.,0.,0.));
#711=DIRECTION('',(0.,0.,1.));
#712=DIRECTION('',(-0.906306560873513,-0.422620891246073,0.));
#713=DIRECTION('',(-0.422620891246073,0.906306560873513,0.));
#714=DIRECTION('',(-0.64278316456475,-0.766048172997055,0.));
#715=DIRECTION('',(0.766048172997055,-0.64278316456475,0.));
#716=DIRECTION('',(0.,0.,1.));
#717=DIRECTION('',(1.,0.,0.));
#718=DIRECTION('',(0.,0.,-1.));
#719=DIRECTION('',(-1.,0.,0.));
#720=DIRECTION('',(0.,0.,-1.));
#721=DIRECTION('',(1.,0.,0.));
#722=DIRECTION('',(0.,0.,-1.));
#723=DIRECTION('',(-1.,0.,0.));
#724=DIRECTION('',(0.,0.,1.));
#725=DIRECTION('',(1.,0.,0.));
#726=DIRECTION('',(0.,0.,-1.));
#727=DIRECTION('',(-1.,0.,0.));
#728=DIRECTION('',(0.,0.,-1.));
#729=DIRECTION('',(1.,0.,0.));
#730=DIRECTION('',(0.,0.,-1.));
#731=DIRECTION('',(-1.,0.,0.));
#732=DIRECTION('',(0.,0.,1.));
#733=DIRECTION('',(1.,0.,0.));
#734=DIRECTION('',(0.,0.,-1.));
#735=DIRECTION('',(-1.,0.,0.));
#736=DIRECTION('',(0.,0.,-1.));
#737=DIRECTION('',(1.,0.,0.));
#738=DIRECTION('',(0.,0.,-1.));
#739=DIRECTION('',(-1.,0.,0.));
#740=DIRECTION('',(0.,0.,1.));
#741=DIRECTION('',(1.,0.,0.));
#742=DIRECTION('',(0.,0.,-1.));
#743=DIRECTION('',(-1.,0.,0.));
#744=DIRECTION('',(0.,0.,-1.));
#745=DIRECTION('',(1.,0.,0.));
#746=DIRECTION('',(0.,0.,-1.));
#747=DIRECTION('',(-1.,0.,0.));
#748=DIRECTION('',(0.,0.,-1.));
#749=DIRECTION('',(-1.,0.,0.));
#750=DIRECTION('',(0.,0.,-1.));
#751=DIRECTION('',(-1.,0.,0.));
#752=DIRECTION('',(0.,0.,-1.));
#753=DIRECTION('',(1.,0.,0.));
#754=DIRECTION('',(0.,0.,-1.));
#755=DIRECTION('',(-1.,0.,0.));
#756=DIRECTION('',(0.,0.,-1.));
#757=DIRECTION('',(-1.,0.,0.));
#758=DIRECTION('',(0.,0.,-1.));
#759=DIRECTION('',(1.,0.,0.));
#760=DIRECTION('',(0.,0.,-1.));
#761=DIRECTION('',(-1.,0.,0.));
#762=DIRECTION('',(0.,0.,-1.));
#763=DIRECTION('',(-1.,0.,0.));
#764=DIRECTION('',(0.,0.,-1.));
#765=DIRECTION('',(1.,0.,0.));
#766=DIRECTION('',(0.,0.,-1.));
#767=DIRECTION('',(-1.,0.,0.));
#768=DIRECTION('',(0.,0.,-1.));
#769=DIRECTION('',(-1.,0.,0.));
#770=DIRECTION('',(0.,0.,-1.));
#771=DIRECTION('',(1.,0.,0.));
#772=CARTESIAN_POINT('',(0.,0.,0.));
#773=CARTESIAN_POINT('',(-1.24955782666802,1.37374504903952,0.));
#774=CARTESIAN_POINT('',(-1.24955782666802,26.6237450490396,0.));
#775=CARTESIAN_POINT('',(-34.249557826668,26.6237450490396,0.));
#776=CARTESIAN_POINT('',(31.750442173332,26.6237450490396,0.));
#777=CARTESIAN_POINT('',(31.750442173332,12.0881013764689,0.));
#778=CARTESIAN_POINT('',(31.750442173332,-2.44754229610164,0.));
#779=CARTESIAN_POINT('',(22.7601356767118,-13.1618986235311,0.));
#780=CARTESIAN_POINT('',(13.7698291800916,-23.8762549509605,0.));
#781=CARTESIAN_POINT('',(2.49911565333605,-23.8762549509605,0.));
#782=CARTESIAN_POINT('',(-8.77159787341952,-23.8762549509605,0.));
#783=CARTESIAN_POINT('',(-21.5105778500438,-13.4618464255085,0.));
#784=CARTESIAN_POINT('',(-34.249557826668,-3.04743790005645,0.));
#785=CARTESIAN_POINT('',(-34.249557826668,11.7881535744915,0.));
#786=CARTESIAN_POINT('',(-32.1502216414859,11.2869120394811,0.));
#787=CARTESIAN_POINT('',(-32.1502216414859,24.6738240789622,0.));
#788=CARTESIAN_POINT('',(-32.1502216414859,-2.1,0.));
#789=CARTESIAN_POINT('',(-20.2457668309411,-11.9630879605189,0.));
#790=CARTESIAN_POINT('',(-8.34131202039619,-21.8261759210378,0.));
#791=CARTESIAN_POINT('',(2.30044328297179,-21.8261759210378,0.));
#792=CARTESIAN_POINT('',(12.9421985863397,-21.8261759210378,0.));
#793=CARTESIAN_POINT('',(21.395988472427,-11.8409629328176,0.));
#794=CARTESIAN_POINT('',(29.8497783585141,-1.85574994459747,0.));
#795=CARTESIAN_POINT('',(29.8497783585141,11.4090370671824,0.));
#796=CARTESIAN_POINT('',(29.8497783585141,24.6738240789622,0.));
#797=CARTESIAN_POINT('',(-1.15022164148588,24.6738240789622,0.));
#798=CARTESIAN_POINT('',(-1.24955782666802,26.6237450490396,5.));
#799=CARTESIAN_POINT('',(-34.249557826668,26.6237450490396,5.));
#800=CARTESIAN_POINT('',(-34.249557826668,26.6237450490396,2.));
#801=CARTESIAN_POINT('',(-1.24955782666802,26.6237450490396,2.));
#802=CARTESIAN_POINT('',(31.750442173332,26.6237450490396,2.));
#803=CARTESIAN_POINT('',(31.750442173332,26.6237450490396,5.));
#804=CARTESIAN_POINT('',(-34.249557826668,11.7881535744915,5.));
#805=CARTESIAN_POINT('',(-34.249557826668,-3.04743790005645,5.));
#806=CARTESIAN_POINT('',(-34.249557826668,-3.04743790005645,2.));
#807=CARTESIAN_POINT('',(-34.249557826668,26.6237450490396,2.));
#808=CARTESIAN_POINT('',(-21.5105778500438,-13.4618464255085,5.));
#809=CARTESIAN_POINT('',(-8.77159787341952,-23.8762549509605,5.));
#810=CARTESIAN_POINT('',(-8.77159787341952,-23.8762549509605,2.));
#811=CARTESIAN_POINT('',(-34.249557826668,-3.04743790005645,2.));
#812=CARTESIAN_POINT('',(2.49911565333605,-23.8762549509605,5.));
#813=CARTESIAN_POINT('',(13.7698291800916,-23.8762549509605,5.));
#814=CARTESIAN_POINT('',(13.7698291800916,-23.8762549509605,2.));
#815=CARTESIAN_POINT('',(-8.77159787341952,-23.8762549509605,2.));
#816=CARTESIAN_POINT('',(22.7601356767118,-13.1618986235311,5.));
#817=CARTESIAN_POINT('',(31.750442173332,-2.44754229610164,5.));
#818=CARTESIAN_POINT('',(31.750442173332,-2.44754229610164,2.));
#819=CARTESIAN_POINT('',(22.7601356767118,-13.1618986235311,2.));
#820=CARTESIAN_POINT('',(31.750442173332,12.0881013764689,5.));
#821=CARTESIAN_POINT('',(31.750442173332,12.0881013764689,2.));
#822=CARTESIAN_POINT('',(-1.24955782666802,1.37374504903952,5.));
#823=CARTESIAN_POINT('',(13.7698291800916,-20.8762549509605,5.));
#824=CARTESIAN_POINT('',(-7.70137534218252,-20.8762549509605,5.));
#825=CARTESIAN_POINT('',(12.3708956089651,-20.8762549509605,5.));
#826=CARTESIAN_POINT('',(17.6992940164014,-14.5260421730933,5.));
#827=CARTESIAN_POINT('',(28.750442173332,-1.35564145037228,5.));
#828=CARTESIAN_POINT('',(28.750442173332,1.37374504903952,5.));
#829=CARTESIAN_POINT('',(28.750442173332,23.6237450490396,5.));
#830=CARTESIAN_POINT('',(-1.24955782666802,23.6237450490396,5.));
#831=CARTESIAN_POINT('',(-31.2495578266681,23.6237450490396,5.));
#832=CARTESIAN_POINT('',(-31.2495578266681,-3.04743790005645,5.));
#833=CARTESIAN_POINT('',(-31.2495578266681,-1.62507527446076,5.));
#834=CARTESIAN_POINT('',(-6.87280131265247,-21.5536332381499,5.));
#835=CARTESIAN_POINT('',(-32.1502216414859,11.2869120394811,3.));
#836=CARTESIAN_POINT('',(-32.1502216414859,24.6738240789622,3.));
#837=CARTESIAN_POINT('',(-32.1502216414859,24.6738240789622,3.));
#838=CARTESIAN_POINT('',(-32.1502216414859,11.2869120394811,3.));
#839=CARTESIAN_POINT('',(-32.1502216414859,-2.1,3.));
#840=CARTESIAN_POINT('',(-32.1502216414859,-2.1,3.));
#841=CARTESIAN_POINT('',(-1.15022164148588,24.6738240789622,3.));
#842=CARTESIAN_POINT('',(29.8497783585141,24.6738240789622,3.));
#843=CARTESIAN_POINT('',(29.8497783585141,24.6738240789622,3.));
#844=CARTESIAN_POINT('',(-1.15022164148588,24.6738240789622,3.));
#845=CARTESIAN_POINT('',(29.8497783585141,11.4090370671824,3.));
#846=CARTESIAN_POINT('',(29.8497783585141,-1.85574994459747,3.));
#847=CARTESIAN_POINT('',(29.8497783585141,-1.85574994459747,3.));
#848=CARTESIAN_POINT('',(29.8497783585141,11.4090370671824,3.));
#849=CARTESIAN_POINT('',(21.395988472427,-11.8409629328176,3.));
#850=CARTESIAN_POINT('',(12.9421985863397,-21.8261759210378,3.));
#851=CARTESIAN_POINT('',(12.9421985863397,-21.8261759210378,3.));
#852=CARTESIAN_POINT('',(21.395988472427,-11.8409629328176,3.));
#853=CARTESIAN_POINT('',(2.30044328297179,-21.8261759210378,3.));
#854=CARTESIAN_POINT('',(-8.34131202039619,-21.8261759210378,3.));
#855=CARTESIAN_POINT('',(-8.34131202039619,-21.8261759210378,3.));
#856=CARTESIAN_POINT('',(2.30044328297179,-21.8261759210378,3.));
#857=CARTESIAN_POINT('',(-20.2457668309411,-11.9630879605189,3.));
#858=CARTESIAN_POINT('',(-20.2457668309411,-11.9630879605189,3.));
#859=CARTESIAN_POINT('',(-1.24955782666802,1.37374504903951,3.));
#860=CARTESIAN_POINT('',(-19.1412216414859,-6.5381759210378,3.));
#861=CARTESIAN_POINT('',(-21.3912216414859,-6.5381759210378,3.));
#862=CARTESIAN_POINT('',(16.8087732578466,-6.5381759210378,3.));
#863=CARTESIAN_POINT('',(14.5587732578466,-6.5381759210378,3.));
#864=CARTESIAN_POINT('',(16.8087732578466,21.5698240789622,3.));
#865=CARTESIAN_POINT('',(14.5587732578466,21.5698240789622,3.));
#866=CARTESIAN_POINT('',(-19.1412216414859,21.5698240789622,3.));
#867=CARTESIAN_POINT('',(-21.3912216414859,21.5698240789622,3.));
#868=CARTESIAN_POINT('',(-31.2495578266681,1.37374504903952,2.));
#869=CARTESIAN_POINT('',(-31.2495578266681,-1.62507527446076,2.));
#870=CARTESIAN_POINT('',(-31.2495578266681,23.6237450490396,2.));
#871=CARTESIAN_POINT('',(-1.24955782666802,23.6237450490396,2.));
#872=CARTESIAN_POINT('',(28.750442173332,23.6237450490396,2.));
#873=CARTESIAN_POINT('',(-14.7371363981393,-15.1243587976849,2.));
#874=CARTESIAN_POINT('',(-7.70137534218252,-20.8762549509605,2.));
#875=CARTESIAN_POINT('',(28.750442173332,12.0881013764689,2.));
#876=CARTESIAN_POINT('',(28.750442173332,-1.35564145037228,2.));
#877=CARTESIAN_POINT('',(-1.24955782666802,-20.8762549509605,2.));
#878=CARTESIAN_POINT('',(12.370895608965,-20.8762549509605,2.));
#879=CARTESIAN_POINT('',(20.4619911577207,-11.2335491298368,2.));
#880=CARTESIAN_POINT('',(-19.1412216414859,21.5698240789622,-2.));
#881=CARTESIAN_POINT('',(-19.1412216414859,21.5698240789622,-2.));
#882=CARTESIAN_POINT('',(-21.3912216414859,21.5698240789622,-2.));
#883=CARTESIAN_POINT('',(-1.15022164148588,1.4238240789622,-2.));
#884=CARTESIAN_POINT('',(-19.1412216414859,21.5698240789622,-2.));
#885=CARTESIAN_POINT('',(-20.8912216414859,21.5698240789622,-2.));
#886=CARTESIAN_POINT('',(16.8087732578466,21.5698240789622,-2.));
#887=CARTESIAN_POINT('',(16.8087732578466,21.5698240789622,-2.));
#888=CARTESIAN_POINT('',(14.5587732578466,21.5698240789622,-2.));
#889=CARTESIAN_POINT('',(-1.15022164148588,1.4238240789622,-2.));
#890=CARTESIAN_POINT('',(16.8087732578466,21.5698240789622,-2.));
#891=CARTESIAN_POINT('',(15.0587732578466,21.5698240789622,-2.));
#892=CARTESIAN_POINT('',(16.8087732578466,-6.5381759210378,-2.));
#893=CARTESIAN_POINT('',(16.8087732578466,-6.5381759210378,-2.));
#894=CARTESIAN_POINT('',(14.5587732578466,-6.5381759210378,-2.));
#895=CARTESIAN_POINT('',(-1.15022164148588,1.4238240789622,-2.));
#896=CARTESIAN_POINT('',(16.8087732578466,-6.5381759210378,-2.));
#897=CARTESIAN_POINT('',(15.0587732578466,-6.5381759210378,-2.));
#898=CARTESIAN_POINT('',(-19.1412216414859,-6.5381759210378,-2.));
#899=CARTESIAN_POINT('',(-19.1412216414859,-6.5381759210378,-2.));
#900=CARTESIAN_POINT('',(-21.3912216414859,-6.5381759210378,-2.));
#901=CARTESIAN_POINT('',(-1.15022164148588,1.4238240789622,-2.));
#902=CARTESIAN_POINT('',(-19.1412216414859,-6.5381759210378,-2.));
#903=CARTESIAN_POINT('',(-20.8912216414859,-6.5381759210378,-2.));
#904=CARTESIAN_POINT('',(-19.1412216414859,-6.5381759210378,3.));
#905=CARTESIAN_POINT('',(-19.1412216414859,-6.5381759210378,3.));
#906=CARTESIAN_POINT('',(-20.8912216414859,-6.5381759210378,3.));
#907=CARTESIAN_POINT('',(-1.41622419181963,7.26582407896221,3.));
#908=CARTESIAN_POINT('',(16.8087732578466,-6.5381759210378,3.));
#909=CARTESIAN_POINT('',(16.8087732578466,-6.5381759210378,3.));
#910=CARTESIAN_POINT('',(15.0587732578466,-6.5381759210378,3.));
#911=CARTESIAN_POINT('',(-1.41622419181963,7.26582407896221,3.));
#912=CARTESIAN_POINT('',(16.8087732578466,21.5698240789622,3.));
#913=CARTESIAN_POINT('',(16.8087732578466,21.5698240789622,3.));
#914=CARTESIAN_POINT('',(15.0587732578466,21.5698240789622,3.));
#915=CARTESIAN_POINT('',(-1.41622419181963,7.26582407896221,3.));
#916=CARTESIAN_POINT('',(-19.1412216414859,21.5698240789622,3.));
#917=CARTESIAN_POINT('',(-19.1412216414859,21.5698240789622,3.));
#918=CARTESIAN_POINT('',(-20.8912216414859,21.5698240789622,3.));
#919=CARTESIAN_POINT('',(-1.41622419181963,7.26582407896221,3.));
#920=MECHANICAL_DESIGN_GEOMETRIC_PRESENTATION_REPRESENTATION('',(#539),
#921);
#921=(
GEOMETRIC_REPRESENTATION_CONTEXT(3)
GLOBAL_UNCERTAINTY_ASSIGNED_CONTEXT((#922))
GLOBAL_UNIT_ASSIGNED_CONTEXT((#925,#924,#923))
REPRESENTATION_CONTEXT('Part 1','TOP_LEVEL_ASSEMBLY_PART')
);
#922=UNCERTAINTY_MEASURE_WITH_UNIT(LENGTH_MEASURE(1.E-5),#925,
'DISTANCE_ACCURACY_VALUE','Maximum Tolerance applied to model');
#923=(
NAMED_UNIT(*)
SI_UNIT($,.STERADIAN.)
SOLID_ANGLE_UNIT()
);
#924=(
NAMED_UNIT(*)
PLANE_ANGLE_UNIT()
SI_UNIT($,.RADIAN.)
);
#925=(
LENGTH_UNIT()
NAMED_UNIT(*)
SI_UNIT(.MILLI.,.METRE.)
);
#926=PRODUCT_DEFINITION_SHAPE('','',#927);
#927=PRODUCT_DEFINITION('','',#929,#928);
#928=PRODUCT_DEFINITION_CONTEXT('',#935,'design');
#929=PRODUCT_DEFINITION_FORMATION_WITH_SPECIFIED_SOURCE('','',#931,
 .NOT_KNOWN.);
#930=PRODUCT_RELATED_PRODUCT_CATEGORY('','',(#931));
#931=PRODUCT('Part 1','Part 1','Part 1',(#933));
#932=PRODUCT_CATEGORY('','');
#933=PRODUCT_CONTEXT('',#935,'mechanical');
#934=APPLICATION_PROTOCOL_DEFINITION('international standard',
'ap242_managed_model_based_3d_engineering',2020,#935);
#935=APPLICATION_CONTEXT('managed model based 3d engineering');
ENDSEC;
END-ISO-10303-21;
