ISO-10303-21;
HEADER;
/* Generated by software containing ST-Developer
 * from STEP Tools, Inc. (www.steptools.com) 
 */
/* OPTION: using custom renumber hook */

FILE_DESCRIPTION(
/* description */ ('STEP AP242 Edition 2',
'CAx-IF Rec.Pracs.---Representation and Presentation of Product Manufa
cturing Information (PMI)---4.0---2014-10-13',
'CAx-IF Rec.Pracs.---3D Tessellated Geometry---0.4---2014-09-14','2;1',
'CAx-IF Rec.Pracs.---User Defined Attributes---1.5---2016-08-15'),
/* implementation_level */ '2;1');

FILE_NAME(
/* name */ 'GigaHub - Part 1022',
/* time_stamp */ '2026-06-26T11:17:25Z',
/* author */ (''),
/* organization */ (''),
/* preprocessor_version */ 'ST-DEVELOPER v20',
/* originating_system */ 'ONSHAPE BY PTC INC, 1.216',
/* authorisation */ '  ');

FILE_SCHEMA (('AP242_MANAGED_MODEL_BASED_3D_ENGINEERING_MIM_LF { 1 0 10303 442 3 1 4 }'));
ENDSEC;

DATA;
#10=SHAPE_REPRESENTATION_RELATIONSHIP('','',#1435,#11);
#11=ADVANCED_BREP_SHAPE_REPRESENTATION('',(#1433),#2423);
#12=TOROIDAL_SURFACE('',#1582,3.25,2.);
#13=TOROIDAL_SURFACE('',#1583,3.25,2.);
#14=TOROIDAL_SURFACE('',#1584,3.25,2.);
#15=TOROIDAL_SURFACE('',#1585,3.25,2.);
#16=SPHERICAL_SURFACE('',#1548,2.);
#17=SPHERICAL_SURFACE('',#1559,2.);
#18=SPHERICAL_SURFACE('',#1561,2.);
#19=SPHERICAL_SURFACE('',#1571,2.);
#20=SPHERICAL_SURFACE('',#1573,2.);
#21=SPHERICAL_SURFACE('',#1579,2.);
#22=CYLINDRICAL_SURFACE('',#1526,1.);
#23=CYLINDRICAL_SURFACE('',#1527,1.);
#24=CYLINDRICAL_SURFACE('',#1528,1.);
#25=CYLINDRICAL_SURFACE('',#1529,1.);
#26=CYLINDRICAL_SURFACE('',#1530,1.);
#27=CYLINDRICAL_SURFACE('',#1531,1.);
#28=CYLINDRICAL_SURFACE('',#1532,1.);
#29=CYLINDRICAL_SURFACE('',#1533,1.);
#30=CYLINDRICAL_SURFACE('',#1534,1.);
#31=CYLINDRICAL_SURFACE('',#1535,1.);
#32=CYLINDRICAL_SURFACE('',#1536,1.);
#33=CYLINDRICAL_SURFACE('',#1537,1.);
#34=CYLINDRICAL_SURFACE('',#1538,1.);
#35=CYLINDRICAL_SURFACE('',#1539,1.);
#36=CYLINDRICAL_SURFACE('',#1540,1.);
#37=CYLINDRICAL_SURFACE('',#1541,1.);
#38=CYLINDRICAL_SURFACE('',#1542,1.);
#39=CYLINDRICAL_SURFACE('',#1543,1.);
#40=CYLINDRICAL_SURFACE('',#1544,1.);
#41=CYLINDRICAL_SURFACE('',#1545,1.);
#42=CYLINDRICAL_SURFACE('',#1546,2.);
#43=CYLINDRICAL_SURFACE('',#1551,2.);
#44=CYLINDRICAL_SURFACE('',#1553,2.);
#45=CYLINDRICAL_SURFACE('',#1555,2.);
#46=CYLINDRICAL_SURFACE('',#1557,2.);
#47=CYLINDRICAL_SURFACE('',#1563,2.);
#48=CYLINDRICAL_SURFACE('',#1565,2.);
#49=CYLINDRICAL_SURFACE('',#1567,2.);
#50=CYLINDRICAL_SURFACE('',#1569,2.);
#51=CYLINDRICAL_SURFACE('',#1575,2.);
#52=CYLINDRICAL_SURFACE('',#1577,2.);
#53=CYLINDRICAL_SURFACE('',#1581,2.);
#54=CIRCLE('',#1438,1.);
#55=CIRCLE('',#1439,1.);
#56=CIRCLE('',#1440,1.);
#57=CIRCLE('',#1441,1.);
#58=CIRCLE('',#1442,1.);
#59=CIRCLE('',#1443,1.);
#60=CIRCLE('',#1444,1.);
#61=CIRCLE('',#1445,1.);
#62=CIRCLE('',#1447,1.);
#63=CIRCLE('',#1448,1.);
#64=CIRCLE('',#1449,1.);
#65=CIRCLE('',#1450,1.);
#66=CIRCLE('',#1451,1.);
#67=CIRCLE('',#1452,1.);
#68=CIRCLE('',#1453,1.);
#69=CIRCLE('',#1454,1.);
#70=CIRCLE('',#1456,1.);
#71=CIRCLE('',#1457,1.);
#72=CIRCLE('',#1458,1.);
#73=CIRCLE('',#1459,1.);
#74=CIRCLE('',#1460,1.);
#75=CIRCLE('',#1461,1.);
#76=CIRCLE('',#1462,1.);
#77=CIRCLE('',#1463,1.);
#78=CIRCLE('',#1465,1.);
#79=CIRCLE('',#1466,1.);
#80=CIRCLE('',#1467,1.);
#81=CIRCLE('',#1468,1.);
#82=CIRCLE('',#1469,1.);
#83=CIRCLE('',#1470,1.);
#84=CIRCLE('',#1471,1.);
#85=CIRCLE('',#1472,1.);
#86=CIRCLE('',#1474,1.);
#87=CIRCLE('',#1475,1.);
#88=CIRCLE('',#1476,1.);
#89=CIRCLE('',#1477,1.);
#90=CIRCLE('',#1479,1.);
#91=CIRCLE('',#1480,1.);
#92=CIRCLE('',#1481,1.);
#93=CIRCLE('',#1482,1.);
#94=CIRCLE('',#1484,2.);
#95=CIRCLE('',#1485,2.);
#96=CIRCLE('',#1486,2.);
#97=CIRCLE('',#1487,2.);
#98=CIRCLE('',#1488,2.);
#99=CIRCLE('',#1489,2.);
#100=CIRCLE('',#1494,3.25);
#101=CIRCLE('',#1495,3.25);
#102=CIRCLE('',#1496,3.25);
#103=CIRCLE('',#1497,3.25);
#104=CIRCLE('',#1502,1.25);
#105=CIRCLE('',#1503,1.25);
#106=CIRCLE('',#1504,1.25);
#107=CIRCLE('',#1505,1.25);
#108=CIRCLE('',#1547,2.);
#109=CIRCLE('',#1549,2.);
#110=CIRCLE('',#1550,2.);
#111=CIRCLE('',#1552,2.);
#112=CIRCLE('',#1554,2.);
#113=CIRCLE('',#1556,2.);
#114=CIRCLE('',#1558,2.);
#115=CIRCLE('',#1560,2.);
#116=CIRCLE('',#1562,2.);
#117=CIRCLE('',#1564,2.);
#118=CIRCLE('',#1566,2.);
#119=CIRCLE('',#1568,2.);
#120=CIRCLE('',#1570,2.);
#121=CIRCLE('',#1572,2.);
#122=CIRCLE('',#1574,2.);
#123=CIRCLE('',#1576,2.);
#124=CIRCLE('',#1578,2.);
#125=CIRCLE('',#1580,2.);
#126=ORIENTED_EDGE('',*,*,#526,.T.);
#127=ORIENTED_EDGE('',*,*,#527,.T.);
#128=ORIENTED_EDGE('',*,*,#528,.T.);
#129=ORIENTED_EDGE('',*,*,#529,.T.);
#130=ORIENTED_EDGE('',*,*,#530,.F.);
#131=ORIENTED_EDGE('',*,*,#531,.T.);
#132=ORIENTED_EDGE('',*,*,#532,.T.);
#133=ORIENTED_EDGE('',*,*,#533,.T.);
#134=ORIENTED_EDGE('',*,*,#534,.T.);
#135=ORIENTED_EDGE('',*,*,#535,.T.);
#136=ORIENTED_EDGE('',*,*,#536,.F.);
#137=ORIENTED_EDGE('',*,*,#537,.T.);
#138=ORIENTED_EDGE('',*,*,#538,.F.);
#139=ORIENTED_EDGE('',*,*,#539,.T.);
#140=ORIENTED_EDGE('',*,*,#540,.T.);
#141=ORIENTED_EDGE('',*,*,#541,.T.);
#142=ORIENTED_EDGE('',*,*,#542,.T.);
#143=ORIENTED_EDGE('',*,*,#543,.T.);
#144=ORIENTED_EDGE('',*,*,#544,.F.);
#145=ORIENTED_EDGE('',*,*,#545,.T.);
#146=ORIENTED_EDGE('',*,*,#546,.F.);
#147=ORIENTED_EDGE('',*,*,#547,.F.);
#148=ORIENTED_EDGE('',*,*,#548,.T.);
#149=ORIENTED_EDGE('',*,*,#549,.T.);
#150=ORIENTED_EDGE('',*,*,#550,.F.);
#151=ORIENTED_EDGE('',*,*,#551,.T.);
#152=ORIENTED_EDGE('',*,*,#552,.T.);
#153=ORIENTED_EDGE('',*,*,#553,.T.);
#154=ORIENTED_EDGE('',*,*,#554,.T.);
#155=ORIENTED_EDGE('',*,*,#555,.T.);
#156=ORIENTED_EDGE('',*,*,#556,.F.);
#157=ORIENTED_EDGE('',*,*,#557,.T.);
#158=ORIENTED_EDGE('',*,*,#558,.F.);
#159=ORIENTED_EDGE('',*,*,#559,.T.);
#160=ORIENTED_EDGE('',*,*,#560,.T.);
#161=ORIENTED_EDGE('',*,*,#561,.T.);
#162=ORIENTED_EDGE('',*,*,#562,.T.);
#163=ORIENTED_EDGE('',*,*,#563,.T.);
#164=ORIENTED_EDGE('',*,*,#564,.F.);
#165=ORIENTED_EDGE('',*,*,#565,.T.);
#166=ORIENTED_EDGE('',*,*,#566,.F.);
#167=ORIENTED_EDGE('',*,*,#567,.T.);
#168=ORIENTED_EDGE('',*,*,#568,.T.);
#169=ORIENTED_EDGE('',*,*,#569,.T.);
#170=ORIENTED_EDGE('',*,*,#570,.F.);
#171=ORIENTED_EDGE('',*,*,#571,.T.);
#172=ORIENTED_EDGE('',*,*,#572,.T.);
#173=ORIENTED_EDGE('',*,*,#573,.T.);
#174=ORIENTED_EDGE('',*,*,#574,.T.);
#175=ORIENTED_EDGE('',*,*,#575,.T.);
#176=ORIENTED_EDGE('',*,*,#576,.F.);
#177=ORIENTED_EDGE('',*,*,#577,.T.);
#178=ORIENTED_EDGE('',*,*,#578,.F.);
#179=ORIENTED_EDGE('',*,*,#579,.T.);
#180=ORIENTED_EDGE('',*,*,#580,.T.);
#181=ORIENTED_EDGE('',*,*,#581,.T.);
#182=ORIENTED_EDGE('',*,*,#582,.T.);
#183=ORIENTED_EDGE('',*,*,#583,.T.);
#184=ORIENTED_EDGE('',*,*,#584,.F.);
#185=ORIENTED_EDGE('',*,*,#585,.T.);
#186=ORIENTED_EDGE('',*,*,#586,.F.);
#187=ORIENTED_EDGE('',*,*,#587,.T.);
#188=ORIENTED_EDGE('',*,*,#588,.T.);
#189=ORIENTED_EDGE('',*,*,#589,.T.);
#190=ORIENTED_EDGE('',*,*,#590,.T.);
#191=ORIENTED_EDGE('',*,*,#591,.T.);
#192=ORIENTED_EDGE('',*,*,#592,.F.);
#193=ORIENTED_EDGE('',*,*,#593,.T.);
#194=ORIENTED_EDGE('',*,*,#594,.T.);
#195=ORIENTED_EDGE('',*,*,#595,.F.);
#196=ORIENTED_EDGE('',*,*,#596,.F.);
#197=ORIENTED_EDGE('',*,*,#597,.T.);
#198=ORIENTED_EDGE('',*,*,#598,.F.);
#199=ORIENTED_EDGE('',*,*,#599,.T.);
#200=ORIENTED_EDGE('',*,*,#600,.T.);
#201=ORIENTED_EDGE('',*,*,#601,.T.);
#202=ORIENTED_EDGE('',*,*,#602,.T.);
#203=ORIENTED_EDGE('',*,*,#603,.T.);
#204=ORIENTED_EDGE('',*,*,#604,.F.);
#205=ORIENTED_EDGE('',*,*,#605,.T.);
#206=ORIENTED_EDGE('',*,*,#606,.T.);
#207=ORIENTED_EDGE('',*,*,#607,.T.);
#208=ORIENTED_EDGE('',*,*,#608,.F.);
#209=ORIENTED_EDGE('',*,*,#609,.T.);
#210=ORIENTED_EDGE('',*,*,#610,.F.);
#211=ORIENTED_EDGE('',*,*,#611,.T.);
#212=ORIENTED_EDGE('',*,*,#612,.T.);
#213=ORIENTED_EDGE('',*,*,#613,.T.);
#214=ORIENTED_EDGE('',*,*,#614,.T.);
#215=ORIENTED_EDGE('',*,*,#615,.T.);
#216=ORIENTED_EDGE('',*,*,#616,.F.);
#217=ORIENTED_EDGE('',*,*,#617,.T.);
#218=ORIENTED_EDGE('',*,*,#618,.T.);
#219=ORIENTED_EDGE('',*,*,#619,.F.);
#220=ORIENTED_EDGE('',*,*,#620,.F.);
#221=ORIENTED_EDGE('',*,*,#621,.T.);
#222=ORIENTED_EDGE('',*,*,#622,.F.);
#223=ORIENTED_EDGE('',*,*,#623,.T.);
#224=ORIENTED_EDGE('',*,*,#624,.T.);
#225=ORIENTED_EDGE('',*,*,#625,.T.);
#226=ORIENTED_EDGE('',*,*,#626,.T.);
#227=ORIENTED_EDGE('',*,*,#627,.T.);
#228=ORIENTED_EDGE('',*,*,#628,.F.);
#229=ORIENTED_EDGE('',*,*,#629,.T.);
#230=ORIENTED_EDGE('',*,*,#630,.T.);
#231=ORIENTED_EDGE('',*,*,#631,.T.);
#232=ORIENTED_EDGE('',*,*,#566,.T.);
#233=ORIENTED_EDGE('',*,*,#632,.T.);
#234=ORIENTED_EDGE('',*,*,#633,.F.);
#235=ORIENTED_EDGE('',*,*,#634,.T.);
#236=ORIENTED_EDGE('',*,*,#528,.F.);
#237=ORIENTED_EDGE('',*,*,#635,.T.);
#238=ORIENTED_EDGE('',*,*,#636,.F.);
#239=ORIENTED_EDGE('',*,*,#637,.T.);
#240=ORIENTED_EDGE('',*,*,#608,.T.);
#241=ORIENTED_EDGE('',*,*,#638,.T.);
#242=ORIENTED_EDGE('',*,*,#618,.F.);
#243=ORIENTED_EDGE('',*,*,#639,.T.);
#244=ORIENTED_EDGE('',*,*,#546,.T.);
#245=ORIENTED_EDGE('',*,*,#640,.T.);
#246=ORIENTED_EDGE('',*,*,#594,.F.);
#247=ORIENTED_EDGE('',*,*,#641,.F.);
#248=ORIENTED_EDGE('',*,*,#642,.T.);
#249=ORIENTED_EDGE('',*,*,#643,.T.);
#250=ORIENTED_EDGE('',*,*,#636,.T.);
#251=ORIENTED_EDGE('',*,*,#644,.T.);
#252=ORIENTED_EDGE('',*,*,#645,.T.);
#253=ORIENTED_EDGE('',*,*,#646,.T.);
#254=ORIENTED_EDGE('',*,*,#630,.F.);
#255=ORIENTED_EDGE('',*,*,#647,.T.);
#256=ORIENTED_EDGE('',*,*,#648,.T.);
#257=ORIENTED_EDGE('',*,*,#649,.T.);
#258=ORIENTED_EDGE('',*,*,#633,.T.);
#259=ORIENTED_EDGE('',*,*,#650,.T.);
#260=ORIENTED_EDGE('',*,*,#651,.T.);
#261=ORIENTED_EDGE('',*,*,#652,.T.);
#262=ORIENTED_EDGE('',*,*,#653,.T.);
#263=ORIENTED_EDGE('',*,*,#654,.T.);
#264=ORIENTED_EDGE('',*,*,#655,.T.);
#265=ORIENTED_EDGE('',*,*,#656,.T.);
#266=ORIENTED_EDGE('',*,*,#657,.T.);
#267=ORIENTED_EDGE('',*,*,#658,.T.);
#268=ORIENTED_EDGE('',*,*,#659,.T.);
#269=ORIENTED_EDGE('',*,*,#660,.T.);
#270=ORIENTED_EDGE('',*,*,#639,.F.);
#271=ORIENTED_EDGE('',*,*,#621,.F.);
#272=ORIENTED_EDGE('',*,*,#661,.T.);
#273=ORIENTED_EDGE('',*,*,#547,.T.);
#274=ORIENTED_EDGE('',*,*,#641,.T.);
#275=ORIENTED_EDGE('',*,*,#597,.F.);
#276=ORIENTED_EDGE('',*,*,#662,.F.);
#277=ORIENTED_EDGE('',*,*,#619,.T.);
#278=ORIENTED_EDGE('',*,*,#640,.F.);
#279=ORIENTED_EDGE('',*,*,#549,.F.);
#280=ORIENTED_EDGE('',*,*,#663,.T.);
#281=ORIENTED_EDGE('',*,*,#595,.T.);
#282=ORIENTED_EDGE('',*,*,#664,.F.);
#283=ORIENTED_EDGE('',*,*,#665,.F.);
#284=ORIENTED_EDGE('',*,*,#666,.F.);
#285=ORIENTED_EDGE('',*,*,#667,.F.);
#286=ORIENTED_EDGE('',*,*,#661,.F.);
#287=ORIENTED_EDGE('',*,*,#620,.T.);
#288=ORIENTED_EDGE('',*,*,#662,.T.);
#289=ORIENTED_EDGE('',*,*,#596,.T.);
#290=ORIENTED_EDGE('',*,*,#663,.F.);
#291=ORIENTED_EDGE('',*,*,#548,.F.);
#292=ORIENTED_EDGE('',*,*,#612,.F.);
#293=ORIENTED_EDGE('',*,*,#668,.T.);
#294=ORIENTED_EDGE('',*,*,#622,.T.);
#295=ORIENTED_EDGE('',*,*,#669,.T.);
#296=ORIENTED_EDGE('',*,*,#610,.T.);
#297=ORIENTED_EDGE('',*,*,#670,.T.);
#298=ORIENTED_EDGE('',*,*,#624,.F.);
#299=ORIENTED_EDGE('',*,*,#671,.T.);
#300=ORIENTED_EDGE('',*,*,#616,.T.);
#301=ORIENTED_EDGE('',*,*,#672,.T.);
#302=ORIENTED_EDGE('',*,*,#626,.F.);
#303=ORIENTED_EDGE('',*,*,#673,.T.);
#304=ORIENTED_EDGE('',*,*,#628,.T.);
#305=ORIENTED_EDGE('',*,*,#674,.T.);
#306=ORIENTED_EDGE('',*,*,#614,.F.);
#307=ORIENTED_EDGE('',*,*,#675,.T.);
#308=ORIENTED_EDGE('',*,*,#572,.F.);
#309=ORIENTED_EDGE('',*,*,#676,.T.);
#310=ORIENTED_EDGE('',*,*,#586,.T.);
#311=ORIENTED_EDGE('',*,*,#677,.T.);
#312=ORIENTED_EDGE('',*,*,#588,.F.);
#313=ORIENTED_EDGE('',*,*,#678,.T.);
#314=ORIENTED_EDGE('',*,*,#570,.T.);
#315=ORIENTED_EDGE('',*,*,#679,.T.);
#316=ORIENTED_EDGE('',*,*,#590,.F.);
#317=ORIENTED_EDGE('',*,*,#680,.T.);
#318=ORIENTED_EDGE('',*,*,#576,.T.);
#319=ORIENTED_EDGE('',*,*,#681,.T.);
#320=ORIENTED_EDGE('',*,*,#592,.T.);
#321=ORIENTED_EDGE('',*,*,#682,.T.);
#322=ORIENTED_EDGE('',*,*,#574,.F.);
#323=ORIENTED_EDGE('',*,*,#683,.T.);
#324=ORIENTED_EDGE('',*,*,#580,.F.);
#325=ORIENTED_EDGE('',*,*,#684,.T.);
#326=ORIENTED_EDGE('',*,*,#598,.T.);
#327=ORIENTED_EDGE('',*,*,#685,.T.);
#328=ORIENTED_EDGE('',*,*,#600,.F.);
#329=ORIENTED_EDGE('',*,*,#686,.T.);
#330=ORIENTED_EDGE('',*,*,#578,.T.);
#331=ORIENTED_EDGE('',*,*,#687,.T.);
#332=ORIENTED_EDGE('',*,*,#602,.F.);
#333=ORIENTED_EDGE('',*,*,#688,.T.);
#334=ORIENTED_EDGE('',*,*,#584,.T.);
#335=ORIENTED_EDGE('',*,*,#689,.T.);
#336=ORIENTED_EDGE('',*,*,#604,.T.);
#337=ORIENTED_EDGE('',*,*,#690,.T.);
#338=ORIENTED_EDGE('',*,*,#582,.F.);
#339=ORIENTED_EDGE('',*,*,#691,.T.);
#340=ORIENTED_EDGE('',*,*,#554,.F.);
#341=ORIENTED_EDGE('',*,*,#692,.T.);
#342=ORIENTED_EDGE('',*,*,#532,.F.);
#343=ORIENTED_EDGE('',*,*,#693,.T.);
#344=ORIENTED_EDGE('',*,*,#530,.T.);
#345=ORIENTED_EDGE('',*,*,#694,.T.);
#346=ORIENTED_EDGE('',*,*,#556,.T.);
#347=ORIENTED_EDGE('',*,*,#695,.T.);
#348=ORIENTED_EDGE('',*,*,#536,.T.);
#349=ORIENTED_EDGE('',*,*,#696,.T.);
#350=ORIENTED_EDGE('',*,*,#550,.T.);
#351=ORIENTED_EDGE('',*,*,#697,.T.);
#352=ORIENTED_EDGE('',*,*,#534,.F.);
#353=ORIENTED_EDGE('',*,*,#698,.T.);
#354=ORIENTED_EDGE('',*,*,#552,.F.);
#355=ORIENTED_EDGE('',*,*,#699,.T.);
#356=ORIENTED_EDGE('',*,*,#562,.F.);
#357=ORIENTED_EDGE('',*,*,#700,.T.);
#358=ORIENTED_EDGE('',*,*,#540,.F.);
#359=ORIENTED_EDGE('',*,*,#701,.T.);
#360=ORIENTED_EDGE('',*,*,#538,.T.);
#361=ORIENTED_EDGE('',*,*,#702,.T.);
#362=ORIENTED_EDGE('',*,*,#564,.T.);
#363=ORIENTED_EDGE('',*,*,#703,.T.);
#364=ORIENTED_EDGE('',*,*,#544,.T.);
#365=ORIENTED_EDGE('',*,*,#704,.T.);
#366=ORIENTED_EDGE('',*,*,#558,.T.);
#367=ORIENTED_EDGE('',*,*,#705,.T.);
#368=ORIENTED_EDGE('',*,*,#542,.F.);
#369=ORIENTED_EDGE('',*,*,#706,.T.);
#370=ORIENTED_EDGE('',*,*,#560,.F.);
#371=ORIENTED_EDGE('',*,*,#707,.T.);
#372=ORIENTED_EDGE('',*,*,#561,.F.);
#373=ORIENTED_EDGE('',*,*,#706,.F.);
#374=ORIENTED_EDGE('',*,*,#541,.F.);
#375=ORIENTED_EDGE('',*,*,#700,.F.);
#376=ORIENTED_EDGE('',*,*,#553,.F.);
#377=ORIENTED_EDGE('',*,*,#698,.F.);
#378=ORIENTED_EDGE('',*,*,#533,.F.);
#379=ORIENTED_EDGE('',*,*,#692,.F.);
#380=ORIENTED_EDGE('',*,*,#559,.F.);
#381=ORIENTED_EDGE('',*,*,#704,.F.);
#382=ORIENTED_EDGE('',*,*,#543,.F.);
#383=ORIENTED_EDGE('',*,*,#707,.F.);
#384=ORIENTED_EDGE('',*,*,#551,.F.);
#385=ORIENTED_EDGE('',*,*,#696,.F.);
#386=ORIENTED_EDGE('',*,*,#535,.F.);
#387=ORIENTED_EDGE('',*,*,#699,.F.);
#388=ORIENTED_EDGE('',*,*,#565,.F.);
#389=ORIENTED_EDGE('',*,*,#702,.F.);
#390=ORIENTED_EDGE('',*,*,#545,.F.);
#391=ORIENTED_EDGE('',*,*,#705,.F.);
#392=ORIENTED_EDGE('',*,*,#557,.F.);
#393=ORIENTED_EDGE('',*,*,#694,.F.);
#394=ORIENTED_EDGE('',*,*,#537,.F.);
#395=ORIENTED_EDGE('',*,*,#697,.F.);
#396=ORIENTED_EDGE('',*,*,#555,.F.);
#397=ORIENTED_EDGE('',*,*,#693,.F.);
#398=ORIENTED_EDGE('',*,*,#531,.F.);
#399=ORIENTED_EDGE('',*,*,#695,.F.);
#400=ORIENTED_EDGE('',*,*,#563,.F.);
#401=ORIENTED_EDGE('',*,*,#701,.F.);
#402=ORIENTED_EDGE('',*,*,#539,.F.);
#403=ORIENTED_EDGE('',*,*,#703,.F.);
#404=ORIENTED_EDGE('',*,*,#587,.F.);
#405=ORIENTED_EDGE('',*,*,#676,.F.);
#406=ORIENTED_EDGE('',*,*,#571,.F.);
#407=ORIENTED_EDGE('',*,*,#678,.F.);
#408=ORIENTED_EDGE('',*,*,#599,.F.);
#409=ORIENTED_EDGE('',*,*,#684,.F.);
#410=ORIENTED_EDGE('',*,*,#579,.F.);
#411=ORIENTED_EDGE('',*,*,#686,.F.);
#412=ORIENTED_EDGE('',*,*,#601,.F.);
#413=ORIENTED_EDGE('',*,*,#687,.F.);
#414=ORIENTED_EDGE('',*,*,#585,.F.);
#415=ORIENTED_EDGE('',*,*,#688,.F.);
#416=ORIENTED_EDGE('',*,*,#589,.F.);
#417=ORIENTED_EDGE('',*,*,#679,.F.);
#418=ORIENTED_EDGE('',*,*,#577,.F.);
#419=ORIENTED_EDGE('',*,*,#680,.F.);
#420=ORIENTED_EDGE('',*,*,#603,.F.);
#421=ORIENTED_EDGE('',*,*,#689,.F.);
#422=ORIENTED_EDGE('',*,*,#583,.F.);
#423=ORIENTED_EDGE('',*,*,#690,.F.);
#424=ORIENTED_EDGE('',*,*,#591,.F.);
#425=ORIENTED_EDGE('',*,*,#681,.F.);
#426=ORIENTED_EDGE('',*,*,#575,.F.);
#427=ORIENTED_EDGE('',*,*,#682,.F.);
#428=ORIENTED_EDGE('',*,*,#605,.F.);
#429=ORIENTED_EDGE('',*,*,#691,.F.);
#430=ORIENTED_EDGE('',*,*,#581,.F.);
#431=ORIENTED_EDGE('',*,*,#685,.F.);
#432=ORIENTED_EDGE('',*,*,#593,.F.);
#433=ORIENTED_EDGE('',*,*,#683,.F.);
#434=ORIENTED_EDGE('',*,*,#573,.F.);
#435=ORIENTED_EDGE('',*,*,#677,.F.);
#436=ORIENTED_EDGE('',*,*,#627,.F.);
#437=ORIENTED_EDGE('',*,*,#672,.F.);
#438=ORIENTED_EDGE('',*,*,#615,.F.);
#439=ORIENTED_EDGE('',*,*,#674,.F.);
#440=ORIENTED_EDGE('',*,*,#625,.F.);
#441=ORIENTED_EDGE('',*,*,#670,.F.);
#442=ORIENTED_EDGE('',*,*,#617,.F.);
#443=ORIENTED_EDGE('',*,*,#673,.F.);
#444=ORIENTED_EDGE('',*,*,#623,.F.);
#445=ORIENTED_EDGE('',*,*,#668,.F.);
#446=ORIENTED_EDGE('',*,*,#611,.F.);
#447=ORIENTED_EDGE('',*,*,#671,.F.);
#448=ORIENTED_EDGE('',*,*,#629,.F.);
#449=ORIENTED_EDGE('',*,*,#675,.F.);
#450=ORIENTED_EDGE('',*,*,#613,.F.);
#451=ORIENTED_EDGE('',*,*,#669,.F.);
#452=ORIENTED_EDGE('',*,*,#708,.F.);
#453=ORIENTED_EDGE('',*,*,#644,.F.);
#454=ORIENTED_EDGE('',*,*,#635,.F.);
#455=ORIENTED_EDGE('',*,*,#527,.F.);
#456=ORIENTED_EDGE('',*,*,#709,.F.);
#457=ORIENTED_EDGE('',*,*,#708,.T.);
#458=ORIENTED_EDGE('',*,*,#710,.F.);
#459=ORIENTED_EDGE('',*,*,#634,.F.);
#460=ORIENTED_EDGE('',*,*,#649,.F.);
#461=ORIENTED_EDGE('',*,*,#711,.F.);
#462=ORIENTED_EDGE('',*,*,#529,.F.);
#463=ORIENTED_EDGE('',*,*,#710,.T.);
#464=ORIENTED_EDGE('',*,*,#526,.F.);
#465=ORIENTED_EDGE('',*,*,#712,.F.);
#466=ORIENTED_EDGE('',*,*,#655,.F.);
#467=ORIENTED_EDGE('',*,*,#709,.T.);
#468=ORIENTED_EDGE('',*,*,#660,.F.);
#469=ORIENTED_EDGE('',*,*,#713,.F.);
#470=ORIENTED_EDGE('',*,*,#642,.F.);
#471=ORIENTED_EDGE('',*,*,#637,.F.);
#472=ORIENTED_EDGE('',*,*,#643,.F.);
#473=ORIENTED_EDGE('',*,*,#714,.F.);
#474=ORIENTED_EDGE('',*,*,#609,.F.);
#475=ORIENTED_EDGE('',*,*,#712,.T.);
#476=ORIENTED_EDGE('',*,*,#711,.T.);
#477=ORIENTED_EDGE('',*,*,#715,.F.);
#478=ORIENTED_EDGE('',*,*,#714,.T.);
#479=ORIENTED_EDGE('',*,*,#713,.T.);
#480=ORIENTED_EDGE('',*,*,#716,.F.);
#481=ORIENTED_EDGE('',*,*,#632,.F.);
#482=ORIENTED_EDGE('',*,*,#569,.F.);
#483=ORIENTED_EDGE('',*,*,#717,.F.);
#484=ORIENTED_EDGE('',*,*,#650,.F.);
#485=ORIENTED_EDGE('',*,*,#715,.T.);
#486=ORIENTED_EDGE('',*,*,#648,.F.);
#487=ORIENTED_EDGE('',*,*,#718,.F.);
#488=ORIENTED_EDGE('',*,*,#656,.F.);
#489=ORIENTED_EDGE('',*,*,#716,.T.);
#490=ORIENTED_EDGE('',*,*,#659,.F.);
#491=ORIENTED_EDGE('',*,*,#719,.F.);
#492=ORIENTED_EDGE('',*,*,#606,.F.);
#493=ORIENTED_EDGE('',*,*,#638,.F.);
#494=ORIENTED_EDGE('',*,*,#607,.F.);
#495=ORIENTED_EDGE('',*,*,#720,.F.);
#496=ORIENTED_EDGE('',*,*,#647,.F.);
#497=ORIENTED_EDGE('',*,*,#718,.T.);
#498=ORIENTED_EDGE('',*,*,#717,.T.);
#499=ORIENTED_EDGE('',*,*,#721,.F.);
#500=ORIENTED_EDGE('',*,*,#720,.T.);
#501=ORIENTED_EDGE('',*,*,#719,.T.);
#502=ORIENTED_EDGE('',*,*,#722,.F.);
#503=ORIENTED_EDGE('',*,*,#721,.T.);
#504=ORIENTED_EDGE('',*,*,#568,.F.);
#505=ORIENTED_EDGE('',*,*,#723,.F.);
#506=ORIENTED_EDGE('',*,*,#657,.F.);
#507=ORIENTED_EDGE('',*,*,#722,.T.);
#508=ORIENTED_EDGE('',*,*,#658,.F.);
#509=ORIENTED_EDGE('',*,*,#724,.F.);
#510=ORIENTED_EDGE('',*,*,#645,.F.);
#511=ORIENTED_EDGE('',*,*,#724,.T.);
#512=ORIENTED_EDGE('',*,*,#723,.T.);
#513=ORIENTED_EDGE('',*,*,#725,.F.);
#514=ORIENTED_EDGE('',*,*,#631,.F.);
#515=ORIENTED_EDGE('',*,*,#646,.F.);
#516=ORIENTED_EDGE('',*,*,#725,.T.);
#517=ORIENTED_EDGE('',*,*,#567,.F.);
#518=ORIENTED_EDGE('',*,*,#667,.T.);
#519=ORIENTED_EDGE('',*,*,#651,.F.);
#520=ORIENTED_EDGE('',*,*,#666,.T.);
#521=ORIENTED_EDGE('',*,*,#652,.F.);
#522=ORIENTED_EDGE('',*,*,#665,.T.);
#523=ORIENTED_EDGE('',*,*,#653,.F.);
#524=ORIENTED_EDGE('',*,*,#664,.T.);
#525=ORIENTED_EDGE('',*,*,#654,.F.);
#526=EDGE_CURVE('',#726,#727,#856,.F.);
#527=EDGE_CURVE('',#727,#728,#857,.F.);
#528=EDGE_CURVE('',#728,#729,#858,.T.);
#529=EDGE_CURVE('',#729,#726,#859,.T.);
#530=EDGE_CURVE('',#730,#731,#860,.T.);
#531=EDGE_CURVE('',#730,#732,#54,.F.);
#532=EDGE_CURVE('',#732,#733,#861,.T.);
#533=EDGE_CURVE('',#733,#734,#55,.F.);
#534=EDGE_CURVE('',#734,#735,#862,.T.);
#535=EDGE_CURVE('',#735,#736,#56,.F.);
#536=EDGE_CURVE('',#737,#736,#863,.T.);
#537=EDGE_CURVE('',#737,#731,#57,.F.);
#538=EDGE_CURVE('',#738,#739,#864,.T.);
#539=EDGE_CURVE('',#738,#740,#58,.F.);
#540=EDGE_CURVE('',#740,#741,#865,.T.);
#541=EDGE_CURVE('',#741,#742,#59,.F.);
#542=EDGE_CURVE('',#742,#743,#866,.T.);
#543=EDGE_CURVE('',#743,#744,#60,.F.);
#544=EDGE_CURVE('',#745,#744,#867,.T.);
#545=EDGE_CURVE('',#745,#739,#61,.F.);
#546=EDGE_CURVE('',#746,#747,#868,.T.);
#547=EDGE_CURVE('',#748,#746,#869,.T.);
#548=EDGE_CURVE('',#748,#749,#870,.T.);
#549=EDGE_CURVE('',#749,#747,#871,.T.);
#550=EDGE_CURVE('',#750,#751,#872,.T.);
#551=EDGE_CURVE('',#750,#752,#62,.F.);
#552=EDGE_CURVE('',#752,#753,#873,.T.);
#553=EDGE_CURVE('',#753,#754,#63,.F.);
#554=EDGE_CURVE('',#754,#755,#874,.T.);
#555=EDGE_CURVE('',#755,#756,#64,.F.);
#556=EDGE_CURVE('',#757,#756,#875,.T.);
#557=EDGE_CURVE('',#757,#751,#65,.F.);
#558=EDGE_CURVE('',#758,#759,#876,.T.);
#559=EDGE_CURVE('',#758,#760,#66,.F.);
#560=EDGE_CURVE('',#760,#761,#877,.T.);
#561=EDGE_CURVE('',#761,#762,#67,.F.);
#562=EDGE_CURVE('',#762,#763,#878,.T.);
#563=EDGE_CURVE('',#763,#764,#68,.F.);
#564=EDGE_CURVE('',#765,#764,#879,.T.);
#565=EDGE_CURVE('',#765,#759,#69,.F.);
#566=EDGE_CURVE('',#766,#767,#880,.T.);
#567=EDGE_CURVE('',#766,#768,#881,.T.);
#568=EDGE_CURVE('',#768,#769,#882,.T.);
#569=EDGE_CURVE('',#769,#767,#883,.F.);
#570=EDGE_CURVE('',#770,#771,#884,.T.);
#571=EDGE_CURVE('',#770,#772,#70,.T.);
#572=EDGE_CURVE('',#772,#773,#885,.T.);
#573=EDGE_CURVE('',#773,#774,#71,.T.);
#574=EDGE_CURVE('',#774,#775,#886,.T.);
#575=EDGE_CURVE('',#775,#776,#72,.T.);
#576=EDGE_CURVE('',#777,#776,#887,.T.);
#577=EDGE_CURVE('',#777,#771,#73,.T.);
#578=EDGE_CURVE('',#778,#779,#888,.T.);
#579=EDGE_CURVE('',#778,#780,#74,.T.);
#580=EDGE_CURVE('',#780,#781,#889,.T.);
#581=EDGE_CURVE('',#781,#782,#75,.T.);
#582=EDGE_CURVE('',#782,#783,#890,.T.);
#583=EDGE_CURVE('',#783,#784,#76,.T.);
#584=EDGE_CURVE('',#785,#784,#891,.T.);
#585=EDGE_CURVE('',#785,#779,#77,.T.);
#586=EDGE_CURVE('',#786,#787,#892,.T.);
#587=EDGE_CURVE('',#786,#788,#78,.T.);
#588=EDGE_CURVE('',#788,#789,#893,.T.);
#589=EDGE_CURVE('',#789,#790,#79,.T.);
#590=EDGE_CURVE('',#790,#791,#894,.T.);
#591=EDGE_CURVE('',#791,#792,#80,.T.);
#592=EDGE_CURVE('',#793,#792,#895,.T.);
#593=EDGE_CURVE('',#793,#787,#81,.T.);
#594=EDGE_CURVE('',#794,#795,#896,.T.);
#595=EDGE_CURVE('',#796,#795,#897,.T.);
#596=EDGE_CURVE('',#797,#796,#898,.T.);
#597=EDGE_CURVE('',#797,#794,#899,.T.);
#598=EDGE_CURVE('',#798,#799,#900,.T.);
#599=EDGE_CURVE('',#798,#800,#82,.T.);
#600=EDGE_CURVE('',#800,#801,#901,.T.);
#601=EDGE_CURVE('',#801,#802,#83,.T.);
#602=EDGE_CURVE('',#802,#803,#902,.T.);
#603=EDGE_CURVE('',#803,#804,#84,.T.);
#604=EDGE_CURVE('',#805,#804,#903,.T.);
#605=EDGE_CURVE('',#805,#799,#85,.T.);
#606=EDGE_CURVE('',#806,#807,#904,.T.);
#607=EDGE_CURVE('',#807,#808,#905,.F.);
#608=EDGE_CURVE('',#809,#808,#906,.T.);
#609=EDGE_CURVE('',#809,#806,#907,.T.);
#610=EDGE_CURVE('',#810,#811,#908,.T.);
#611=EDGE_CURVE('',#810,#812,#86,.T.);
#612=EDGE_CURVE('',#812,#813,#909,.T.);
#613=EDGE_CURVE('',#813,#814,#87,.T.);
#614=EDGE_CURVE('',#814,#815,#910,.T.);
#615=EDGE_CURVE('',#815,#816,#88,.T.);
#616=EDGE_CURVE('',#817,#816,#911,.T.);
#617=EDGE_CURVE('',#817,#811,#89,.T.);
#618=EDGE_CURVE('',#818,#819,#912,.T.);
#619=EDGE_CURVE('',#820,#819,#913,.T.);
#620=EDGE_CURVE('',#821,#820,#914,.T.);
#621=EDGE_CURVE('',#821,#818,#915,.T.);
#622=EDGE_CURVE('',#822,#823,#916,.T.);
#623=EDGE_CURVE('',#822,#824,#90,.T.);
#624=EDGE_CURVE('',#824,#825,#917,.T.);
#625=EDGE_CURVE('',#825,#826,#91,.T.);
#626=EDGE_CURVE('',#826,#827,#918,.T.);
#627=EDGE_CURVE('',#827,#828,#92,.T.);
#628=EDGE_CURVE('',#829,#828,#919,.T.);
#629=EDGE_CURVE('',#829,#823,#93,.T.);
#630=EDGE_CURVE('',#830,#831,#920,.T.);
#631=EDGE_CURVE('',#831,#766,#94,.T.);
#632=EDGE_CURVE('',#767,#832,#95,.T.);
#633=EDGE_CURVE('',#833,#832,#921,.T.);
#634=EDGE_CURVE('',#833,#729,#96,.T.);
#635=EDGE_CURVE('',#728,#834,#97,.T.);
#636=EDGE_CURVE('',#835,#834,#922,.T.);
#637=EDGE_CURVE('',#835,#809,#98,.T.);
#638=EDGE_CURVE('',#808,#830,#99,.T.);
#639=EDGE_CURVE('',#818,#746,#923,.T.);
#640=EDGE_CURVE('',#747,#795,#924,.T.);
#641=EDGE_CURVE('',#819,#794,#925,.T.);
#642=EDGE_CURVE('',#836,#837,#926,.F.);
#643=EDGE_CURVE('',#837,#835,#927,.F.);
#644=EDGE_CURVE('',#834,#836,#928,.T.);
#645=EDGE_CURVE('',#838,#839,#929,.T.);
#646=EDGE_CURVE('',#839,#831,#930,.F.);
#647=EDGE_CURVE('',#830,#838,#931,.T.);
#648=EDGE_CURVE('',#840,#841,#932,.F.);
#649=EDGE_CURVE('',#841,#833,#933,.F.);
#650=EDGE_CURVE('',#832,#840,#934,.T.);
#651=EDGE_CURVE('',#842,#842,#100,.T.);
#652=EDGE_CURVE('',#843,#843,#101,.T.);
#653=EDGE_CURVE('',#844,#844,#102,.T.);
#654=EDGE_CURVE('',#845,#845,#103,.T.);
#655=EDGE_CURVE('',#846,#847,#935,.T.);
#656=EDGE_CURVE('',#847,#848,#936,.T.);
#657=EDGE_CURVE('',#848,#849,#937,.F.);
#658=EDGE_CURVE('',#849,#850,#938,.F.);
#659=EDGE_CURVE('',#850,#851,#939,.F.);
#660=EDGE_CURVE('',#851,#846,#940,.T.);
#661=EDGE_CURVE('',#821,#748,#941,.T.);
#662=EDGE_CURVE('',#820,#797,#942,.T.);
#663=EDGE_CURVE('',#749,#796,#943,.T.);
#664=EDGE_CURVE('',#852,#852,#104,.T.);
#665=EDGE_CURVE('',#853,#853,#105,.T.);
#666=EDGE_CURVE('',#854,#854,#106,.T.);
#667=EDGE_CURVE('',#855,#855,#107,.T.);
#668=EDGE_CURVE('',#812,#822,#944,.F.);
#669=EDGE_CURVE('',#823,#813,#945,.T.);
#670=EDGE_CURVE('',#811,#825,#946,.F.);
#671=EDGE_CURVE('',#824,#810,#947,.T.);
#672=EDGE_CURVE('',#816,#827,#948,.F.);
#673=EDGE_CURVE('',#826,#817,#949,.T.);
#674=EDGE_CURVE('',#828,#815,#950,.T.);
#675=EDGE_CURVE('',#814,#829,#951,.F.);
#676=EDGE_CURVE('',#772,#786,#952,.F.);
#677=EDGE_CURVE('',#787,#773,#953,.T.);
#678=EDGE_CURVE('',#788,#770,#954,.T.);
#679=EDGE_CURVE('',#771,#789,#955,.F.);
#680=EDGE_CURVE('',#790,#777,#956,.T.);
#681=EDGE_CURVE('',#776,#791,#957,.F.);
#682=EDGE_CURVE('',#792,#775,#958,.T.);
#683=EDGE_CURVE('',#774,#793,#959,.F.);
#684=EDGE_CURVE('',#780,#798,#960,.F.);
#685=EDGE_CURVE('',#799,#781,#961,.T.);
#686=EDGE_CURVE('',#800,#778,#962,.T.);
#687=EDGE_CURVE('',#779,#801,#963,.F.);
#688=EDGE_CURVE('',#802,#785,#964,.T.);
#689=EDGE_CURVE('',#784,#803,#965,.F.);
#690=EDGE_CURVE('',#804,#783,#966,.T.);
#691=EDGE_CURVE('',#782,#805,#967,.F.);
#692=EDGE_CURVE('',#754,#733,#968,.T.);
#693=EDGE_CURVE('',#732,#755,#969,.F.);
#694=EDGE_CURVE('',#731,#757,#970,.F.);
#695=EDGE_CURVE('',#756,#730,#971,.T.);
#696=EDGE_CURVE('',#736,#750,#972,.F.);
#697=EDGE_CURVE('',#751,#737,#973,.T.);
#698=EDGE_CURVE('',#734,#753,#974,.F.);
#699=EDGE_CURVE('',#752,#735,#975,.T.);
#700=EDGE_CURVE('',#762,#741,#976,.T.);
#701=EDGE_CURVE('',#740,#763,#977,.F.);
#702=EDGE_CURVE('',#739,#765,#978,.F.);
#703=EDGE_CURVE('',#764,#738,#979,.T.);
#704=EDGE_CURVE('',#744,#758,#980,.F.);
#705=EDGE_CURVE('',#759,#745,#981,.T.);
#706=EDGE_CURVE('',#742,#761,#982,.F.);
#707=EDGE_CURVE('',#760,#743,#983,.T.);
#708=EDGE_CURVE('',#836,#727,#108,.T.);
#709=EDGE_CURVE('',#836,#846,#109,.F.);
#710=EDGE_CURVE('',#846,#727,#110,.F.);
#711=EDGE_CURVE('',#726,#841,#111,.T.);
#712=EDGE_CURVE('',#847,#726,#112,.T.);
#713=EDGE_CURVE('',#837,#851,#113,.T.);
#714=EDGE_CURVE('',#806,#837,#114,.T.);
#715=EDGE_CURVE('',#847,#841,#115,.F.);
#716=EDGE_CURVE('',#806,#851,#116,.F.);
#717=EDGE_CURVE('',#840,#769,#117,.T.);
#718=EDGE_CURVE('',#848,#840,#118,.T.);
#719=EDGE_CURVE('',#807,#850,#119,.T.);
#720=EDGE_CURVE('',#838,#807,#120,.T.);
#721=EDGE_CURVE('',#848,#769,#121,.F.);
#722=EDGE_CURVE('',#838,#850,#122,.F.);
#723=EDGE_CURVE('',#849,#768,#123,.T.);
#724=EDGE_CURVE('',#839,#849,#124,.T.);
#725=EDGE_CURVE('',#839,#768,#125,.F.);
#726=VERTEX_POINT('',#2017);
#727=VERTEX_POINT('',#2018);
#728=VERTEX_POINT('',#2020);
#729=VERTEX_POINT('',#2022);
#730=VERTEX_POINT('',#2025);
#731=VERTEX_POINT('',#2026);
#732=VERTEX_POINT('',#2028);
#733=VERTEX_POINT('',#2030);
#734=VERTEX_POINT('',#2032);
#735=VERTEX_POINT('',#2034);
#736=VERTEX_POINT('',#2036);
#737=VERTEX_POINT('',#2038);
#738=VERTEX_POINT('',#2041);
#739=VERTEX_POINT('',#2042);
#740=VERTEX_POINT('',#2044);
#741=VERTEX_POINT('',#2046);
#742=VERTEX_POINT('',#2048);
#743=VERTEX_POINT('',#2050);
#744=VERTEX_POINT('',#2052);
#745=VERTEX_POINT('',#2054);
#746=VERTEX_POINT('',#2058);
#747=VERTEX_POINT('',#2059);
#748=VERTEX_POINT('',#2061);
#749=VERTEX_POINT('',#2063);
#750=VERTEX_POINT('',#2066);
#751=VERTEX_POINT('',#2067);
#752=VERTEX_POINT('',#2069);
#753=VERTEX_POINT('',#2071);
#754=VERTEX_POINT('',#2073);
#755=VERTEX_POINT('',#2075);
#756=VERTEX_POINT('',#2077);
#757=VERTEX_POINT('',#2079);
#758=VERTEX_POINT('',#2082);
#759=VERTEX_POINT('',#2083);
#760=VERTEX_POINT('',#2085);
#761=VERTEX_POINT('',#2087);
#762=VERTEX_POINT('',#2089);
#763=VERTEX_POINT('',#2091);
#764=VERTEX_POINT('',#2093);
#765=VERTEX_POINT('',#2095);
#766=VERTEX_POINT('',#2099);
#767=VERTEX_POINT('',#2100);
#768=VERTEX_POINT('',#2102);
#769=VERTEX_POINT('',#2104);
#770=VERTEX_POINT('',#2107);
#771=VERTEX_POINT('',#2108);
#772=VERTEX_POINT('',#2110);
#773=VERTEX_POINT('',#2112);
#774=VERTEX_POINT('',#2114);
#775=VERTEX_POINT('',#2116);
#776=VERTEX_POINT('',#2118);
#777=VERTEX_POINT('',#2120);
#778=VERTEX_POINT('',#2123);
#779=VERTEX_POINT('',#2124);
#780=VERTEX_POINT('',#2126);
#781=VERTEX_POINT('',#2128);
#782=VERTEX_POINT('',#2130);
#783=VERTEX_POINT('',#2132);
#784=VERTEX_POINT('',#2134);
#785=VERTEX_POINT('',#2136);
#786=VERTEX_POINT('',#2140);
#787=VERTEX_POINT('',#2141);
#788=VERTEX_POINT('',#2143);
#789=VERTEX_POINT('',#2145);
#790=VERTEX_POINT('',#2147);
#791=VERTEX_POINT('',#2149);
#792=VERTEX_POINT('',#2151);
#793=VERTEX_POINT('',#2153);
#794=VERTEX_POINT('',#2156);
#795=VERTEX_POINT('',#2157);
#796=VERTEX_POINT('',#2159);
#797=VERTEX_POINT('',#2161);
#798=VERTEX_POINT('',#2164);
#799=VERTEX_POINT('',#2165);
#800=VERTEX_POINT('',#2167);
#801=VERTEX_POINT('',#2169);
#802=VERTEX_POINT('',#2171);
#803=VERTEX_POINT('',#2173);
#804=VERTEX_POINT('',#2175);
#805=VERTEX_POINT('',#2177);
#806=VERTEX_POINT('',#2181);
#807=VERTEX_POINT('',#2182);
#808=VERTEX_POINT('',#2184);
#809=VERTEX_POINT('',#2186);
#810=VERTEX_POINT('',#2189);
#811=VERTEX_POINT('',#2190);
#812=VERTEX_POINT('',#2192);
#813=VERTEX_POINT('',#2194);
#814=VERTEX_POINT('',#2196);
#815=VERTEX_POINT('',#2198);
#816=VERTEX_POINT('',#2200);
#817=VERTEX_POINT('',#2202);
#818=VERTEX_POINT('',#2206);
#819=VERTEX_POINT('',#2207);
#820=VERTEX_POINT('',#2209);
#821=VERTEX_POINT('',#2211);
#822=VERTEX_POINT('',#2214);
#823=VERTEX_POINT('',#2215);
#824=VERTEX_POINT('',#2217);
#825=VERTEX_POINT('',#2219);
#826=VERTEX_POINT('',#2221);
#827=VERTEX_POINT('',#2223);
#828=VERTEX_POINT('',#2225);
#829=VERTEX_POINT('',#2227);
#830=VERTEX_POINT('',#2231);
#831=VERTEX_POINT('',#2232);
#832=VERTEX_POINT('',#2235);
#833=VERTEX_POINT('',#2237);
#834=VERTEX_POINT('',#2240);
#835=VERTEX_POINT('',#2242);
#836=VERTEX_POINT('',#2250);
#837=VERTEX_POINT('',#2251);
#838=VERTEX_POINT('',#2256);
#839=VERTEX_POINT('',#2257);
#840=VERTEX_POINT('',#2262);
#841=VERTEX_POINT('',#2263);
#842=VERTEX_POINT('',#2268);
#843=VERTEX_POINT('',#2270);
#844=VERTEX_POINT('',#2272);
#845=VERTEX_POINT('',#2274);
#846=VERTEX_POINT('',#2276);
#847=VERTEX_POINT('',#2277);
#848=VERTEX_POINT('',#2279);
#849=VERTEX_POINT('',#2281);
#850=VERTEX_POINT('',#2283);
#851=VERTEX_POINT('',#2285);
#852=VERTEX_POINT('',#2295);
#853=VERTEX_POINT('',#2297);
#854=VERTEX_POINT('',#2299);
#855=VERTEX_POINT('',#2301);
#856=LINE('',#2016,#984);
#857=LINE('',#2019,#985);
#858=LINE('',#2021,#986);
#859=LINE('',#2023,#987);
#860=LINE('',#2024,#988);
#861=LINE('',#2029,#989);
#862=LINE('',#2033,#990);
#863=LINE('',#2037,#991);
#864=LINE('',#2040,#992);
#865=LINE('',#2045,#993);
#866=LINE('',#2049,#994);
#867=LINE('',#2053,#995);
#868=LINE('',#2057,#996);
#869=LINE('',#2060,#997);
#870=LINE('',#2062,#998);
#871=LINE('',#2064,#999);
#872=LINE('',#2065,#1000);
#873=LINE('',#2070,#1001);
#874=LINE('',#2074,#1002);
#875=LINE('',#2078,#1003);
#876=LINE('',#2081,#1004);
#877=LINE('',#2086,#1005);
#878=LINE('',#2090,#1006);
#879=LINE('',#2094,#1007);
#880=LINE('',#2098,#1008);
#881=LINE('',#2101,#1009);
#882=LINE('',#2103,#1010);
#883=LINE('',#2105,#1011);
#884=LINE('',#2106,#1012);
#885=LINE('',#2111,#1013);
#886=LINE('',#2115,#1014);
#887=LINE('',#2119,#1015);
#888=LINE('',#2122,#1016);
#889=LINE('',#2127,#1017);
#890=LINE('',#2131,#1018);
#891=LINE('',#2135,#1019);
#892=LINE('',#2139,#1020);
#893=LINE('',#2144,#1021);
#894=LINE('',#2148,#1022);
#895=LINE('',#2152,#1023);
#896=LINE('',#2155,#1024);
#897=LINE('',#2158,#1025);
#898=LINE('',#2160,#1026);
#899=LINE('',#2162,#1027);
#900=LINE('',#2163,#1028);
#901=LINE('',#2168,#1029);
#902=LINE('',#2172,#1030);
#903=LINE('',#2176,#1031);
#904=LINE('',#2180,#1032);
#905=LINE('',#2183,#1033);
#906=LINE('',#2185,#1034);
#907=LINE('',#2187,#1035);
#908=LINE('',#2188,#1036);
#909=LINE('',#2193,#1037);
#910=LINE('',#2197,#1038);
#911=LINE('',#2201,#1039);
#912=LINE('',#2205,#1040);
#913=LINE('',#2208,#1041);
#914=LINE('',#2210,#1042);
#915=LINE('',#2212,#1043);
#916=LINE('',#2213,#1044);
#917=LINE('',#2218,#1045);
#918=LINE('',#2222,#1046);
#919=LINE('',#2226,#1047);
#920=LINE('',#2230,#1048);
#921=LINE('',#2236,#1049);
#922=LINE('',#2241,#1050);
#923=LINE('',#2245,#1051);
#924=LINE('',#2246,#1052);
#925=LINE('',#2247,#1053);
#926=LINE('',#2249,#1054);
#927=LINE('',#2252,#1055);
#928=LINE('',#2253,#1056);
#929=LINE('',#2255,#1057);
#930=LINE('',#2258,#1058);
#931=LINE('',#2259,#1059);
#932=LINE('',#2261,#1060);
#933=LINE('',#2264,#1061);
#934=LINE('',#2265,#1062);
#935=LINE('',#2275,#1063);
#936=LINE('',#2278,#1064);
#937=LINE('',#2280,#1065);
#938=LINE('',#2282,#1066);
#939=LINE('',#2284,#1067);
#940=LINE('',#2286,#1068);
#941=LINE('',#2288,#1069);
#942=LINE('',#2290,#1070);
#943=LINE('',#2292,#1071);
#944=LINE('',#2303,#1072);
#945=LINE('',#2304,#1073);
#946=LINE('',#2306,#1074);
#947=LINE('',#2307,#1075);
#948=LINE('',#2309,#1076);
#949=LINE('',#2310,#1077);
#950=LINE('',#2312,#1078);
#951=LINE('',#2313,#1079);
#952=LINE('',#2315,#1080);
#953=LINE('',#2316,#1081);
#954=LINE('',#2318,#1082);
#955=LINE('',#2319,#1083);
#956=LINE('',#2321,#1084);
#957=LINE('',#2322,#1085);
#958=LINE('',#2324,#1086);
#959=LINE('',#2325,#1087);
#960=LINE('',#2327,#1088);
#961=LINE('',#2328,#1089);
#962=LINE('',#2330,#1090);
#963=LINE('',#2331,#1091);
#964=LINE('',#2333,#1092);
#965=LINE('',#2334,#1093);
#966=LINE('',#2336,#1094);
#967=LINE('',#2337,#1095);
#968=LINE('',#2339,#1096);
#969=LINE('',#2340,#1097);
#970=LINE('',#2342,#1098);
#971=LINE('',#2343,#1099);
#972=LINE('',#2345,#1100);
#973=LINE('',#2346,#1101);
#974=LINE('',#2348,#1102);
#975=LINE('',#2349,#1103);
#976=LINE('',#2351,#1104);
#977=LINE('',#2352,#1105);
#978=LINE('',#2354,#1106);
#979=LINE('',#2355,#1107);
#980=LINE('',#2357,#1108);
#981=LINE('',#2358,#1109);
#982=LINE('',#2360,#1110);
#983=LINE('',#2361,#1111);
#984=VECTOR('',#1590,1000.);
#985=VECTOR('',#1591,1000.);
#986=VECTOR('',#1592,1000.);
#987=VECTOR('',#1593,1000.);
#988=VECTOR('',#1594,1000.);
#989=VECTOR('',#1597,1000.);
#990=VECTOR('',#1600,1000.);
#991=VECTOR('',#1603,1000.);
#992=VECTOR('',#1606,1000.);
#993=VECTOR('',#1609,1000.);
#994=VECTOR('',#1612,1000.);
#995=VECTOR('',#1615,1000.);
#996=VECTOR('',#1620,1000.);
#997=VECTOR('',#1621,1000.);
#998=VECTOR('',#1622,1000.);
#999=VECTOR('',#1623,1000.);
#1000=VECTOR('',#1624,1000.);
#1001=VECTOR('',#1627,1000.);
#1002=VECTOR('',#1630,1000.);
#1003=VECTOR('',#1633,1000.);
#1004=VECTOR('',#1636,1000.);
#1005=VECTOR('',#1639,1000.);
#1006=VECTOR('',#1642,1000.);
#1007=VECTOR('',#1645,1000.);
#1008=VECTOR('',#1650,1000.);
#1009=VECTOR('',#1651,1000.);
#1010=VECTOR('',#1652,1000.);
#1011=VECTOR('',#1653,1000.);
#1012=VECTOR('',#1654,1000.);
#1013=VECTOR('',#1657,1000.);
#1014=VECTOR('',#1660,1000.);
#1015=VECTOR('',#1663,1000.);
#1016=VECTOR('',#1666,1000.);
#1017=VECTOR('',#1669,1000.);
#1018=VECTOR('',#1672,1000.);
#1019=VECTOR('',#1675,1000.);
#1020=VECTOR('',#1680,1000.);
#1021=VECTOR('',#1683,1000.);
#1022=VECTOR('',#1686,1000.);
#1023=VECTOR('',#1689,1000.);
#1024=VECTOR('',#1692,1000.);
#1025=VECTOR('',#1693,1000.);
#1026=VECTOR('',#1694,1000.);
#1027=VECTOR('',#1695,1000.);
#1028=VECTOR('',#1696,1000.);
#1029=VECTOR('',#1699,1000.);
#1030=VECTOR('',#1702,1000.);
#1031=VECTOR('',#1705,1000.);
#1032=VECTOR('',#1710,1000.);
#1033=VECTOR('',#1711,1000.);
#1034=VECTOR('',#1712,1000.);
#1035=VECTOR('',#1713,1000.);
#1036=VECTOR('',#1714,1000.);
#1037=VECTOR('',#1717,1000.);
#1038=VECTOR('',#1720,1000.);
#1039=VECTOR('',#1723,1000.);
#1040=VECTOR('',#1728,1000.);
#1041=VECTOR('',#1729,1000.);
#1042=VECTOR('',#1730,1000.);
#1043=VECTOR('',#1731,1000.);
#1044=VECTOR('',#1732,1000.);
#1045=VECTOR('',#1735,1000.);
#1046=VECTOR('',#1738,1000.);
#1047=VECTOR('',#1741,1000.);
#1048=VECTOR('',#1746,1000.);
#1049=VECTOR('',#1751,1000.);
#1050=VECTOR('',#1756,1000.);
#1051=VECTOR('',#1761,1000.);
#1052=VECTOR('',#1762,1000.);
#1053=VECTOR('',#1763,1000.);
#1054=VECTOR('',#1766,1000.);
#1055=VECTOR('',#1767,1000.);
#1056=VECTOR('',#1768,1000.);
#1057=VECTOR('',#1771,1000.);
#1058=VECTOR('',#1772,1000.);
#1059=VECTOR('',#1773,1000.);
#1060=VECTOR('',#1776,1000.);
#1061=VECTOR('',#1777,1000.);
#1062=VECTOR('',#1778,1000.);
#1063=VECTOR('',#1789,1000.);
#1064=VECTOR('',#1790,1000.);
#1065=VECTOR('',#1791,1000.);
#1066=VECTOR('',#1792,1000.);
#1067=VECTOR('',#1793,1000.);
#1068=VECTOR('',#1794,1000.);
#1069=VECTOR('',#1797,1000.);
#1070=VECTOR('',#1800,1000.);
#1071=VECTOR('',#1803,1000.);
#1072=VECTOR('',#1816,1000.);
#1073=VECTOR('',#1817,1000.);
#1074=VECTOR('',#1820,1000.);
#1075=VECTOR('',#1821,1000.);
#1076=VECTOR('',#1824,1000.);
#1077=VECTOR('',#1825,1000.);
#1078=VECTOR('',#1828,1000.);
#1079=VECTOR('',#1829,1000.);
#1080=VECTOR('',#1832,1000.);
#1081=VECTOR('',#1833,1000.);
#1082=VECTOR('',#1836,1000.);
#1083=VECTOR('',#1837,1000.);
#1084=VECTOR('',#1840,1000.);
#1085=VECTOR('',#1841,1000.);
#1086=VECTOR('',#1844,1000.);
#1087=VECTOR('',#1845,1000.);
#1088=VECTOR('',#1848,1000.);
#1089=VECTOR('',#1849,1000.);
#1090=VECTOR('',#1852,1000.);
#1091=VECTOR('',#1853,1000.);
#1092=VECTOR('',#1856,1000.);
#1093=VECTOR('',#1857,1000.);
#1094=VECTOR('',#1860,1000.);
#1095=VECTOR('',#1861,1000.);
#1096=VECTOR('',#1864,1000.);
#1097=VECTOR('',#1865,1000.);
#1098=VECTOR('',#1868,1000.);
#1099=VECTOR('',#1869,1000.);
#1100=VECTOR('',#1872,1000.);
#1101=VECTOR('',#1873,1000.);
#1102=VECTOR('',#1876,1000.);
#1103=VECTOR('',#1877,1000.);
#1104=VECTOR('',#1880,1000.);
#1105=VECTOR('',#1881,1000.);
#1106=VECTOR('',#1884,1000.);
#1107=VECTOR('',#1885,1000.);
#1108=VECTOR('',#1888,1000.);
#1109=VECTOR('',#1889,1000.);
#1110=VECTOR('',#1892,1000.);
#1111=VECTOR('',#1893,1000.);
#1112=EDGE_LOOP('',(#126,#127,#128,#129));
#1113=EDGE_LOOP('',(#130,#131,#132,#133,#134,#135,#136,#137));
#1114=EDGE_LOOP('',(#138,#139,#140,#141,#142,#143,#144,#145));
#1115=EDGE_LOOP('',(#146,#147,#148,#149));
#1116=EDGE_LOOP('',(#150,#151,#152,#153,#154,#155,#156,#157));
#1117=EDGE_LOOP('',(#158,#159,#160,#161,#162,#163,#164,#165));
#1118=EDGE_LOOP('',(#166,#167,#168,#169));
#1119=EDGE_LOOP('',(#170,#171,#172,#173,#174,#175,#176,#177));
#1120=EDGE_LOOP('',(#178,#179,#180,#181,#182,#183,#184,#185));
#1121=EDGE_LOOP('',(#186,#187,#188,#189,#190,#191,#192,#193));
#1122=EDGE_LOOP('',(#194,#195,#196,#197));
#1123=EDGE_LOOP('',(#198,#199,#200,#201,#202,#203,#204,#205));
#1124=EDGE_LOOP('',(#206,#207,#208,#209));
#1125=EDGE_LOOP('',(#210,#211,#212,#213,#214,#215,#216,#217));
#1126=EDGE_LOOP('',(#218,#219,#220,#221));
#1127=EDGE_LOOP('',(#222,#223,#224,#225,#226,#227,#228,#229));
#1128=EDGE_LOOP('',(#230,#231,#232,#233,#234,#235,#236,#237,#238,#239,#240,
#241));
#1129=EDGE_LOOP('',(#242,#243,#244,#245,#246,#247));
#1130=EDGE_LOOP('',(#248,#249,#250,#251));
#1131=EDGE_LOOP('',(#252,#253,#254,#255));
#1132=EDGE_LOOP('',(#256,#257,#258,#259));
#1133=EDGE_LOOP('',(#260));
#1134=EDGE_LOOP('',(#261));
#1135=EDGE_LOOP('',(#262));
#1136=EDGE_LOOP('',(#263));
#1137=EDGE_LOOP('',(#264,#265,#266,#267,#268,#269));
#1138=EDGE_LOOP('',(#270,#271,#272,#273));
#1139=EDGE_LOOP('',(#274,#275,#276,#277));
#1140=EDGE_LOOP('',(#278,#279,#280,#281));
#1141=EDGE_LOOP('',(#282));
#1142=EDGE_LOOP('',(#283));
#1143=EDGE_LOOP('',(#284));
#1144=EDGE_LOOP('',(#285));
#1145=EDGE_LOOP('',(#286,#287,#288,#289,#290,#291));
#1146=EDGE_LOOP('',(#292,#293,#294,#295));
#1147=EDGE_LOOP('',(#296,#297,#298,#299));
#1148=EDGE_LOOP('',(#300,#301,#302,#303));
#1149=EDGE_LOOP('',(#304,#305,#306,#307));
#1150=EDGE_LOOP('',(#308,#309,#310,#311));
#1151=EDGE_LOOP('',(#312,#313,#314,#315));
#1152=EDGE_LOOP('',(#316,#317,#318,#319));
#1153=EDGE_LOOP('',(#320,#321,#322,#323));
#1154=EDGE_LOOP('',(#324,#325,#326,#327));
#1155=EDGE_LOOP('',(#328,#329,#330,#331));
#1156=EDGE_LOOP('',(#332,#333,#334,#335));
#1157=EDGE_LOOP('',(#336,#337,#338,#339));
#1158=EDGE_LOOP('',(#340,#341,#342,#343));
#1159=EDGE_LOOP('',(#344,#345,#346,#347));
#1160=EDGE_LOOP('',(#348,#349,#350,#351));
#1161=EDGE_LOOP('',(#352,#353,#354,#355));
#1162=EDGE_LOOP('',(#356,#357,#358,#359));
#1163=EDGE_LOOP('',(#360,#361,#362,#363));
#1164=EDGE_LOOP('',(#364,#365,#366,#367));
#1165=EDGE_LOOP('',(#368,#369,#370,#371));
#1166=EDGE_LOOP('',(#372,#373,#374,#375));
#1167=EDGE_LOOP('',(#376,#377,#378,#379));
#1168=EDGE_LOOP('',(#380,#381,#382,#383));
#1169=EDGE_LOOP('',(#384,#385,#386,#387));
#1170=EDGE_LOOP('',(#388,#389,#390,#391));
#1171=EDGE_LOOP('',(#392,#393,#394,#395));
#1172=EDGE_LOOP('',(#396,#397,#398,#399));
#1173=EDGE_LOOP('',(#400,#401,#402,#403));
#1174=EDGE_LOOP('',(#404,#405,#406,#407));
#1175=EDGE_LOOP('',(#408,#409,#410,#411));
#1176=EDGE_LOOP('',(#412,#413,#414,#415));
#1177=EDGE_LOOP('',(#416,#417,#418,#419));
#1178=EDGE_LOOP('',(#420,#421,#422,#423));
#1179=EDGE_LOOP('',(#424,#425,#426,#427));
#1180=EDGE_LOOP('',(#428,#429,#430,#431));
#1181=EDGE_LOOP('',(#432,#433,#434,#435));
#1182=EDGE_LOOP('',(#436,#437,#438,#439));
#1183=EDGE_LOOP('',(#440,#441,#442,#443));
#1184=EDGE_LOOP('',(#444,#445,#446,#447));
#1185=EDGE_LOOP('',(#448,#449,#450,#451));
#1186=EDGE_LOOP('',(#452,#453,#454,#455));
#1187=EDGE_LOOP('',(#456,#457,#458));
#1188=EDGE_LOOP('',(#459,#460,#461,#462));
#1189=EDGE_LOOP('',(#463,#464,#465,#466));
#1190=EDGE_LOOP('',(#467,#468,#469,#470));
#1191=EDGE_LOOP('',(#471,#472,#473,#474));
#1192=EDGE_LOOP('',(#475,#476,#477));
#1193=EDGE_LOOP('',(#478,#479,#480));
#1194=EDGE_LOOP('',(#481,#482,#483,#484));
#1195=EDGE_LOOP('',(#485,#486,#487,#488));
#1196=EDGE_LOOP('',(#489,#490,#491,#492));
#1197=EDGE_LOOP('',(#493,#494,#495,#496));
#1198=EDGE_LOOP('',(#497,#498,#499));
#1199=EDGE_LOOP('',(#500,#501,#502));
#1200=EDGE_LOOP('',(#503,#504,#505,#506));
#1201=EDGE_LOOP('',(#507,#508,#509,#510));
#1202=EDGE_LOOP('',(#511,#512,#513));
#1203=EDGE_LOOP('',(#514,#515,#516,#517));
#1204=EDGE_LOOP('',(#518));
#1205=EDGE_LOOP('',(#519));
#1206=EDGE_LOOP('',(#520));
#1207=EDGE_LOOP('',(#521));
#1208=EDGE_LOOP('',(#522));
#1209=EDGE_LOOP('',(#523));
#1210=EDGE_LOOP('',(#524));
#1211=EDGE_LOOP('',(#525));
#1212=FACE_BOUND('',#1112,.T.);
#1213=FACE_BOUND('',#1113,.T.);
#1214=FACE_BOUND('',#1114,.T.);
#1215=FACE_BOUND('',#1115,.T.);
#1216=FACE_BOUND('',#1116,.T.);
#1217=FACE_BOUND('',#1117,.T.);
#1218=FACE_BOUND('',#1118,.T.);
#1219=FACE_BOUND('',#1119,.T.);
#1220=FACE_BOUND('',#1120,.T.);
#1221=FACE_BOUND('',#1121,.T.);
#1222=FACE_BOUND('',#1122,.T.);
#1223=FACE_BOUND('',#1123,.T.);
#1224=FACE_BOUND('',#1124,.T.);
#1225=FACE_BOUND('',#1125,.T.);
#1226=FACE_BOUND('',#1126,.T.);
#1227=FACE_BOUND('',#1127,.T.);
#1228=FACE_BOUND('',#1128,.T.);
#1229=FACE_BOUND('',#1129,.T.);
#1230=FACE_BOUND('',#1130,.T.);
#1231=FACE_BOUND('',#1131,.T.);
#1232=FACE_BOUND('',#1132,.T.);
#1233=FACE_BOUND('',#1133,.T.);
#1234=FACE_BOUND('',#1134,.T.);
#1235=FACE_BOUND('',#1135,.T.);
#1236=FACE_BOUND('',#1136,.T.);
#1237=FACE_BOUND('',#1137,.T.);
#1238=FACE_BOUND('',#1138,.T.);
#1239=FACE_BOUND('',#1139,.T.);
#1240=FACE_BOUND('',#1140,.T.);
#1241=FACE_BOUND('',#1141,.T.);
#1242=FACE_BOUND('',#1142,.T.);
#1243=FACE_BOUND('',#1143,.T.);
#1244=FACE_BOUND('',#1144,.T.);
#1245=FACE_BOUND('',#1145,.T.);
#1246=FACE_BOUND('',#1146,.T.);
#1247=FACE_BOUND('',#1147,.T.);
#1248=FACE_BOUND('',#1148,.T.);
#1249=FACE_BOUND('',#1149,.T.);
#1250=FACE_BOUND('',#1150,.T.);
#1251=FACE_BOUND('',#1151,.T.);
#1252=FACE_BOUND('',#1152,.T.);
#1253=FACE_BOUND('',#1153,.T.);
#1254=FACE_BOUND('',#1154,.T.);
#1255=FACE_BOUND('',#1155,.T.);
#1256=FACE_BOUND('',#1156,.T.);
#1257=FACE_BOUND('',#1157,.T.);
#1258=FACE_BOUND('',#1158,.T.);
#1259=FACE_BOUND('',#1159,.T.);
#1260=FACE_BOUND('',#1160,.T.);
#1261=FACE_BOUND('',#1161,.T.);
#1262=FACE_BOUND('',#1162,.T.);
#1263=FACE_BOUND('',#1163,.T.);
#1264=FACE_BOUND('',#1164,.T.);
#1265=FACE_BOUND('',#1165,.T.);
#1266=FACE_BOUND('',#1166,.T.);
#1267=FACE_BOUND('',#1167,.T.);
#1268=FACE_BOUND('',#1168,.T.);
#1269=FACE_BOUND('',#1169,.T.);
#1270=FACE_BOUND('',#1170,.T.);
#1271=FACE_BOUND('',#1171,.T.);
#1272=FACE_BOUND('',#1172,.T.);
#1273=FACE_BOUND('',#1173,.T.);
#1274=FACE_BOUND('',#1174,.T.);
#1275=FACE_BOUND('',#1175,.T.);
#1276=FACE_BOUND('',#1176,.T.);
#1277=FACE_BOUND('',#1177,.T.);
#1278=FACE_BOUND('',#1178,.T.);
#1279=FACE_BOUND('',#1179,.T.);
#1280=FACE_BOUND('',#1180,.T.);
#1281=FACE_BOUND('',#1181,.T.);
#1282=FACE_BOUND('',#1182,.T.);
#1283=FACE_BOUND('',#1183,.T.);
#1284=FACE_BOUND('',#1184,.T.);
#1285=FACE_BOUND('',#1185,.T.);
#1286=FACE_BOUND('',#1186,.T.);
#1287=FACE_BOUND('',#1187,.T.);
#1288=FACE_BOUND('',#1188,.T.);
#1289=FACE_BOUND('',#1189,.T.);
#1290=FACE_BOUND('',#1190,.T.);
#1291=FACE_BOUND('',#1191,.T.);
#1292=FACE_BOUND('',#1192,.T.);
#1293=FACE_BOUND('',#1193,.T.);
#1294=FACE_BOUND('',#1194,.T.);
#1295=FACE_BOUND('',#1195,.T.);
#1296=FACE_BOUND('',#1196,.T.);
#1297=FACE_BOUND('',#1197,.T.);
#1298=FACE_BOUND('',#1198,.T.);
#1299=FACE_BOUND('',#1199,.T.);
#1300=FACE_BOUND('',#1200,.T.);
#1301=FACE_BOUND('',#1201,.T.);
#1302=FACE_BOUND('',#1202,.T.);
#1303=FACE_BOUND('',#1203,.T.);
#1304=FACE_BOUND('',#1204,.T.);
#1305=FACE_BOUND('',#1205,.T.);
#1306=FACE_BOUND('',#1206,.T.);
#1307=FACE_BOUND('',#1207,.T.);
#1308=FACE_BOUND('',#1208,.T.);
#1309=FACE_BOUND('',#1209,.T.);
#1310=FACE_BOUND('',#1210,.T.);
#1311=FACE_BOUND('',#1211,.T.);
#1312=PLANE('',#1437);
#1313=PLANE('',#1446);
#1314=PLANE('',#1455);
#1315=PLANE('',#1464);
#1316=PLANE('',#1473);
#1317=PLANE('',#1478);
#1318=PLANE('',#1483);
#1319=PLANE('',#1490);
#1320=PLANE('',#1491);
#1321=PLANE('',#1492);
#1322=PLANE('',#1493);
#1323=PLANE('',#1498);
#1324=PLANE('',#1499);
#1325=PLANE('',#1500);
#1326=PLANE('',#1501);
#1327=PLANE('',#1506);
#1328=PLANE('',#1507);
#1329=PLANE('',#1508);
#1330=PLANE('',#1509);
#1331=PLANE('',#1510);
#1332=PLANE('',#1511);
#1333=PLANE('',#1512);
#1334=PLANE('',#1513);
#1335=PLANE('',#1514);
#1336=PLANE('',#1515);
#1337=PLANE('',#1516);
#1338=PLANE('',#1517);
#1339=PLANE('',#1518);
#1340=PLANE('',#1519);
#1341=PLANE('',#1520);
#1342=PLANE('',#1521);
#1343=PLANE('',#1522);
#1344=PLANE('',#1523);
#1345=PLANE('',#1524);
#1346=PLANE('',#1525);
#1347=ADVANCED_FACE('',(#1212,#1213,#1214),#1312,.T.);
#1348=ADVANCED_FACE('',(#1215,#1216,#1217),#1313,.T.);
#1349=ADVANCED_FACE('',(#1218,#1219,#1220),#1314,.F.);
#1350=ADVANCED_FACE('',(#1221,#1222,#1223),#1315,.F.);
#1351=ADVANCED_FACE('',(#1224,#1225),#1316,.F.);
#1352=ADVANCED_FACE('',(#1226,#1227),#1317,.F.);
#1353=ADVANCED_FACE('',(#1228,#1229),#1318,.T.);
#1354=ADVANCED_FACE('',(#1230),#1319,.T.);
#1355=ADVANCED_FACE('',(#1231),#1320,.F.);
#1356=ADVANCED_FACE('',(#1232),#1321,.T.);
#1357=ADVANCED_FACE('',(#1233,#1234,#1235,#1236,#1237),#1322,.F.);
#1358=ADVANCED_FACE('',(#1238),#1323,.T.);
#1359=ADVANCED_FACE('',(#1239),#1324,.F.);
#1360=ADVANCED_FACE('',(#1240),#1325,.T.);
#1361=ADVANCED_FACE('',(#1241,#1242,#1243,#1244,#1245),#1326,.T.);
#1362=ADVANCED_FACE('',(#1246),#1327,.T.);
#1363=ADVANCED_FACE('',(#1247),#1328,.F.);
#1364=ADVANCED_FACE('',(#1248),#1329,.F.);
#1365=ADVANCED_FACE('',(#1249),#1330,.T.);
#1366=ADVANCED_FACE('',(#1250),#1331,.T.);
#1367=ADVANCED_FACE('',(#1251),#1332,.F.);
#1368=ADVANCED_FACE('',(#1252),#1333,.F.);
#1369=ADVANCED_FACE('',(#1253),#1334,.T.);
#1370=ADVANCED_FACE('',(#1254),#1335,.T.);
#1371=ADVANCED_FACE('',(#1255),#1336,.F.);
#1372=ADVANCED_FACE('',(#1256),#1337,.F.);
#1373=ADVANCED_FACE('',(#1257),#1338,.T.);
#1374=ADVANCED_FACE('',(#1258),#1339,.T.);
#1375=ADVANCED_FACE('',(#1259),#1340,.F.);
#1376=ADVANCED_FACE('',(#1260),#1341,.F.);
#1377=ADVANCED_FACE('',(#1261),#1342,.T.);
#1378=ADVANCED_FACE('',(#1262),#1343,.T.);
#1379=ADVANCED_FACE('',(#1263),#1344,.F.);
#1380=ADVANCED_FACE('',(#1264),#1345,.F.);
#1381=ADVANCED_FACE('',(#1265),#1346,.T.);
#1382=ADVANCED_FACE('',(#1266),#22,.F.);
#1383=ADVANCED_FACE('',(#1267),#23,.F.);
#1384=ADVANCED_FACE('',(#1268),#24,.F.);
#1385=ADVANCED_FACE('',(#1269),#25,.F.);
#1386=ADVANCED_FACE('',(#1270),#26,.F.);
#1387=ADVANCED_FACE('',(#1271),#27,.F.);
#1388=ADVANCED_FACE('',(#1272),#28,.F.);
#1389=ADVANCED_FACE('',(#1273),#29,.F.);
#1390=ADVANCED_FACE('',(#1274),#30,.F.);
#1391=ADVANCED_FACE('',(#1275),#31,.F.);
#1392=ADVANCED_FACE('',(#1276),#32,.F.);
#1393=ADVANCED_FACE('',(#1277),#33,.F.);
#1394=ADVANCED_FACE('',(#1278),#34,.F.);
#1395=ADVANCED_FACE('',(#1279),#35,.F.);
#1396=ADVANCED_FACE('',(#1280),#36,.F.);
#1397=ADVANCED_FACE('',(#1281),#37,.F.);
#1398=ADVANCED_FACE('',(#1282),#38,.F.);
#1399=ADVANCED_FACE('',(#1283),#39,.F.);
#1400=ADVANCED_FACE('',(#1284),#40,.F.);
#1401=ADVANCED_FACE('',(#1285),#41,.F.);
#1402=ADVANCED_FACE('',(#1286),#42,.T.);
#1403=ADVANCED_FACE('',(#1287),#16,.T.);
#1404=ADVANCED_FACE('',(#1288),#43,.T.);
#1405=ADVANCED_FACE('',(#1289),#44,.T.);
#1406=ADVANCED_FACE('',(#1290),#45,.T.);
#1407=ADVANCED_FACE('',(#1291),#46,.T.);
#1408=ADVANCED_FACE('',(#1292),#17,.T.);
#1409=ADVANCED_FACE('',(#1293),#18,.T.);
#1410=ADVANCED_FACE('',(#1294),#47,.T.);
#1411=ADVANCED_FACE('',(#1295),#48,.T.);
#1412=ADVANCED_FACE('',(#1296),#49,.T.);
#1413=ADVANCED_FACE('',(#1297),#50,.T.);
#1414=ADVANCED_FACE('',(#1298),#19,.T.);
#1415=ADVANCED_FACE('',(#1299),#20,.T.);
#1416=ADVANCED_FACE('',(#1300),#51,.T.);
#1417=ADVANCED_FACE('',(#1301),#52,.T.);
#1418=ADVANCED_FACE('',(#1302),#21,.T.);
#1419=ADVANCED_FACE('',(#1303),#53,.T.);
#1420=ADVANCED_FACE('',(#1304,#1305),#12,.T.);
#1421=ADVANCED_FACE('',(#1306,#1307),#13,.T.);
#1422=ADVANCED_FACE('',(#1308,#1309),#14,.T.);
#1423=ADVANCED_FACE('',(#1310,#1311),#15,.T.);
#1424=CLOSED_SHELL('',(#1347,#1348,#1349,#1350,#1351,#1352,#1353,#1354,
#1355,#1356,#1357,#1358,#1359,#1360,#1361,#1362,#1363,#1364,#1365,#1366,
#1367,#1368,#1369,#1370,#1371,#1372,#1373,#1374,#1375,#1376,#1377,#1378,
#1379,#1380,#1381,#1382,#1383,#1384,#1385,#1386,#1387,#1388,#1389,#1390,
#1391,#1392,#1393,#1394,#1395,#1396,#1397,#1398,#1399,#1400,#1401,#1402,
#1403,#1404,#1405,#1406,#1407,#1408,#1409,#1410,#1411,#1412,#1413,#1414,
#1415,#1416,#1417,#1418,#1419,#1420,#1421,#1422,#1423));
#1425=STYLED_ITEM('',(#1426),#1433);
#1426=PRESENTATION_STYLE_ASSIGNMENT((#1427));
#1427=SURFACE_STYLE_USAGE(.BOTH.,#1428);
#1428=SURFACE_SIDE_STYLE('',(#1429));
#1429=SURFACE_STYLE_FILL_AREA(#1430);
#1430=FILL_AREA_STYLE('',(#1431));
#1431=FILL_AREA_STYLE_COLOUR('',#1432);
#1432=COLOUR_RGB('',0.647058823529412,0.647058823529412,0.647058823529412);
#1433=MANIFOLD_SOLID_BREP('Part 1022',#1424);
#1434=SHAPE_DEFINITION_REPRESENTATION(#2428,#1435);
#1435=SHAPE_REPRESENTATION('Part 1022',(#1436),#2423);
#1436=AXIS2_PLACEMENT_3D('',#2014,#1586,#1587);
#1437=AXIS2_PLACEMENT_3D('',#2015,#1588,#1589);
#1438=AXIS2_PLACEMENT_3D('',#2027,#1595,#1596);
#1439=AXIS2_PLACEMENT_3D('',#2031,#1598,#1599);
#1440=AXIS2_PLACEMENT_3D('',#2035,#1601,#1602);
#1441=AXIS2_PLACEMENT_3D('',#2039,#1604,#1605);
#1442=AXIS2_PLACEMENT_3D('',#2043,#1607,#1608);
#1443=AXIS2_PLACEMENT_3D('',#2047,#1610,#1611);
#1444=AXIS2_PLACEMENT_3D('',#2051,#1613,#1614);
#1445=AXIS2_PLACEMENT_3D('',#2055,#1616,#1617);
#1446=AXIS2_PLACEMENT_3D('',#2056,#1618,#1619);
#1447=AXIS2_PLACEMENT_3D('',#2068,#1625,#1626);
#1448=AXIS2_PLACEMENT_3D('',#2072,#1628,#1629);
#1449=AXIS2_PLACEMENT_3D('',#2076,#1631,#1632);
#1450=AXIS2_PLACEMENT_3D('',#2080,#1634,#1635);
#1451=AXIS2_PLACEMENT_3D('',#2084,#1637,#1638);
#1452=AXIS2_PLACEMENT_3D('',#2088,#1640,#1641);
#1453=AXIS2_PLACEMENT_3D('',#2092,#1643,#1644);
#1454=AXIS2_PLACEMENT_3D('',#2096,#1646,#1647);
#1455=AXIS2_PLACEMENT_3D('',#2097,#1648,#1649);
#1456=AXIS2_PLACEMENT_3D('',#2109,#1655,#1656);
#1457=AXIS2_PLACEMENT_3D('',#2113,#1658,#1659);
#1458=AXIS2_PLACEMENT_3D('',#2117,#1661,#1662);
#1459=AXIS2_PLACEMENT_3D('',#2121,#1664,#1665);
#1460=AXIS2_PLACEMENT_3D('',#2125,#1667,#1668);
#1461=AXIS2_PLACEMENT_3D('',#2129,#1670,#1671);
#1462=AXIS2_PLACEMENT_3D('',#2133,#1673,#1674);
#1463=AXIS2_PLACEMENT_3D('',#2137,#1676,#1677);
#1464=AXIS2_PLACEMENT_3D('',#2138,#1678,#1679);
#1465=AXIS2_PLACEMENT_3D('',#2142,#1681,#1682);
#1466=AXIS2_PLACEMENT_3D('',#2146,#1684,#1685);
#1467=AXIS2_PLACEMENT_3D('',#2150,#1687,#1688);
#1468=AXIS2_PLACEMENT_3D('',#2154,#1690,#1691);
#1469=AXIS2_PLACEMENT_3D('',#2166,#1697,#1698);
#1470=AXIS2_PLACEMENT_3D('',#2170,#1700,#1701);
#1471=AXIS2_PLACEMENT_3D('',#2174,#1703,#1704);
#1472=AXIS2_PLACEMENT_3D('',#2178,#1706,#1707);
#1473=AXIS2_PLACEMENT_3D('',#2179,#1708,#1709);
#1474=AXIS2_PLACEMENT_3D('',#2191,#1715,#1716);
#1475=AXIS2_PLACEMENT_3D('',#2195,#1718,#1719);
#1476=AXIS2_PLACEMENT_3D('',#2199,#1721,#1722);
#1477=AXIS2_PLACEMENT_3D('',#2203,#1724,#1725);
#1478=AXIS2_PLACEMENT_3D('',#2204,#1726,#1727);
#1479=AXIS2_PLACEMENT_3D('',#2216,#1733,#1734);
#1480=AXIS2_PLACEMENT_3D('',#2220,#1736,#1737);
#1481=AXIS2_PLACEMENT_3D('',#2224,#1739,#1740);
#1482=AXIS2_PLACEMENT_3D('',#2228,#1742,#1743);
#1483=AXIS2_PLACEMENT_3D('',#2229,#1744,#1745);
#1484=AXIS2_PLACEMENT_3D('',#2233,#1747,#1748);
#1485=AXIS2_PLACEMENT_3D('',#2234,#1749,#1750);
#1486=AXIS2_PLACEMENT_3D('',#2238,#1752,#1753);
#1487=AXIS2_PLACEMENT_3D('',#2239,#1754,#1755);
#1488=AXIS2_PLACEMENT_3D('',#2243,#1757,#1758);
#1489=AXIS2_PLACEMENT_3D('',#2244,#1759,#1760);
#1490=AXIS2_PLACEMENT_3D('',#2248,#1764,#1765);
#1491=AXIS2_PLACEMENT_3D('',#2254,#1769,#1770);
#1492=AXIS2_PLACEMENT_3D('',#2260,#1774,#1775);
#1493=AXIS2_PLACEMENT_3D('',#2266,#1779,#1780);
#1494=AXIS2_PLACEMENT_3D('',#2267,#1781,#1782);
#1495=AXIS2_PLACEMENT_3D('',#2269,#1783,#1784);
#1496=AXIS2_PLACEMENT_3D('',#2271,#1785,#1786);
#1497=AXIS2_PLACEMENT_3D('',#2273,#1787,#1788);
#1498=AXIS2_PLACEMENT_3D('',#2287,#1795,#1796);
#1499=AXIS2_PLACEMENT_3D('',#2289,#1798,#1799);
#1500=AXIS2_PLACEMENT_3D('',#2291,#1801,#1802);
#1501=AXIS2_PLACEMENT_3D('',#2293,#1804,#1805);
#1502=AXIS2_PLACEMENT_3D('',#2294,#1806,#1807);
#1503=AXIS2_PLACEMENT_3D('',#2296,#1808,#1809);
#1504=AXIS2_PLACEMENT_3D('',#2298,#1810,#1811);
#1505=AXIS2_PLACEMENT_3D('',#2300,#1812,#1813);
#1506=AXIS2_PLACEMENT_3D('',#2302,#1814,#1815);
#1507=AXIS2_PLACEMENT_3D('',#2305,#1818,#1819);
#1508=AXIS2_PLACEMENT_3D('',#2308,#1822,#1823);
#1509=AXIS2_PLACEMENT_3D('',#2311,#1826,#1827);
#1510=AXIS2_PLACEMENT_3D('',#2314,#1830,#1831);
#1511=AXIS2_PLACEMENT_3D('',#2317,#1834,#1835);
#1512=AXIS2_PLACEMENT_3D('',#2320,#1838,#1839);
#1513=AXIS2_PLACEMENT_3D('',#2323,#1842,#1843);
#1514=AXIS2_PLACEMENT_3D('',#2326,#1846,#1847);
#1515=AXIS2_PLACEMENT_3D('',#2329,#1850,#1851);
#1516=AXIS2_PLACEMENT_3D('',#2332,#1854,#1855);
#1517=AXIS2_PLACEMENT_3D('',#2335,#1858,#1859);
#1518=AXIS2_PLACEMENT_3D('',#2338,#1862,#1863);
#1519=AXIS2_PLACEMENT_3D('',#2341,#1866,#1867);
#1520=AXIS2_PLACEMENT_3D('',#2344,#1870,#1871);
#1521=AXIS2_PLACEMENT_3D('',#2347,#1874,#1875);
#1522=AXIS2_PLACEMENT_3D('',#2350,#1878,#1879);
#1523=AXIS2_PLACEMENT_3D('',#2353,#1882,#1883);
#1524=AXIS2_PLACEMENT_3D('',#2356,#1886,#1887);
#1525=AXIS2_PLACEMENT_3D('',#2359,#1890,#1891);
#1526=AXIS2_PLACEMENT_3D('',#2362,#1894,#1895);
#1527=AXIS2_PLACEMENT_3D('',#2363,#1896,#1897);
#1528=AXIS2_PLACEMENT_3D('',#2364,#1898,#1899);
#1529=AXIS2_PLACEMENT_3D('',#2365,#1900,#1901);
#1530=AXIS2_PLACEMENT_3D('',#2366,#1902,#1903);
#1531=AXIS2_PLACEMENT_3D('',#2367,#1904,#1905);
#1532=AXIS2_PLACEMENT_3D('',#2368,#1906,#1907);
#1533=AXIS2_PLACEMENT_3D('',#2369,#1908,#1909);
#1534=AXIS2_PLACEMENT_3D('',#2370,#1910,#1911);
#1535=AXIS2_PLACEMENT_3D('',#2371,#1912,#1913);
#1536=AXIS2_PLACEMENT_3D('',#2372,#1914,#1915);
#1537=AXIS2_PLACEMENT_3D('',#2373,#1916,#1917);
#1538=AXIS2_PLACEMENT_3D('',#2374,#1918,#1919);
#1539=AXIS2_PLACEMENT_3D('',#2375,#1920,#1921);
#1540=AXIS2_PLACEMENT_3D('',#2376,#1922,#1923);
#1541=AXIS2_PLACEMENT_3D('',#2377,#1924,#1925);
#1542=AXIS2_PLACEMENT_3D('',#2378,#1926,#1927);
#1543=AXIS2_PLACEMENT_3D('',#2379,#1928,#1929);
#1544=AXIS2_PLACEMENT_3D('',#2380,#1930,#1931);
#1545=AXIS2_PLACEMENT_3D('',#2381,#1932,#1933);
#1546=AXIS2_PLACEMENT_3D('',#2382,#1934,#1935);
#1547=AXIS2_PLACEMENT_3D('',#2383,#1936,#1937);
#1548=AXIS2_PLACEMENT_3D('',#2384,#1938,#1939);
#1549=AXIS2_PLACEMENT_3D('',#2385,#1940,#1941);
#1550=AXIS2_PLACEMENT_3D('',#2386,#1942,#1943);
#1551=AXIS2_PLACEMENT_3D('',#2387,#1944,#1945);
#1552=AXIS2_PLACEMENT_3D('',#2388,#1946,#1947);
#1553=AXIS2_PLACEMENT_3D('',#2389,#1948,#1949);
#1554=AXIS2_PLACEMENT_3D('',#2390,#1950,#1951);
#1555=AXIS2_PLACEMENT_3D('',#2391,#1952,#1953);
#1556=AXIS2_PLACEMENT_3D('',#2392,#1954,#1955);
#1557=AXIS2_PLACEMENT_3D('',#2393,#1956,#1957);
#1558=AXIS2_PLACEMENT_3D('',#2394,#1958,#1959);
#1559=AXIS2_PLACEMENT_3D('',#2395,#1960,#1961);
#1560=AXIS2_PLACEMENT_3D('',#2396,#1962,#1963);
#1561=AXIS2_PLACEMENT_3D('',#2397,#1964,#1965);
#1562=AXIS2_PLACEMENT_3D('',#2398,#1966,#1967);
#1563=AXIS2_PLACEMENT_3D('',#2399,#1968,#1969);
#1564=AXIS2_PLACEMENT_3D('',#2400,#1970,#1971);
#1565=AXIS2_PLACEMENT_3D('',#2401,#1972,#1973);
#1566=AXIS2_PLACEMENT_3D('',#2402,#1974,#1975);
#1567=AXIS2_PLACEMENT_3D('',#2403,#1976,#1977);
#1568=AXIS2_PLACEMENT_3D('',#2404,#1978,#1979);
#1569=AXIS2_PLACEMENT_3D('',#2405,#1980,#1981);
#1570=AXIS2_PLACEMENT_3D('',#2406,#1982,#1983);
#1571=AXIS2_PLACEMENT_3D('',#2407,#1984,#1985);
#1572=AXIS2_PLACEMENT_3D('',#2408,#1986,#1987);
#1573=AXIS2_PLACEMENT_3D('',#2409,#1988,#1989);
#1574=AXIS2_PLACEMENT_3D('',#2410,#1990,#1991);
#1575=AXIS2_PLACEMENT_3D('',#2411,#1992,#1993);
#1576=AXIS2_PLACEMENT_3D('',#2412,#1994,#1995);
#1577=AXIS2_PLACEMENT_3D('',#2413,#1996,#1997);
#1578=AXIS2_PLACEMENT_3D('',#2414,#1998,#1999);
#1579=AXIS2_PLACEMENT_3D('',#2415,#2000,#2001);
#1580=AXIS2_PLACEMENT_3D('',#2416,#2002,#2003);
#1581=AXIS2_PLACEMENT_3D('',#2417,#2004,#2005);
#1582=AXIS2_PLACEMENT_3D('',#2418,#2006,#2007);
#1583=AXIS2_PLACEMENT_3D('',#2419,#2008,#2009);
#1584=AXIS2_PLACEMENT_3D('',#2420,#2010,#2011);
#1585=AXIS2_PLACEMENT_3D('',#2421,#2012,#2013);
#1586=DIRECTION('',(0.,0.,1.));
#1587=DIRECTION('',(1.,0.,0.));
#1588=DIRECTION('',(1.,0.,0.));
#1589=DIRECTION('',(0.,0.,-1.));
#1590=DIRECTION('',(0.,-1.,0.));
#1591=DIRECTION('',(0.,0.,-1.));
#1592=DIRECTION('',(0.,-1.,0.));
#1593=DIRECTION('',(0.,0.,-1.));
#1594=DIRECTION('',(0.,-1.,-1.92747052886312E-16));
#1595=DIRECTION('',(1.,0.,0.));
#1596=DIRECTION('',(0.,0.,-1.));
#1597=DIRECTION('',(0.,0.,-1.));
#1598=DIRECTION('',(1.,0.,0.));
#1599=DIRECTION('',(0.,0.,-1.));
#1600=DIRECTION('',(0.,-1.,-1.44560289664734E-16));
#1601=DIRECTION('',(1.,0.,0.));
#1602=DIRECTION('',(0.,0.,-1.));
#1603=DIRECTION('',(0.,0.,-1.));
#1604=DIRECTION('',(1.,0.,0.));
#1605=DIRECTION('',(0.,0.,-1.));
#1606=DIRECTION('',(0.,-1.,4.8186763221578E-16));
#1607=DIRECTION('',(1.,0.,0.));
#1608=DIRECTION('',(0.,0.,-1.));
#1609=DIRECTION('',(0.,5.10212787052002E-16,-1.));
#1610=DIRECTION('',(1.,0.,0.));
#1611=DIRECTION('',(0.,0.,-1.));
#1612=DIRECTION('',(0.,-1.,-1.44560289664734E-16));
#1613=DIRECTION('',(1.,0.,0.));
#1614=DIRECTION('',(0.,0.,-1.));
#1615=DIRECTION('',(0.,2.55106393526001E-16,-1.));
#1616=DIRECTION('',(1.,0.,0.));
#1617=DIRECTION('',(0.,0.,-1.));
#1618=DIRECTION('',(-1.,0.,0.));
#1619=DIRECTION('',(0.,0.,1.));
#1620=DIRECTION('',(0.,-1.,0.));
#1621=DIRECTION('',(0.,0.,1.));
#1622=DIRECTION('',(0.,-1.,0.));
#1623=DIRECTION('',(0.,0.,1.));
#1624=DIRECTION('',(0.,0.,1.));
#1625=DIRECTION('',(-1.,0.,0.));
#1626=DIRECTION('',(0.,0.,1.));
#1627=DIRECTION('',(0.,1.,1.44560289664734E-16));
#1628=DIRECTION('',(-1.,0.,0.));
#1629=DIRECTION('',(0.,0.,1.));
#1630=DIRECTION('',(0.,0.,1.));
#1631=DIRECTION('',(-1.,0.,0.));
#1632=DIRECTION('',(0.,0.,1.));
#1633=DIRECTION('',(0.,1.,1.92747052886312E-16));
#1634=DIRECTION('',(-1.,0.,0.));
#1635=DIRECTION('',(0.,0.,1.));
#1636=DIRECTION('',(0.,-2.55106393526001E-16,1.));
#1637=DIRECTION('',(-1.,0.,0.));
#1638=DIRECTION('',(0.,0.,1.));
#1639=DIRECTION('',(0.,1.,1.44560289664734E-16));
#1640=DIRECTION('',(-1.,0.,0.));
#1641=DIRECTION('',(0.,0.,1.));
#1642=DIRECTION('',(0.,-5.10212787052002E-16,1.));
#1643=DIRECTION('',(-1.,0.,0.));
#1644=DIRECTION('',(0.,0.,1.));
#1645=DIRECTION('',(0.,1.,-4.8186763221578E-16));
#1646=DIRECTION('',(-1.,0.,0.));
#1647=DIRECTION('',(0.,0.,1.));
#1648=DIRECTION('',(0.,1.,0.));
#1649=DIRECTION('',(0.,0.,1.));
#1650=DIRECTION('',(1.,0.,0.));
#1651=DIRECTION('',(0.,0.,-1.));
#1652=DIRECTION('',(1.,0.,0.));
#1653=DIRECTION('',(0.,0.,-1.));
#1654=DIRECTION('',(-1.,0.,-9.63735264431559E-17));
#1655=DIRECTION('',(0.,1.,0.));
#1656=DIRECTION('',(0.,0.,1.));
#1657=DIRECTION('',(0.,0.,-1.));
#1658=DIRECTION('',(0.,1.,0.));
#1659=DIRECTION('',(0.,0.,1.));
#1660=DIRECTION('',(-1.,0.,-1.44560289664734E-16));
#1661=DIRECTION('',(0.,1.,0.));
#1662=DIRECTION('',(0.,0.,1.));
#1663=DIRECTION('',(5.10212787052002E-16,0.,-1.));
#1664=DIRECTION('',(0.,1.,0.));
#1665=DIRECTION('',(0.,0.,1.));
#1666=DIRECTION('',(-1.,0.,1.92747052886312E-16));
#1667=DIRECTION('',(0.,1.,0.));
#1668=DIRECTION('',(0.,0.,1.));
#1669=DIRECTION('',(0.,0.,-1.));
#1670=DIRECTION('',(0.,1.,0.));
#1671=DIRECTION('',(0.,0.,1.));
#1672=DIRECTION('',(-1.,0.,1.44560289664734E-16));
#1673=DIRECTION('',(0.,1.,0.));
#1674=DIRECTION('',(0.,0.,1.));
#1675=DIRECTION('',(0.,0.,-1.));
#1676=DIRECTION('',(0.,1.,0.));
#1677=DIRECTION('',(0.,0.,1.));
#1678=DIRECTION('',(0.,-1.,0.));
#1679=DIRECTION('',(0.,0.,-1.));
#1680=DIRECTION('',(0.,0.,-1.));
#1681=DIRECTION('',(0.,-1.,0.));
#1682=DIRECTION('',(0.,0.,-1.));
#1683=DIRECTION('',(-1.,0.,-9.63735264431559E-17));
#1684=DIRECTION('',(0.,-1.,0.));
#1685=DIRECTION('',(0.,0.,-1.));
#1686=DIRECTION('',(5.10212787052002E-16,0.,-1.));
#1687=DIRECTION('',(0.,-1.,0.));
#1688=DIRECTION('',(0.,0.,-1.));
#1689=DIRECTION('',(-1.,0.,-1.44560289664734E-16));
#1690=DIRECTION('',(0.,-1.,0.));
#1691=DIRECTION('',(0.,0.,-1.));
#1692=DIRECTION('',(1.,0.,0.));
#1693=DIRECTION('',(0.,0.,1.));
#1694=DIRECTION('',(1.,0.,0.));
#1695=DIRECTION('',(0.,0.,1.));
#1696=DIRECTION('',(0.,0.,-1.));
#1697=DIRECTION('',(0.,-1.,0.));
#1698=DIRECTION('',(0.,0.,-1.));
#1699=DIRECTION('',(-1.,0.,1.92747052886312E-16));
#1700=DIRECTION('',(0.,-1.,0.));
#1701=DIRECTION('',(0.,0.,-1.));
#1702=DIRECTION('',(0.,0.,-1.));
#1703=DIRECTION('',(0.,-1.,0.));
#1704=DIRECTION('',(0.,0.,-1.));
#1705=DIRECTION('',(-1.,0.,1.44560289664734E-16));
#1706=DIRECTION('',(0.,-1.,0.));
#1707=DIRECTION('',(0.,0.,-1.));
#1708=DIRECTION('',(1.,0.,0.));
#1709=DIRECTION('',(0.,0.,-1.));
#1710=DIRECTION('',(0.,-1.,0.));
#1711=DIRECTION('',(0.,0.,-1.));
#1712=DIRECTION('',(0.,-1.,0.));
#1713=DIRECTION('',(0.,0.,-1.));
#1714=DIRECTION('',(0.,1.,9.63735264431559E-17));
#1715=DIRECTION('',(1.,0.,0.));
#1716=DIRECTION('',(0.,0.,-1.));
#1717=DIRECTION('',(0.,0.,-1.));
#1718=DIRECTION('',(1.,0.,0.));
#1719=DIRECTION('',(0.,0.,-1.));
#1720=DIRECTION('',(0.,1.,1.44560289664734E-16));
#1721=DIRECTION('',(1.,0.,0.));
#1722=DIRECTION('',(0.,0.,-1.));
#1723=DIRECTION('',(0.,0.,-1.));
#1724=DIRECTION('',(1.,0.,0.));
#1725=DIRECTION('',(0.,0.,-1.));
#1726=DIRECTION('',(-1.,0.,0.));
#1727=DIRECTION('',(0.,0.,1.));
#1728=DIRECTION('',(0.,-1.,0.));
#1729=DIRECTION('',(0.,0.,1.));
#1730=DIRECTION('',(0.,-1.,0.));
#1731=DIRECTION('',(0.,0.,1.));
#1732=DIRECTION('',(0.,0.,-1.));
#1733=DIRECTION('',(-1.,0.,0.));
#1734=DIRECTION('',(0.,0.,1.));
#1735=DIRECTION('',(0.,1.,9.63735264431559E-17));
#1736=DIRECTION('',(-1.,0.,0.));
#1737=DIRECTION('',(0.,0.,1.));
#1738=DIRECTION('',(0.,0.,-1.));
#1739=DIRECTION('',(-1.,0.,0.));
#1740=DIRECTION('',(0.,0.,1.));
#1741=DIRECTION('',(0.,1.,1.44560289664734E-16));
#1742=DIRECTION('',(-1.,0.,0.));
#1743=DIRECTION('',(0.,0.,1.));
#1744=DIRECTION('',(0.,0.,1.));
#1745=DIRECTION('',(1.,0.,0.));
#1746=DIRECTION('',(0.77420723760353,-0.632932186922353,0.));
#1747=DIRECTION('',(0.,0.,1.));
#1748=DIRECTION('',(1.,0.,0.));
#1749=DIRECTION('',(0.,0.,1.));
#1750=DIRECTION('',(1.,0.,0.));
#1751=DIRECTION('',(-0.64278316456475,-0.766048172997055,0.));
#1752=DIRECTION('',(0.,0.,1.));
#1753=DIRECTION('',(1.,0.,0.));
#1754=DIRECTION('',(0.,0.,1.));
#1755=DIRECTION('',(1.,0.,0.));
#1756=DIRECTION('',(1.,0.,0.));
#1757=DIRECTION('',(0.,0.,1.));
#1758=DIRECTION('',(1.,0.,0.));
#1759=DIRECTION('',(0.,0.,1.));
#1760=DIRECTION('',(1.,0.,0.));
#1761=DIRECTION('',(1.,0.,0.));
#1762=DIRECTION('',(-0.646154394721395,-0.763206720477636,0.));
#1763=DIRECTION('',(0.770040728626897,-0.6379947305862,0.));
#1764=DIRECTION('',(0.,1.,0.));
#1765=DIRECTION('',(0.,0.,1.));
#1766=DIRECTION('',(1.,0.,0.));
#1767=DIRECTION('',(0.,0.,-1.));
#1768=DIRECTION('',(0.,0.,-1.));
#1769=DIRECTION('',(0.632932186922353,0.77420723760353,0.));
#1770=DIRECTION('',(-0.77420723760353,0.632932186922353,0.));
#1771=DIRECTION('',(0.77420723760353,-0.632932186922353,0.));
#1772=DIRECTION('',(0.,0.,-1.));
#1773=DIRECTION('',(0.,0.,-1.));
#1774=DIRECTION('',(0.766048172997055,-0.64278316456475,0.));
#1775=DIRECTION('',(0.64278316456475,0.766048172997055,0.));
#1776=DIRECTION('',(-0.64278316456475,-0.766048172997055,0.));
#1777=DIRECTION('',(0.,0.,-1.));
#1778=DIRECTION('',(0.,0.,-1.));
#1779=DIRECTION('',(0.,0.,1.));
#1780=DIRECTION('',(1.,0.,0.));
#1781=DIRECTION('',(0.,0.,1.));
#1782=DIRECTION('',(1.,0.,0.));
#1783=DIRECTION('',(0.,0.,1.));
#1784=DIRECTION('',(1.,0.,0.));
#1785=DIRECTION('',(0.,0.,1.));
#1786=DIRECTION('',(1.,0.,0.));
#1787=DIRECTION('',(0.,0.,1.));
#1788=DIRECTION('',(1.,0.,0.));
#1789=DIRECTION('',(0.,-1.,0.));
#1790=DIRECTION('',(-0.64278316456475,-0.766048172997055,0.));
#1791=DIRECTION('',(1.,0.,0.));
#1792=DIRECTION('',(0.77420723760353,-0.632932186922353,0.));
#1793=DIRECTION('',(0.,-1.,0.));
#1794=DIRECTION('',(1.,0.,0.));
#1795=DIRECTION('',(0.,-1.,0.));
#1796=DIRECTION('',(0.,0.,-1.));
#1797=DIRECTION('',(1.,0.,0.));
#1798=DIRECTION('',(-0.637994730586199,-0.770040728626897,0.));
#1799=DIRECTION('',(0.770040728626897,-0.6379947305862,0.));
#1800=DIRECTION('',(0.770040728626897,-0.6379947305862,0.));
#1801=DIRECTION('',(-0.763206720477636,0.646154394721395,0.));
#1802=DIRECTION('',(-0.646154394721395,-0.763206720477636,0.));
#1803=DIRECTION('',(-0.646154394721395,-0.763206720477636,0.));
#1804=DIRECTION('',(0.,0.,1.));
#1805=DIRECTION('',(1.,0.,0.));
#1806=DIRECTION('',(0.,0.,1.));
#1807=DIRECTION('',(1.,0.,0.));
#1808=DIRECTION('',(0.,0.,1.));
#1809=DIRECTION('',(1.,0.,0.));
#1810=DIRECTION('',(0.,0.,1.));
#1811=DIRECTION('',(1.,0.,0.));
#1812=DIRECTION('',(0.,0.,1.));
#1813=DIRECTION('',(1.,0.,0.));
#1814=DIRECTION('',(0.,1.,0.));
#1815=DIRECTION('',(0.,0.,1.));
#1816=DIRECTION('',(-1.,0.,0.));
#1817=DIRECTION('',(-1.,0.,0.));
#1818=DIRECTION('',(0.,-9.63735264431559E-17,1.));
#1819=DIRECTION('',(0.,-1.,-9.63735264431559E-17));
#1820=DIRECTION('',(-1.,0.,0.));
#1821=DIRECTION('',(-1.,0.,0.));
#1822=DIRECTION('',(0.,1.,0.));
#1823=DIRECTION('',(0.,0.,1.));
#1824=DIRECTION('',(-1.,0.,0.));
#1825=DIRECTION('',(-1.,0.,0.));
#1826=DIRECTION('',(0.,-1.44560289664734E-16,1.));
#1827=DIRECTION('',(0.,-1.,-1.44560289664734E-16));
#1828=DIRECTION('',(-1.,0.,0.));
#1829=DIRECTION('',(-1.,0.,0.));
#1830=DIRECTION('',(-1.,0.,0.));
#1831=DIRECTION('',(0.,0.,1.));
#1832=DIRECTION('',(0.,-1.,0.));
#1833=DIRECTION('',(0.,-1.,0.));
#1834=DIRECTION('',(-9.63735264431559E-17,0.,1.));
#1835=DIRECTION('',(1.,0.,9.63735264431559E-17));
#1836=DIRECTION('',(0.,-1.,0.));
#1837=DIRECTION('',(0.,-1.,0.));
#1838=DIRECTION('',(-1.,0.,-5.10212787052002E-16));
#1839=DIRECTION('',(-5.10212787052002E-16,0.,1.));
#1840=DIRECTION('',(0.,-1.,0.));
#1841=DIRECTION('',(0.,-1.,0.));
#1842=DIRECTION('',(-1.44560289664734E-16,0.,1.));
#1843=DIRECTION('',(1.,0.,1.44560289664734E-16));
#1844=DIRECTION('',(0.,-1.,0.));
#1845=DIRECTION('',(0.,-1.,0.));
#1846=DIRECTION('',(-1.,0.,0.));
#1847=DIRECTION('',(0.,0.,1.));
#1848=DIRECTION('',(0.,-1.,0.));
#1849=DIRECTION('',(0.,-1.,0.));
#1850=DIRECTION('',(1.92747052886312E-16,0.,1.));
#1851=DIRECTION('',(1.,0.,-1.92747052886312E-16));
#1852=DIRECTION('',(0.,-1.,0.));
#1853=DIRECTION('',(0.,-1.,0.));
#1854=DIRECTION('',(-1.,0.,0.));
#1855=DIRECTION('',(0.,0.,1.));
#1856=DIRECTION('',(0.,-1.,0.));
#1857=DIRECTION('',(0.,-1.,0.));
#1858=DIRECTION('',(1.44560289664734E-16,0.,1.));
#1859=DIRECTION('',(1.,0.,-1.44560289664734E-16));
#1860=DIRECTION('',(0.,-1.,0.));
#1861=DIRECTION('',(0.,-1.,0.));
#1862=DIRECTION('',(0.,-1.,0.));
#1863=DIRECTION('',(0.,0.,-1.));
#1864=DIRECTION('',(1.,0.,0.));
#1865=DIRECTION('',(1.,0.,0.));
#1866=DIRECTION('',(0.,-1.92747052886312E-16,1.));
#1867=DIRECTION('',(0.,-1.,-1.92747052886312E-16));
#1868=DIRECTION('',(1.,0.,0.));
#1869=DIRECTION('',(1.,0.,0.));
#1870=DIRECTION('',(0.,-1.,0.));
#1871=DIRECTION('',(0.,0.,-1.));
#1872=DIRECTION('',(1.,0.,0.));
#1873=DIRECTION('',(1.,0.,0.));
#1874=DIRECTION('',(0.,-1.44560289664734E-16,1.));
#1875=DIRECTION('',(0.,-1.,-1.44560289664734E-16));
#1876=DIRECTION('',(1.,0.,0.));
#1877=DIRECTION('',(1.,0.,0.));
#1878=DIRECTION('',(0.,-1.,-5.10212787052002E-16));
#1879=DIRECTION('',(0.,5.10212787052002E-16,-1.));
#1880=DIRECTION('',(1.,0.,0.));
#1881=DIRECTION('',(1.,0.,0.));
#1882=DIRECTION('',(0.,4.8186763221578E-16,1.));
#1883=DIRECTION('',(0.,-1.,4.8186763221578E-16));
#1884=DIRECTION('',(1.,0.,0.));
#1885=DIRECTION('',(1.,0.,0.));
#1886=DIRECTION('',(0.,-1.,-2.55106393526001E-16));
#1887=DIRECTION('',(0.,2.55106393526001E-16,-1.));
#1888=DIRECTION('',(1.,0.,0.));
#1889=DIRECTION('',(1.,0.,0.));
#1890=DIRECTION('',(0.,-1.44560289664734E-16,1.));
#1891=DIRECTION('',(0.,-1.,-1.44560289664734E-16));
#1892=DIRECTION('',(1.,0.,0.));
#1893=DIRECTION('',(1.,0.,0.));
#1894=DIRECTION('',(-1.,0.,0.));
#1895=DIRECTION('',(0.,0.,1.));
#1896=DIRECTION('',(-1.,0.,0.));
#1897=DIRECTION('',(0.,0.,1.));
#1898=DIRECTION('',(1.,0.,0.));
#1899=DIRECTION('',(0.,0.,-1.));
#1900=DIRECTION('',(1.,0.,0.));
#1901=DIRECTION('',(0.,0.,-1.));
#1902=DIRECTION('',(-1.,0.,0.));
#1903=DIRECTION('',(0.,0.,1.));
#1904=DIRECTION('',(-1.,0.,0.));
#1905=DIRECTION('',(0.,0.,1.));
#1906=DIRECTION('',(1.,0.,0.));
#1907=DIRECTION('',(0.,0.,-1.));
#1908=DIRECTION('',(1.,0.,0.));
#1909=DIRECTION('',(0.,0.,-1.));
#1910=DIRECTION('',(0.,-1.,0.));
#1911=DIRECTION('',(0.,0.,-1.));
#1912=DIRECTION('',(0.,-1.,0.));
#1913=DIRECTION('',(0.,0.,-1.));
#1914=DIRECTION('',(0.,1.,0.));
#1915=DIRECTION('',(0.,0.,1.));
#1916=DIRECTION('',(0.,1.,0.));
#1917=DIRECTION('',(0.,0.,1.));
#1918=DIRECTION('',(0.,-1.,0.));
#1919=DIRECTION('',(0.,0.,-1.));
#1920=DIRECTION('',(0.,-1.,0.));
#1921=DIRECTION('',(0.,0.,-1.));
#1922=DIRECTION('',(0.,1.,0.));
#1923=DIRECTION('',(0.,0.,1.));
#1924=DIRECTION('',(0.,1.,0.));
#1925=DIRECTION('',(0.,0.,1.));
#1926=DIRECTION('',(-1.,0.,0.));
#1927=DIRECTION('',(0.,0.,1.));
#1928=DIRECTION('',(1.,0.,0.));
#1929=DIRECTION('',(0.,0.,-1.));
#1930=DIRECTION('',(-1.,0.,0.));
#1931=DIRECTION('',(0.,0.,1.));
#1932=DIRECTION('',(1.,0.,0.));
#1933=DIRECTION('',(0.,0.,-1.));
#1934=DIRECTION('',(0.,0.,-1.));
#1935=DIRECTION('',(-1.,0.,0.));
#1936=DIRECTION('',(0.,0.,-1.));
#1937=DIRECTION('',(-1.,0.,0.));
#1938=DIRECTION('',(1.,0.,0.));
#1939=DIRECTION('',(0.,0.,-1.));
#1940=DIRECTION('',(1.,0.,0.));
#1941=DIRECTION('',(0.,0.,-1.));
#1942=DIRECTION('',(0.,1.,0.));
#1943=DIRECTION('',(0.,0.,1.));
#1944=DIRECTION('',(0.,0.,-1.));
#1945=DIRECTION('',(-1.,0.,0.));
#1946=DIRECTION('',(0.,0.,-1.));
#1947=DIRECTION('',(-1.,0.,0.));
#1948=DIRECTION('',(0.,1.,0.));
#1949=DIRECTION('',(0.,0.,1.));
#1950=DIRECTION('',(-2.81892564846231E-15,-1.,0.));
#1951=DIRECTION('',(1.,-2.81892564846231E-15,0.));
#1952=DIRECTION('',(-1.,0.,0.));
#1953=DIRECTION('',(0.,0.,1.));
#1954=DIRECTION('',(-1.,0.,0.));
#1955=DIRECTION('',(0.,0.,1.));
#1956=DIRECTION('',(0.,0.,1.));
#1957=DIRECTION('',(1.,0.,0.));
#1958=DIRECTION('',(0.,0.,-1.));
#1959=DIRECTION('',(-1.,0.,0.));
#1960=DIRECTION('',(0.,1.73472347597681E-15,-1.));
#1961=DIRECTION('',(0.,1.,1.73472347597681E-15));
#1962=DIRECTION('',(0.64278316456475,0.766048172997054,5.4605114125078E-16));
#1963=DIRECTION('',(-0.766048172997055,0.64278316456475,0.));
#1964=DIRECTION('',(0.,1.,0.));
#1965=DIRECTION('',(0.,0.,1.));
#1966=DIRECTION('',(0.,1.,0.));
#1967=DIRECTION('',(0.,0.,1.));
#1968=DIRECTION('',(0.,0.,1.));
#1969=DIRECTION('',(1.,0.,0.));
#1970=DIRECTION('',(0.,0.,-1.));
#1971=DIRECTION('',(-1.,0.,0.));
#1972=DIRECTION('',(0.64278316456475,0.766048172997055,0.));
#1973=DIRECTION('',(-0.766048172997055,0.64278316456475,0.));
#1974=DIRECTION('',(-0.642783164564749,-0.766048172997056,0.));
#1975=DIRECTION('',(0.766048172997056,-0.642783164564749,0.));
#1976=DIRECTION('',(0.,-1.,0.));
#1977=DIRECTION('',(0.,0.,-1.));
#1978=DIRECTION('',(0.,-1.,-6.50521303491303E-16));
#1979=DIRECTION('',(0.,6.50521303491303E-16,-1.));
#1980=DIRECTION('',(0.,0.,-1.));
#1981=DIRECTION('',(-1.,0.,0.));
#1982=DIRECTION('',(0.,0.,-1.));
#1983=DIRECTION('',(-1.,0.,0.));
#1984=DIRECTION('',(-3.46944695195361E-15,0.,-1.));
#1985=DIRECTION('',(-1.,0.,3.46944695195361E-15));
#1986=DIRECTION('',(1.,0.,-3.46944695195361E-15));
#1987=DIRECTION('',(-3.46944695195361E-15,0.,-1.));
#1988=DIRECTION('',(0.,6.50521303491303E-16,-1.));
#1989=DIRECTION('',(0.,1.,6.50521303491303E-16));
#1990=DIRECTION('',(-0.774207237603531,0.632932186922351,0.));
#1991=DIRECTION('',(-0.632932186922351,-0.774207237603531,0.));
#1992=DIRECTION('',(1.,0.,0.));
#1993=DIRECTION('',(0.,0.,-1.));
#1994=DIRECTION('',(-1.,2.60208521396521E-15,0.));
#1995=DIRECTION('',(-2.60208521396521E-15,-1.,0.));
#1996=DIRECTION('',(0.77420723760353,-0.632932186922353,0.));
#1997=DIRECTION('',(0.632932186922353,0.77420723760353,0.));
#1998=DIRECTION('',(0.77420723760353,-0.632932186922353,2.014553205513E-15));
#1999=DIRECTION('',(0.632932186922353,0.77420723760353,0.));
#2000=DIRECTION('',(1.73472347597681E-15,0.,-1.));
#2001=DIRECTION('',(-1.,0.,-1.73472347597681E-15));
#2002=DIRECTION('',(0.,0.,-1.));
#2003=DIRECTION('',(-1.,0.,0.));
#2004=DIRECTION('',(0.,0.,-1.));
#2005=DIRECTION('',(-1.,0.,0.));
#2006=DIRECTION('',(0.,0.,1.));
#2007=DIRECTION('',(1.,0.,0.));
#2008=DIRECTION('',(0.,0.,1.));
#2009=DIRECTION('',(1.,0.,0.));
#2010=DIRECTION('',(0.,0.,1.));
#2011=DIRECTION('',(1.,0.,0.));
#2012=DIRECTION('',(0.,0.,1.));
#2013=DIRECTION('',(1.,0.,0.));
#2014=CARTESIAN_POINT('',(0.,0.,0.));
#2015=CARTESIAN_POINT('',(33.,10.4643563274294,7.));
#2016=CARTESIAN_POINT('',(33.,25.,-1.));
#2017=CARTESIAN_POINT('',(33.,-3.34335344798825,-1.));
#2018=CARTESIAN_POINT('',(33.,23.,-1.));
#2019=CARTESIAN_POINT('',(33.,23.,7.));
#2020=CARTESIAN_POINT('',(33.,23.,7.));
#2021=CARTESIAN_POINT('',(33.,10.4643563274294,7.));
#2022=CARTESIAN_POINT('',(33.,-3.34335344798825,7.));
#2023=CARTESIAN_POINT('',(33.,-3.34335344798825,7.));
#2024=CARTESIAN_POINT('',(33.,13.1,4.9));
#2025=CARTESIAN_POINT('',(33.,16.6,4.9));
#2026=CARTESIAN_POINT('',(33.,9.6,4.9));
#2027=CARTESIAN_POINT('',(33.,16.6,3.9));
#2028=CARTESIAN_POINT('',(33.,17.6,3.9));
#2029=CARTESIAN_POINT('',(33.,17.6,3.2));
#2030=CARTESIAN_POINT('',(33.,17.6,2.5));
#2031=CARTESIAN_POINT('',(33.,16.6,2.5));
#2032=CARTESIAN_POINT('',(33.,16.6,1.5));
#2033=CARTESIAN_POINT('',(33.,13.1,1.5));
#2034=CARTESIAN_POINT('',(33.,9.6,1.5));
#2035=CARTESIAN_POINT('',(33.,9.6,2.5));
#2036=CARTESIAN_POINT('',(33.,8.6,2.5));
#2037=CARTESIAN_POINT('',(33.,8.6,3.2));
#2038=CARTESIAN_POINT('',(33.,8.6,3.9));
#2039=CARTESIAN_POINT('',(33.,9.6,3.9));
#2040=CARTESIAN_POINT('',(33.,2.47871265485884,4.9));
#2041=CARTESIAN_POINT('',(33.,5.97871265485884,4.9));
#2042=CARTESIAN_POINT('',(33.,-1.02128734514116,4.9));
#2043=CARTESIAN_POINT('',(33.,5.97871265485884,3.9));
#2044=CARTESIAN_POINT('',(33.,6.97871265485884,3.9));
#2045=CARTESIAN_POINT('',(33.,6.97871265485884,3.2));
#2046=CARTESIAN_POINT('',(33.,6.97871265485884,2.5));
#2047=CARTESIAN_POINT('',(33.,5.97871265485884,2.5));
#2048=CARTESIAN_POINT('',(33.,5.97871265485884,1.5));
#2049=CARTESIAN_POINT('',(33.,2.47871265485884,1.5));
#2050=CARTESIAN_POINT('',(33.,-1.02128734514116,1.5));
#2051=CARTESIAN_POINT('',(33.,-1.02128734514116,2.5));
#2052=CARTESIAN_POINT('',(33.,-2.02128734514116,2.5));
#2053=CARTESIAN_POINT('',(33.,-2.02128734514116,3.2));
#2054=CARTESIAN_POINT('',(33.,-2.02128734514116,3.9));
#2055=CARTESIAN_POINT('',(33.,-1.02128734514116,3.9));
#2056=CARTESIAN_POINT('',(31.,9.73521298822016,-1.));
#2057=CARTESIAN_POINT('',(31.,9.73521298822016,7.));
#2058=CARTESIAN_POINT('',(31.,23.,7.));
#2059=CARTESIAN_POINT('',(31.,-3.52957402355968,7.));
#2060=CARTESIAN_POINT('',(31.,23.,-1.));
#2061=CARTESIAN_POINT('',(31.,23.,-1.));
#2062=CARTESIAN_POINT('',(31.,9.73521298822016,-1.));
#2063=CARTESIAN_POINT('',(31.,-3.52957402355968,-1.));
#2064=CARTESIAN_POINT('',(31.,-3.52957402355968,-1.));
#2065=CARTESIAN_POINT('',(31.,8.6,-1.));
#2066=CARTESIAN_POINT('',(31.,8.6,2.5));
#2067=CARTESIAN_POINT('',(31.,8.6,3.9));
#2068=CARTESIAN_POINT('',(31.,9.6,2.5));
#2069=CARTESIAN_POINT('',(31.,9.6,1.5));
#2070=CARTESIAN_POINT('',(31.,9.73521298822016,1.5));
#2071=CARTESIAN_POINT('',(31.,16.6,1.5));
#2072=CARTESIAN_POINT('',(31.,16.6,2.5));
#2073=CARTESIAN_POINT('',(31.,17.6,2.5));
#2074=CARTESIAN_POINT('',(31.,17.6,-1.));
#2075=CARTESIAN_POINT('',(31.,17.6,3.9));
#2076=CARTESIAN_POINT('',(31.,16.6,3.9));
#2077=CARTESIAN_POINT('',(31.,16.6,4.9));
#2078=CARTESIAN_POINT('',(31.,9.73521298822015,4.9));
#2079=CARTESIAN_POINT('',(31.,9.6,4.9));
#2080=CARTESIAN_POINT('',(31.,9.6,3.9));
#2081=CARTESIAN_POINT('',(31.,-2.02128734514115,-1.));
#2082=CARTESIAN_POINT('',(31.,-2.02128734514116,2.5));
#2083=CARTESIAN_POINT('',(31.,-2.02128734514116,3.9));
#2084=CARTESIAN_POINT('',(31.,-1.02128734514116,2.5));
#2085=CARTESIAN_POINT('',(31.,-1.02128734514116,1.5));
#2086=CARTESIAN_POINT('',(31.,9.73521298822016,1.5));
#2087=CARTESIAN_POINT('',(31.,5.97871265485884,1.5));
#2088=CARTESIAN_POINT('',(31.,5.97871265485884,2.5));
#2089=CARTESIAN_POINT('',(31.,6.97871265485884,2.5));
#2090=CARTESIAN_POINT('',(31.,6.97871265485884,-1.));
#2091=CARTESIAN_POINT('',(31.,6.97871265485884,3.9));
#2092=CARTESIAN_POINT('',(31.,5.97871265485884,3.9));
#2093=CARTESIAN_POINT('',(31.,5.97871265485884,4.9));
#2094=CARTESIAN_POINT('',(31.,9.73521298822016,4.9));
#2095=CARTESIAN_POINT('',(31.,-1.02128734514116,4.9));
#2096=CARTESIAN_POINT('',(31.,-1.02128734514116,3.9));
#2097=CARTESIAN_POINT('',(3.74867348000407,-25.5,7.));
#2098=CARTESIAN_POINT('',(3.74867348000407,-25.5,7.));
#2099=CARTESIAN_POINT('',(-6.80855835926016,-25.5,7.));
#2100=CARTESIAN_POINT('',(14.0867646260086,-25.5,7.));
#2101=CARTESIAN_POINT('',(-6.80855835926016,-25.5,7.));
#2102=CARTESIAN_POINT('',(-6.80855835926016,-25.5,-1.));
#2103=CARTESIAN_POINT('',(3.74867348000407,-25.5,-1.));
#2104=CARTESIAN_POINT('',(14.0867646260086,-25.5,-1.));
#2105=CARTESIAN_POINT('',(14.0867646260086,-25.5,7.));
#2106=CARTESIAN_POINT('',(9.06938700675964,-25.5,4.9));
#2107=CARTESIAN_POINT('',(12.5693870067596,-25.5,4.9));
#2108=CARTESIAN_POINT('',(5.56938700675964,-25.5,4.9));
#2109=CARTESIAN_POINT('',(12.5693870067596,-25.5,3.9));
#2110=CARTESIAN_POINT('',(13.5693870067596,-25.5,3.9));
#2111=CARTESIAN_POINT('',(13.5693870067596,-25.5,3.2));
#2112=CARTESIAN_POINT('',(13.5693870067596,-25.5,2.5));
#2113=CARTESIAN_POINT('',(12.5693870067596,-25.5,2.5));
#2114=CARTESIAN_POINT('',(12.5693870067596,-25.5,1.5));
#2115=CARTESIAN_POINT('',(9.06938700675964,-25.5,1.5));
#2116=CARTESIAN_POINT('',(5.56938700675964,-25.5,1.5));
#2117=CARTESIAN_POINT('',(5.56938700675964,-25.5,2.5));
#2118=CARTESIAN_POINT('',(4.56938700675964,-25.5,2.5));
#2119=CARTESIAN_POINT('',(4.56938700675964,-25.5,3.2));
#2120=CARTESIAN_POINT('',(4.56938700675964,-25.5,3.9));
#2121=CARTESIAN_POINT('',(5.56938700675964,-25.5,3.9));
#2122=CARTESIAN_POINT('',(-1.6720400467515,-25.5,4.9));
#2123=CARTESIAN_POINT('',(1.8279599532485,-25.5,4.9));
#2124=CARTESIAN_POINT('',(-5.1720400467515,-25.5,4.9));
#2125=CARTESIAN_POINT('',(1.8279599532485,-25.5,3.9));
#2126=CARTESIAN_POINT('',(2.8279599532485,-25.5,3.9));
#2127=CARTESIAN_POINT('',(2.8279599532485,-25.5,3.2));
#2128=CARTESIAN_POINT('',(2.8279599532485,-25.5,2.5));
#2129=CARTESIAN_POINT('',(1.8279599532485,-25.5,2.5));
#2130=CARTESIAN_POINT('',(1.8279599532485,-25.5,1.5));
#2131=CARTESIAN_POINT('',(-1.6720400467515,-25.5,1.5));
#2132=CARTESIAN_POINT('',(-5.1720400467515,-25.5,1.5));
#2133=CARTESIAN_POINT('',(-5.1720400467515,-25.5,2.5));
#2134=CARTESIAN_POINT('',(-6.1720400467515,-25.5,2.5));
#2135=CARTESIAN_POINT('',(-6.1720400467515,-25.5,3.2));
#2136=CARTESIAN_POINT('',(-6.1720400467515,-25.5,3.9));
#2137=CARTESIAN_POINT('',(-5.1720400467515,-25.5,3.9));
#2138=CARTESIAN_POINT('',(3.45066492445767,-23.5,-1.));
#2139=CARTESIAN_POINT('',(13.5693870067596,-23.5,-1.));
#2140=CARTESIAN_POINT('',(13.5693870067596,-23.5,3.9));
#2141=CARTESIAN_POINT('',(13.5693870067596,-23.5,2.5));
#2142=CARTESIAN_POINT('',(12.5693870067596,-23.5,3.9));
#2143=CARTESIAN_POINT('',(12.5693870067596,-23.5,4.9));
#2144=CARTESIAN_POINT('',(3.45066492445767,-23.5,4.9));
#2145=CARTESIAN_POINT('',(5.56938700675964,-23.5,4.9));
#2146=CARTESIAN_POINT('',(5.56938700675964,-23.5,3.9));
#2147=CARTESIAN_POINT('',(4.56938700675964,-23.5,3.9));
#2148=CARTESIAN_POINT('',(4.56938700675964,-23.5,-1.));
#2149=CARTESIAN_POINT('',(4.56938700675964,-23.5,2.5));
#2150=CARTESIAN_POINT('',(5.56938700675964,-23.5,2.5));
#2151=CARTESIAN_POINT('',(5.56938700675964,-23.5,1.5));
#2152=CARTESIAN_POINT('',(3.45066492445767,-23.5,1.5));
#2153=CARTESIAN_POINT('',(12.5693870067596,-23.5,1.5));
#2154=CARTESIAN_POINT('',(12.5693870067596,-23.5,2.5));
#2155=CARTESIAN_POINT('',(3.45066492445767,-23.5,7.));
#2156=CARTESIAN_POINT('',(-7.1910903789103,-23.5,7.));
#2157=CARTESIAN_POINT('',(14.0924202278256,-23.5,7.));
#2158=CARTESIAN_POINT('',(14.0924202278256,-23.5,-1.));
#2159=CARTESIAN_POINT('',(14.0924202278256,-23.5,-1.));
#2160=CARTESIAN_POINT('',(3.45066492445767,-23.5,-1.));
#2161=CARTESIAN_POINT('',(-7.1910903789103,-23.5,-1.));
#2162=CARTESIAN_POINT('',(-7.1910903789103,-23.5,-1.));
#2163=CARTESIAN_POINT('',(2.8279599532485,-23.5,-1.));
#2164=CARTESIAN_POINT('',(2.8279599532485,-23.5,3.9));
#2165=CARTESIAN_POINT('',(2.8279599532485,-23.5,2.5));
#2166=CARTESIAN_POINT('',(1.8279599532485,-23.5,3.9));
#2167=CARTESIAN_POINT('',(1.8279599532485,-23.5,4.9));
#2168=CARTESIAN_POINT('',(3.45066492445767,-23.5,4.9));
#2169=CARTESIAN_POINT('',(-5.1720400467515,-23.5,4.9));
#2170=CARTESIAN_POINT('',(-5.1720400467515,-23.5,3.9));
#2171=CARTESIAN_POINT('',(-6.1720400467515,-23.5,3.9));
#2172=CARTESIAN_POINT('',(-6.1720400467515,-23.5,-1.));
#2173=CARTESIAN_POINT('',(-6.1720400467515,-23.5,2.5));
#2174=CARTESIAN_POINT('',(-5.1720400467515,-23.5,2.5));
#2175=CARTESIAN_POINT('',(-5.1720400467515,-23.5,1.5));
#2176=CARTESIAN_POINT('',(3.45066492445767,-23.5,1.5));
#2177=CARTESIAN_POINT('',(1.8279599532485,-23.5,1.5));
#2178=CARTESIAN_POINT('',(1.8279599532485,-23.5,2.5));
#2179=CARTESIAN_POINT('',(-33.,10.164408525452,7.));
#2180=CARTESIAN_POINT('',(-33.,10.164408525452,-1.));
#2181=CARTESIAN_POINT('',(-33.,23.,-1.));
#2182=CARTESIAN_POINT('',(-33.,-3.72294119869884,-1.));
#2183=CARTESIAN_POINT('',(-33.,-3.72294119869884,7.));
#2184=CARTESIAN_POINT('',(-33.,-3.72294119869884,7.));
#2185=CARTESIAN_POINT('',(-33.,10.164408525452,7.));
#2186=CARTESIAN_POINT('',(-33.,23.,7.));
#2187=CARTESIAN_POINT('',(-33.,23.,-3.));
#2188=CARTESIAN_POINT('',(-33.,7.8,4.9));
#2189=CARTESIAN_POINT('',(-33.,4.3,4.9));
#2190=CARTESIAN_POINT('',(-33.,11.3,4.9));
#2191=CARTESIAN_POINT('',(-33.,4.3,3.9));
#2192=CARTESIAN_POINT('',(-33.,3.3,3.9));
#2193=CARTESIAN_POINT('',(-33.,3.3,3.2));
#2194=CARTESIAN_POINT('',(-33.,3.3,2.5));
#2195=CARTESIAN_POINT('',(-33.,4.3,2.5));
#2196=CARTESIAN_POINT('',(-33.,4.3,1.5));
#2197=CARTESIAN_POINT('',(-33.,7.8,1.5));
#2198=CARTESIAN_POINT('',(-33.,11.3,1.5));
#2199=CARTESIAN_POINT('',(-33.,11.3,2.5));
#2200=CARTESIAN_POINT('',(-33.,12.3,2.5));
#2201=CARTESIAN_POINT('',(-33.,12.3,3.2));
#2202=CARTESIAN_POINT('',(-33.,12.3,3.9));
#2203=CARTESIAN_POINT('',(-33.,11.3,3.9));
#2204=CARTESIAN_POINT('',(-31.,9.6130879605189,-1.));
#2205=CARTESIAN_POINT('',(-31.,9.6130879605189,7.));
#2206=CARTESIAN_POINT('',(-31.,23.,7.));
#2207=CARTESIAN_POINT('',(-31.,-3.77382407896221,7.));
#2208=CARTESIAN_POINT('',(-31.,-3.77382407896221,-1.));
#2209=CARTESIAN_POINT('',(-31.,-3.77382407896221,-1.));
#2210=CARTESIAN_POINT('',(-31.,9.6130879605189,-1.));
#2211=CARTESIAN_POINT('',(-31.,23.,-1.));
#2212=CARTESIAN_POINT('',(-31.,23.,-1.));
#2213=CARTESIAN_POINT('',(-31.,3.3,-1.));
#2214=CARTESIAN_POINT('',(-31.,3.3,3.9));
#2215=CARTESIAN_POINT('',(-31.,3.3,2.5));
#2216=CARTESIAN_POINT('',(-31.,4.3,3.9));
#2217=CARTESIAN_POINT('',(-31.,4.3,4.9));
#2218=CARTESIAN_POINT('',(-31.,9.6130879605189,4.9));
#2219=CARTESIAN_POINT('',(-31.,11.3,4.9));
#2220=CARTESIAN_POINT('',(-31.,11.3,3.9));
#2221=CARTESIAN_POINT('',(-31.,12.3,3.9));
#2222=CARTESIAN_POINT('',(-31.,12.3,-1.));
#2223=CARTESIAN_POINT('',(-31.,12.3,2.5));
#2224=CARTESIAN_POINT('',(-31.,11.3,2.5));
#2225=CARTESIAN_POINT('',(-31.,11.3,1.5));
#2226=CARTESIAN_POINT('',(-31.,9.6130879605189,1.5));
#2227=CARTESIAN_POINT('',(-31.,4.3,1.5));
#2228=CARTESIAN_POINT('',(-31.,4.3,2.5));
#2229=CARTESIAN_POINT('',(0.,-0.250000000000004,7.));
#2230=CARTESIAN_POINT('',(-20.2610200233757,-15.085591474548,7.));
#2231=CARTESIAN_POINT('',(-32.2658643738447,-5.27135567390591,7.));
#2232=CARTESIAN_POINT('',(-8.07442273310487,-25.048414475207,7.));
#2233=CARTESIAN_POINT('',(-6.80855835926016,-23.5,7.));
#2234=CARTESIAN_POINT('',(14.0867646260086,-23.5,7.));
#2235=CARTESIAN_POINT('',(15.6188609720027,-24.7855663291295,7.));
#2236=CARTESIAN_POINT('',(24.0096935033798,-14.7856436725706,7.));
#2237=CARTESIAN_POINT('',(32.5320963459941,-4.62891977711775,7.));
#2238=CARTESIAN_POINT('',(31.,-3.34335344798825,7.));
#2239=CARTESIAN_POINT('',(31.,23.,7.));
#2240=CARTESIAN_POINT('',(31.,25.,7.));
#2241=CARTESIAN_POINT('',(0.,25.,7.));
#2242=CARTESIAN_POINT('',(-31.,25.,7.));
#2243=CARTESIAN_POINT('',(-31.,23.,7.));
#2244=CARTESIAN_POINT('',(-31.,-3.72294119869884,7.));
#2245=CARTESIAN_POINT('',(0.,23.,7.));
#2246=CARTESIAN_POINT('',(22.5462101139128,-13.5147870117798,7.));
#2247=CARTESIAN_POINT('',(-19.0955451894551,-13.6369120394811,7.));
#2248=CARTESIAN_POINT('',(0.,25.,7.));
#2249=CARTESIAN_POINT('',(-33.,25.,-1.));
#2250=CARTESIAN_POINT('',(31.,25.,-1.));
#2251=CARTESIAN_POINT('',(-31.,25.,-1.));
#2252=CARTESIAN_POINT('',(-31.,25.,7.));
#2253=CARTESIAN_POINT('',(31.,25.,7.));
#2254=CARTESIAN_POINT('',(-20.2610200233757,-15.085591474548,7.));
#2255=CARTESIAN_POINT('',(-20.2610200233757,-15.085591474548,-1.));
#2256=CARTESIAN_POINT('',(-32.2658643738447,-5.27135567390591,-1.));
#2257=CARTESIAN_POINT('',(-8.07442273310487,-25.048414475207,-1.));
#2258=CARTESIAN_POINT('',(-8.07442273310487,-25.048414475207,7.));
#2259=CARTESIAN_POINT('',(-32.2658643738447,-5.27135567390591,7.));
#2260=CARTESIAN_POINT('',(24.0096935033798,-14.7856436725706,7.));
#2261=CARTESIAN_POINT('',(33.,-4.07128734514116,-1.));
#2262=CARTESIAN_POINT('',(15.6188609720027,-24.7855663291295,-1.));
#2263=CARTESIAN_POINT('',(32.5320963459941,-4.62891977711776,-1.));
#2264=CARTESIAN_POINT('',(32.5320963459941,-4.62891977711775,7.));
#2265=CARTESIAN_POINT('',(15.6188609720027,-24.7855663291295,-3.));
#2266=CARTESIAN_POINT('',(0.,-0.250000000000004,-3.));
#2267=CARTESIAN_POINT('',(-17.592709517479,19.7156948320568,-3.));
#2268=CARTESIAN_POINT('',(-14.342709517479,19.7156948320568,-3.));
#2269=CARTESIAN_POINT('',(18.305136230588,19.7154555367231,-3.));
#2270=CARTESIAN_POINT('',(21.555136230588,19.7154555367231,-3.));
#2271=CARTESIAN_POINT('',(18.3111234530807,-8.39254446327686,-3.));
#2272=CARTESIAN_POINT('',(21.5611234530807,-8.39254446327686,-3.));
#2273=CARTESIAN_POINT('',(-17.6388714462518,-8.39254446327686,-3.));
#2274=CARTESIAN_POINT('',(-14.3888714462518,-8.39254446327686,-3.));
#2275=CARTESIAN_POINT('',(31.,-4.07128734514116,-3.));
#2276=CARTESIAN_POINT('',(31.,23.,-3.));
#2277=CARTESIAN_POINT('',(31.,-3.34335344798825,-3.));
#2278=CARTESIAN_POINT('',(13.4872906607655,-24.2144336708705,-3.));
#2279=CARTESIAN_POINT('',(14.0867646260086,-23.5,-3.));
#2280=CARTESIAN_POINT('',(0.,-23.5,-3.));
#2281=CARTESIAN_POINT('',(-6.80855835926016,-23.5,-3.));
#2282=CARTESIAN_POINT('',(-14.1205107583937,-17.5223110843279,-3.));
#2283=CARTESIAN_POINT('',(-31.,-3.72294119869884,-3.));
#2284=CARTESIAN_POINT('',(-31.,-0.250000000000004,-3.));
#2285=CARTESIAN_POINT('',(-31.,23.,-3.));
#2286=CARTESIAN_POINT('',(33.,23.,-3.));
#2287=CARTESIAN_POINT('',(0.,23.,-1.));
#2288=CARTESIAN_POINT('',(0.,23.,-1.));
#2289=CARTESIAN_POINT('',(-19.0955451894551,-13.6369120394811,-1.));
#2290=CARTESIAN_POINT('',(-19.0955451894551,-13.6369120394811,-1.));
#2291=CARTESIAN_POINT('',(22.5462101139128,-13.5147870117798,-1.));
#2292=CARTESIAN_POINT('',(22.5462101139128,-13.5147870117798,-1.));
#2293=CARTESIAN_POINT('',(0.,-0.250000000000004,-1.));
#2294=CARTESIAN_POINT('',(-17.6388714462518,-8.39254446327686,-1.));
#2295=CARTESIAN_POINT('',(-16.3888714462518,-8.39254446327686,-1.));
#2296=CARTESIAN_POINT('',(18.3111234530807,-8.39254446327686,-1.));
#2297=CARTESIAN_POINT('',(19.5611234530807,-8.39254446327686,-1.));
#2298=CARTESIAN_POINT('',(18.305136230588,19.7154555367231,-1.));
#2299=CARTESIAN_POINT('',(19.555136230588,19.7154555367231,-1.));
#2300=CARTESIAN_POINT('',(-17.592709517479,19.7156948320568,-1.));
#2301=CARTESIAN_POINT('',(-16.3427095174789,19.7156948320568,-1.));
#2302=CARTESIAN_POINT('',(-30.5,3.3,3.2));
#2303=CARTESIAN_POINT('',(-30.5,3.3,3.9));
#2304=CARTESIAN_POINT('',(-33.,3.3,2.5));
#2305=CARTESIAN_POINT('',(-30.5,7.8,4.9));
#2306=CARTESIAN_POINT('',(-31.,11.3,4.9));
#2307=CARTESIAN_POINT('',(-30.5,4.3,4.9));
#2308=CARTESIAN_POINT('',(-30.5,12.3,3.2));
#2309=CARTESIAN_POINT('',(-30.5,12.3,2.5));
#2310=CARTESIAN_POINT('',(-33.,12.3,3.9));
#2311=CARTESIAN_POINT('',(-30.5,7.8,1.5));
#2312=CARTESIAN_POINT('',(-30.5,11.3,1.5));
#2313=CARTESIAN_POINT('',(-31.,4.3,1.5));
#2314=CARTESIAN_POINT('',(13.5693870067596,-23.,3.2));
#2315=CARTESIAN_POINT('',(13.5693870067596,-23.,3.9));
#2316=CARTESIAN_POINT('',(13.5693870067596,-25.5,2.5));
#2317=CARTESIAN_POINT('',(9.06938700675964,-23.,4.9));
#2318=CARTESIAN_POINT('',(12.5693870067596,-23.,4.9));
#2319=CARTESIAN_POINT('',(5.56938700675964,-23.5,4.9));
#2320=CARTESIAN_POINT('',(4.56938700675964,-23.,3.2));
#2321=CARTESIAN_POINT('',(4.56938700675964,-25.5,3.9));
#2322=CARTESIAN_POINT('',(4.56938700675964,-23.,2.5));
#2323=CARTESIAN_POINT('',(9.06938700675964,-23.,1.5));
#2324=CARTESIAN_POINT('',(5.56938700675964,-23.,1.5));
#2325=CARTESIAN_POINT('',(12.5693870067596,-23.5,1.5));
#2326=CARTESIAN_POINT('',(2.8279599532485,-23.,3.2));
#2327=CARTESIAN_POINT('',(2.8279599532485,-23.,3.9));
#2328=CARTESIAN_POINT('',(2.8279599532485,-25.5,2.5));
#2329=CARTESIAN_POINT('',(-1.6720400467515,-23.,4.9));
#2330=CARTESIAN_POINT('',(1.8279599532485,-23.,4.9));
#2331=CARTESIAN_POINT('',(-5.1720400467515,-23.5,4.9));
#2332=CARTESIAN_POINT('',(-6.1720400467515,-23.,3.2));
#2333=CARTESIAN_POINT('',(-6.1720400467515,-25.5,3.9));
#2334=CARTESIAN_POINT('',(-6.1720400467515,-23.,2.5));
#2335=CARTESIAN_POINT('',(-1.6720400467515,-23.,1.5));
#2336=CARTESIAN_POINT('',(-5.1720400467515,-23.,1.5));
#2337=CARTESIAN_POINT('',(1.8279599532485,-23.5,1.5));
#2338=CARTESIAN_POINT('',(30.5,17.6,3.2));
#2339=CARTESIAN_POINT('',(33.,17.6,2.5));
#2340=CARTESIAN_POINT('',(30.5,17.6,3.9));
#2341=CARTESIAN_POINT('',(30.5,13.1,4.9));
#2342=CARTESIAN_POINT('',(31.,9.6,4.9));
#2343=CARTESIAN_POINT('',(30.5,16.6,4.9));
#2344=CARTESIAN_POINT('',(30.5,8.6,3.2));
#2345=CARTESIAN_POINT('',(30.5,8.6,2.5));
#2346=CARTESIAN_POINT('',(33.,8.6,3.9));
#2347=CARTESIAN_POINT('',(30.5,13.1,1.5));
#2348=CARTESIAN_POINT('',(31.,16.6,1.5));
#2349=CARTESIAN_POINT('',(30.5,9.6,1.5));
#2350=CARTESIAN_POINT('',(30.5,6.97871265485884,3.2));
#2351=CARTESIAN_POINT('',(33.,6.97871265485884,2.5));
#2352=CARTESIAN_POINT('',(30.5,6.97871265485884,3.9));
#2353=CARTESIAN_POINT('',(30.5,2.47871265485884,4.9));
#2354=CARTESIAN_POINT('',(31.,-1.02128734514116,4.9));
#2355=CARTESIAN_POINT('',(30.5,5.97871265485884,4.9));
#2356=CARTESIAN_POINT('',(30.5,-2.02128734514116,3.2));
#2357=CARTESIAN_POINT('',(30.5,-2.02128734514116,2.5));
#2358=CARTESIAN_POINT('',(33.,-2.02128734514116,3.9));
#2359=CARTESIAN_POINT('',(30.5,2.47871265485884,1.5));
#2360=CARTESIAN_POINT('',(31.,5.97871265485884,1.5));
#2361=CARTESIAN_POINT('',(30.5,-1.02128734514116,1.5));
#2362=CARTESIAN_POINT('',(30.5,5.97871265485884,2.5));
#2363=CARTESIAN_POINT('',(30.5,16.6,2.5));
#2364=CARTESIAN_POINT('',(30.5,-1.02128734514116,2.5));
#2365=CARTESIAN_POINT('',(30.5,9.6,2.5));
#2366=CARTESIAN_POINT('',(30.5,-1.02128734514116,3.9));
#2367=CARTESIAN_POINT('',(30.5,9.6,3.9));
#2368=CARTESIAN_POINT('',(30.5,16.6,3.9));
#2369=CARTESIAN_POINT('',(30.5,5.97871265485884,3.9));
#2370=CARTESIAN_POINT('',(12.5693870067596,-23.,3.9));
#2371=CARTESIAN_POINT('',(1.8279599532485,-23.,3.9));
#2372=CARTESIAN_POINT('',(-5.1720400467515,-23.,3.9));
#2373=CARTESIAN_POINT('',(5.56938700675964,-23.,3.9));
#2374=CARTESIAN_POINT('',(-5.1720400467515,-23.,2.5));
#2375=CARTESIAN_POINT('',(5.56938700675964,-23.,2.5));
#2376=CARTESIAN_POINT('',(1.8279599532485,-23.,2.5));
#2377=CARTESIAN_POINT('',(12.5693870067596,-23.,2.5));
#2378=CARTESIAN_POINT('',(-30.5,11.3,2.5));
#2379=CARTESIAN_POINT('',(-30.5,11.3,3.9));
#2380=CARTESIAN_POINT('',(-30.5,4.3,3.9));
#2381=CARTESIAN_POINT('',(-30.5,4.3,2.5));
#2382=CARTESIAN_POINT('',(31.,23.,7.));
#2383=CARTESIAN_POINT('',(31.,23.,-1.));
#2384=CARTESIAN_POINT('',(31.,23.,-1.));
#2385=CARTESIAN_POINT('',(31.,23.,-1.));
#2386=CARTESIAN_POINT('',(31.,23.,-1.));
#2387=CARTESIAN_POINT('',(31.,-3.34335344798825,7.));
#2388=CARTESIAN_POINT('',(31.,-3.34335344798825,-1.));
#2389=CARTESIAN_POINT('',(31.,-0.250000000000004,-1.));
#2390=CARTESIAN_POINT('',(31.,-3.34335344798825,-1.));
#2391=CARTESIAN_POINT('',(0.,23.,-1.));
#2392=CARTESIAN_POINT('',(-31.,23.,-1.));
#2393=CARTESIAN_POINT('',(-31.,23.,7.));
#2394=CARTESIAN_POINT('',(-31.,23.,-1.));
#2395=CARTESIAN_POINT('',(31.,-3.34335344798825,-1.));
#2396=CARTESIAN_POINT('',(31.,-3.34335344798825,-1.));
#2397=CARTESIAN_POINT('',(-31.,23.,-1.));
#2398=CARTESIAN_POINT('',(-31.,23.,-1.));
#2399=CARTESIAN_POINT('',(14.0867646260086,-23.5,7.));
#2400=CARTESIAN_POINT('',(14.0867646260086,-23.5,-1.));
#2401=CARTESIAN_POINT('',(19.7149000160665,-16.7925703866975,-1.));
#2402=CARTESIAN_POINT('',(14.0867646260086,-23.5,-1.));
#2403=CARTESIAN_POINT('',(-31.,10.164408525452,-1.));
#2404=CARTESIAN_POINT('',(-31.,-3.72294119869884,-1.));
#2405=CARTESIAN_POINT('',(-31.,-3.72294119869884,7.));
#2406=CARTESIAN_POINT('',(-31.,-3.72294119869885,-1.));
#2407=CARTESIAN_POINT('',(14.0867646260086,-23.5,-1.));
#2408=CARTESIAN_POINT('',(14.0867646260086,-23.5,-1.));
#2409=CARTESIAN_POINT('',(-31.,-3.72294119869884,-1.));
#2410=CARTESIAN_POINT('',(-31.,-3.72294119869884,-1.));
#2411=CARTESIAN_POINT('',(3.74867348000407,-23.5,-1.));
#2412=CARTESIAN_POINT('',(-6.80855835926016,-23.5,-1.));
#2413=CARTESIAN_POINT('',(-18.995155649531,-13.5371769993409,-1.));
#2414=CARTESIAN_POINT('',(-6.80855835926016,-23.5,-1.));
#2415=CARTESIAN_POINT('',(-6.80855835926016,-23.5,-1.));
#2416=CARTESIAN_POINT('',(-6.80855835926016,-23.5,-1.));
#2417=CARTESIAN_POINT('',(-6.80855835926016,-23.5,7.));
#2418=CARTESIAN_POINT('',(-17.592709517479,19.7156948320568,-1.));
#2419=CARTESIAN_POINT('',(18.305136230588,19.7154555367231,-1.));
#2420=CARTESIAN_POINT('',(18.3111234530807,-8.39254446327686,-1.));
#2421=CARTESIAN_POINT('',(-17.6388714462518,-8.39254446327686,-1.));
#2422=MECHANICAL_DESIGN_GEOMETRIC_PRESENTATION_REPRESENTATION('',(#1425),
#2423);
#2423=(
GEOMETRIC_REPRESENTATION_CONTEXT(3)
GLOBAL_UNCERTAINTY_ASSIGNED_CONTEXT((#2424))
GLOBAL_UNIT_ASSIGNED_CONTEXT((#2427,#2426,#2425))
REPRESENTATION_CONTEXT('Part 1022','TOP_LEVEL_ASSEMBLY_PART')
);
#2424=UNCERTAINTY_MEASURE_WITH_UNIT(LENGTH_MEASURE(1.E-5),#2427,
'DISTANCE_ACCURACY_VALUE','Maximum Tolerance applied to model');
#2425=(
NAMED_UNIT(*)
SI_UNIT($,.STERADIAN.)
SOLID_ANGLE_UNIT()
);
#2426=(
NAMED_UNIT(*)
PLANE_ANGLE_UNIT()
SI_UNIT($,.RADIAN.)
);
#2427=(
LENGTH_UNIT()
NAMED_UNIT(*)
SI_UNIT(.MILLI.,.METRE.)
);
#2428=PRODUCT_DEFINITION_SHAPE('','',#2429);
#2429=PRODUCT_DEFINITION('','',#2431,#2430);
#2430=PRODUCT_DEFINITION_CONTEXT('',#2437,'design');
#2431=PRODUCT_DEFINITION_FORMATION_WITH_SPECIFIED_SOURCE('','',#2433,
 .NOT_KNOWN.);
#2432=PRODUCT_RELATED_PRODUCT_CATEGORY('','',(#2433));
#2433=PRODUCT('Part 1022','Part 1022','Part 1022',(#2435));
#2434=PRODUCT_CATEGORY('','');
#2435=PRODUCT_CONTEXT('',#2437,'mechanical');
#2436=APPLICATION_PROTOCOL_DEFINITION('international standard',
'ap242_managed_model_based_3d_engineering',2020,#2437);
#2437=APPLICATION_CONTEXT('managed model based 3d engineering');
ENDSEC;
END-ISO-10303-21;
